<svg width="19" height="20" viewBox="0 0 19 20" fill="none" xmlns="http://www.w3.org/2000/svg">
<g id="Layer 1">
<g id="Group">
<path id="Vector" d="M11.9173 6.742C12.2554 6.742 12.5304 6.46701 12.5304 6.12885V2.77701C12.5304 1.57302 11.5531 0.595703 10.3528 0.595703H2.17759C0.973597 0.595703 0 1.57302 0 2.77701V15.8425C0 17.0688 0.601995 18.0052 1.4158 18.0759L6.04968 19.3282L6.21318 19.3504C7.0753 19.3504 7.7256 18.388 7.7256 17.1134V17.106H10.3528C11.5531 17.106 12.5304 16.1324 12.5304 14.9284V11.5728C12.5304 11.2347 12.2554 10.9597 11.9173 10.9597C11.5791 10.9597 11.3041 11.2347 11.3041 11.5728V14.9284C11.3041 15.4523 10.8768 15.8797 10.3528 15.8797H7.7256V4.5161C7.7256 3.2861 7.45805 2.51688 6.3098 2.28278L4.61529 1.82199H10.3528C10.8768 1.82199 11.3041 2.24933 11.3041 2.77701V6.12885C11.3041 6.46701 11.5791 6.742 11.9173 6.742ZM5.80814 3.41988C5.99394 3.46819 6.15373 3.57967 6.25406 3.73945C6.37297 3.92154 6.49932 4.19281 6.49932 4.5161V17.1134C6.49932 17.2397 6.49932 17.3475 6.4956 17.4441C6.48073 17.8157 6.12028 18.0759 5.75983 17.9792L2.54176 17.106L1.67221 16.8719L1.54586 16.857C1.45296 16.8087 1.22629 16.452 1.22629 15.8425V3.24151C1.23 2.7064 1.7391 2.31622 2.25562 2.45743L5.80814 3.41988Z" fill="#2B3242"/>
<path id="Vector_2" d="M18.818 8.4106L15.7077 5.3003C15.4662 5.05876 15.0685 5.05876 14.827 5.3003C14.5855 5.54184 14.5855 5.93945 14.827 6.18099L16.8782 8.22852H10.914C10.5684 8.22852 10.2935 8.50722 10.2935 8.84909C10.2935 9.19097 10.5722 9.46967 10.914 9.46967H16.8782L14.8307 11.5172C14.5892 11.7587 14.5892 12.1563 14.8307 12.3979C15.0723 12.6394 15.4699 12.6394 15.7114 12.3979L18.8217 9.28758C19.0633 9.04233 19.0633 8.64843 18.8217 8.40317L18.818 8.4106Z" fill="#2B3242"/>
</g>
</g>
</svg>
