<svg width="21" height="21" viewBox="0 0 21 21" fill="none" xmlns="http://www.w3.org/2000/svg">
<path d="M16.5956 9.10075C16.0139 8.17572 14.6656 8.17572 14.0839 9.10075C13.9989 9.23599 13.8525 9.32049 13.6929 9.32652C12.6009 9.36778 11.9268 10.5354 12.4371 11.5017C12.5117 11.643 12.5117 11.812 12.4371 11.9532C11.9268 12.9195 12.6009 14.0871 13.6929 14.1284C13.8525 14.1344 13.9989 14.2189 14.0839 14.3542C14.6656 15.2792 16.0139 15.2792 16.5956 14.3542C16.6806 14.2189 16.827 14.1344 16.9866 14.1284C18.0786 14.0871 18.7527 12.9195 18.2425 11.9532C18.1679 11.812 18.1679 11.643 18.2425 11.5017C18.7527 10.5354 18.0786 9.36778 16.9866 9.32652C16.827 9.32049 16.6806 9.23599 16.5956 9.10075Z" stroke="#87919F"/>
<path d="M13.2773 14.2607V19.0635L15.3398 17.0947L17.4023 19.0635V14.2607" stroke="#87919F" stroke-linecap="round" stroke-linejoin="round"/>
<circle cx="15.3398" cy="11.7275" r="1.28906" stroke="#87919F"/>
<path d="M19.0242 7.9793V2.63477C19.0242 2.08248 18.5765 1.63477 18.0242 1.63477H2.71094C2.15865 1.63477 1.71094 2.08248 1.71094 2.63477V12.7557C1.71094 13.308 2.15865 13.7557 2.71094 13.7557H10.3123" stroke="#87919F" stroke-linecap="round" stroke-linejoin="round"/>
<path d="M10.2492 12.1488H5.72614V11.9676C5.72614 10.863 4.83071 9.96758 3.72614 9.96758H3.57324V5.50595H3.72614C4.83071 5.50595 5.72614 4.61052 5.72614 3.50595V3.33887H14.8902V3.50595C14.8902 4.61052 15.7856 5.50595 16.8902 5.50595H17.0573V7.23713" stroke="#87919F" stroke-linecap="round"/>
</svg>
