<svg width="18" height="17" viewBox="0 0 18 17" fill="none" xmlns="http://www.w3.org/2000/svg">
<g id="Certificate">
<path id="Star 1" d="M12.3342 7.1649L12.7152 7.40445L12.3342 7.1649C12.2577 7.28661 12.126 7.36266 11.9823 7.36809C10.9995 7.40522 10.3928 8.45607 10.852 9.32574C10.9192 9.45288 10.9192 9.60498 10.852 9.73212C10.3928 10.6018 10.9995 11.6526 11.9823 11.6898C12.126 11.6952 12.2577 11.7712 12.3342 11.893C12.8578 12.7255 14.0712 12.7255 14.5947 11.893C14.6713 11.7712 14.803 11.6952 14.9467 11.6898C15.9294 11.6526 16.5361 10.6018 16.0769 9.73212C16.0098 9.60498 16.0098 9.45288 16.0769 9.32574C16.5361 8.45608 15.9294 7.40522 14.9467 7.36809C14.803 7.36266 14.6713 7.28661 14.5947 7.1649C14.0712 6.33236 12.8578 6.33236 12.3342 7.1649Z" stroke="#87919F" stroke-width="0.9"/>
<path id="Vector 20" d="M11.6094 11.8086V16.1311L13.4656 14.3591L15.3219 16.1311V11.8086" stroke="#87919F" stroke-width="0.9" stroke-linecap="round" stroke-linejoin="round"/>
<circle id="Ellipse 72" cx="13.4648" cy="9.5293" r="1.16016" stroke="#87919F" stroke-width="0.9"/>
<path id="Rectangle 74" d="M16.7812 6.1554V1.34531C16.7812 0.848256 16.3782 0.445312 15.8812 0.445312H2.09922C1.60216 0.445312 1.19922 0.848256 1.19922 1.34531V10.4541C1.19922 10.9512 1.60216 11.3541 2.09922 11.3541H8.94045" stroke="#87919F" stroke-width="0.9" stroke-linecap="round" stroke-linejoin="round"/>
<path id="Rectangle 75" d="M8.88334 9.90943H4.81261V9.74631C4.81261 8.7522 4.00672 7.94631 3.01261 7.94631H2.875V3.93084H3.01261C4.00672 3.93084 4.81261 3.12496 4.81261 2.13084V1.98047H13.0602V2.13084C13.0602 3.12496 13.8661 3.93084 14.8602 3.93084H15.0106V5.48891" stroke="#87919F" stroke-width="0.9" stroke-linecap="round"/>
</g>
</svg>
