<svg width="21" height="20" viewBox="0 0 21 20" fill="none" xmlns="http://www.w3.org/2000/svg">
<path fill-rule="evenodd" clip-rule="evenodd" d="M15.6871 15.6224C18.8113 12.4982 18.8113 7.43292 15.6871 4.30872C12.5629 1.18453 7.4976 1.18453 4.37341 4.30872C1.24921 7.43292 1.24921 12.4982 4.37341 15.6224C7.4976 18.7466 12.5629 18.7466 15.6871 15.6224ZM7.1522 6.95319C7.38651 6.71888 7.76641 6.71888 8.00073 6.95319L10.0546 9.00709L12.1413 6.92046C12.3756 6.68615 12.7555 6.68615 12.9898 6.92046C13.2241 7.15478 13.2241 7.53467 12.9898 7.76899L10.9032 9.85562L13.1567 12.1091C13.391 12.3435 13.391 12.7234 13.1567 12.9577C12.9224 13.192 12.5425 13.192 12.3081 12.9577L10.0546 10.7041L7.83384 12.9249C7.59953 13.1592 7.21963 13.1592 6.98531 12.9249C6.751 12.6906 6.751 12.3107 6.98531 12.0764L9.2061 9.85562L7.1522 7.80172C6.91789 7.56741 6.91789 7.18751 7.1522 6.95319Z" fill="#2B3242"/>
</svg>
