<svg width="61" height="61" viewBox="0 0 61 61" fill="none" xmlns="http://www.w3.org/2000/svg">
<g clip-path="url(#clip0_1235_3599)">
<mask id="mask0_1235_3599" style="mask-type:alpha" maskUnits="userSpaceOnUse" x="0" y="0" width="61" height="61">
<path d="M52.6104 0.623047H8.61035C4.19207 0.623047 0.610352 4.20477 0.610352 8.62305V52.623C0.610352 57.0413 4.19207 60.623 8.61035 60.623H52.6104C57.0286 60.623 60.6104 57.0413 60.6104 52.623V8.62305C60.6104 4.20477 57.0286 0.623047 52.6104 0.623047Z" fill="#C4C4C4"/>
</mask>
<g mask="url(#mask0_1235_3599)">
<path d="M60.6143 0.623047H0.614258V60.6231H60.6143V0.623047Z" fill="white"/>
<path d="M21.069 40.6764H17.2186V31.5946H21.069C21.4091 31.5946 21.6764 31.3204 21.6764 30.9716C21.6764 30.6228 21.4091 30.3487 21.069 30.3487H17.2186V25.7641C17.2186 25.4153 16.9513 25.1412 16.6112 25.1412C16.2711 25.1412 16.0039 25.4153 16.0039 25.7641V41.2993C16.0039 41.6481 16.2711 41.9223 16.6112 41.9223H21.069C21.4091 41.9223 21.6764 41.6481 21.6764 41.2993C21.6764 40.9505 21.4091 40.6764 21.069 40.6764Z" fill="#87919F"/>
<path d="M34.552 16.4703H15.907C14.8538 16.4703 14 17.346 14 18.4262V21.4536C14 22.5338 14.8538 23.4095 15.907 23.4095H34.552C35.6052 23.4095 36.459 22.5338 36.459 21.4536V18.4262C36.459 17.346 35.6052 16.4703 34.552 16.4703Z" fill="#6391FF"/>
<path d="M44.9495 27.508H26.3045C25.2513 27.508 24.3975 28.3837 24.3975 29.464V32.4913C24.3975 33.5715 25.2513 34.4472 26.3045 34.4472H44.9495C46.0027 34.4472 46.8565 33.5715 46.8565 32.4913V29.464C46.8565 28.3837 46.0027 27.508 44.9495 27.508Z" fill="#D8E4FF"/>
<path d="M44.9495 37.8356H26.3045C25.2513 37.8356 24.3975 38.7113 24.3975 39.7915V42.8188C24.3975 43.899 25.2513 44.7747 26.3045 44.7747H44.9495C46.0027 44.7747 46.8565 43.899 46.8565 42.8188V39.7915C46.8565 38.7113 46.0027 37.8356 44.9495 37.8356Z" fill="#D8E4FF"/>
</g>
</g>
<defs>
<clipPath id="clip0_1235_3599">
<rect width="61" height="61" fill="white"/>
</clipPath>
</defs>
</svg>
