<svg width="41" height="41" viewBox="0 0 41 41" fill="none" xmlns="http://www.w3.org/2000/svg">
<g clip-path="url(#clip0_12194_121545)">
<path d="M8.87925 32.9235H4.19163V22.1435H8.87925C9.2933 22.1435 9.61862 21.8182 9.61862 21.4041C9.61862 20.9901 9.2933 20.6647 8.87925 20.6647H4.19163V15.223C4.19163 14.8089 3.86631 14.4836 3.45226 14.4836C3.03821 14.4836 2.71289 14.8089 2.71289 15.223V33.6629C2.71289 34.0769 3.03821 34.4023 3.45226 34.4023H8.87925C9.2933 34.4023 9.61862 34.0769 9.61862 33.6629C9.61862 33.2488 9.2933 32.9235 8.87925 32.9235Z" fill="#87919F"/>
<path d="M25.2933 4.19153H2.59458C1.31238 4.19153 0.272949 5.23096 0.272949 6.51315V10.1065C0.272949 11.3887 1.31238 12.4281 2.59458 12.4281H25.2933C26.5755 12.4281 27.6149 11.3887 27.6149 10.1065V6.51315C27.6149 5.23096 26.5755 4.19153 25.2933 4.19153Z" fill="#6391FF"/>
<path d="M37.9514 17.2932H15.2527C13.9705 17.2932 12.931 18.3326 12.931 19.6148V23.2081C12.931 24.4903 13.9705 25.5298 15.2527 25.5298H37.9514C39.2336 25.5298 40.273 24.4903 40.273 23.2081V19.6148C40.273 18.3326 39.2336 17.2932 37.9514 17.2932Z" fill="#D8E4FF"/>
<path d="M37.9514 29.552H15.2527C13.9705 29.552 12.931 30.5915 12.931 31.8737V35.467C12.931 36.7492 13.9705 37.7886 15.2527 37.7886H37.9514C39.2336 37.7886 40.273 36.7492 40.273 35.467V31.8737C40.273 30.5915 39.2336 29.552 37.9514 29.552Z" fill="#D8E4FF"/>
</g>
<defs>
<clipPath id="clip0_12194_121545">
<rect width="40" height="40" fill="white" transform="translate(0.272949 0.990051)"/>
</clipPath>
</defs>
</svg>
