<svg width="61" height="61" viewBox="0 0 61 61" fill="none" xmlns="http://www.w3.org/2000/svg">
<mask id="mask0_20169_160259" style="mask-type:alpha" maskUnits="userSpaceOnUse" x="0" y="0" width="61" height="61">
<rect x="0.610352" y="0.623047" width="60" height="60" rx="8" fill="#C4C4C4"/>
</mask>
<g mask="url(#mask0_20169_160259)">
<rect x="0.614258" y="1.62305" width="60" height="58.5" fill="#F1F1F1"/>
<path d="M21.069 40.6751H17.2186V31.8203H21.069C21.4091 31.8203 21.6764 31.553 21.6764 31.2129C21.6764 30.8728 21.4091 30.6056 21.069 30.6056H17.2186V26.1356C17.2186 25.7955 16.9513 25.5283 16.6112 25.5283C16.2711 25.5283 16.0039 25.7955 16.0039 26.1356V41.2824C16.0039 41.6225 16.2711 41.8898 16.6112 41.8898H21.069C21.4091 41.8898 21.6764 41.6225 21.6764 41.2824C21.6764 40.9423 21.4091 40.6751 21.069 40.6751Z" fill="#87919F"/>
<path d="M34.552 17.0742H15.907C14.8538 17.0742 14 17.928 14 18.9812V21.9329C14 22.9861 14.8538 23.8399 15.907 23.8399H34.552C35.6052 23.8399 36.459 22.9861 36.459 21.9329V18.9812C36.459 17.928 35.6052 17.0742 34.552 17.0742Z" fill="#B4B4B4"/>
<path d="M44.9495 27.8359H26.3045C25.2513 27.8359 24.3975 28.6897 24.3975 29.743V32.6946C24.3975 33.7478 25.2513 34.6016 26.3045 34.6016H44.9495C46.0027 34.6016 46.8565 33.7478 46.8565 32.6946V29.743C46.8565 28.6897 46.0027 27.8359 44.9495 27.8359Z" fill="#D3D3D3"/>
<path d="M44.9495 37.9053H26.3045C25.2513 37.9053 24.3975 38.7591 24.3975 39.8123V42.7639C24.3975 43.8171 25.2513 44.6709 26.3045 44.6709H44.9495C46.0027 44.6709 46.8565 43.8171 46.8565 42.7639V39.8123C46.8565 38.7591 46.0027 37.9053 44.9495 37.9053Z" fill="#D3D3D3"/>
</g>
</svg>
