<svg width="57" height="55" viewBox="0 0 57 55" fill="none" xmlns="http://www.w3.org/2000/svg">
<path d="M36.6376 53.4069L55.6823 32.2531C55.3676 32.0455 54.5739 31.7513 54.2938 30.6877C54.0323 29.6947 54.4728 28.0627 54.644 27.248L36.1568 47.0035L5.83115 41.1191C5.83115 41.1191 2.27686 40.4715 1.70356 43.3726C1.21108 45.8647 4.21752 46.554 4.21752 46.554L36.6376 53.4069Z" fill="#F1F2F3"/>
<path fill-rule="evenodd" clip-rule="evenodd" d="M36.6693 46.1805L36.2258 46.6693L5.83833 40.5872C5.83833 40.5872 2.27679 39.9179 1.70233 42.9164C1.20884 45.4923 4.24705 47.0444 4.24705 47.0444L36.6362 53.319L36.6693 53.2812V46.1805Z" fill="white"/>
<path d="M56.0388 32.5283L37.08 54.0694L4.20454 47.2645C4.20454 47.2645 1.19063 46.4129 1.7919 43.275C2.36648 40.2765 5.97209 40.4597 5.97209 40.4597" stroke="#DDE0E3" stroke-width="1.5" stroke-linecap="round"/>
<path d="M36.575 46.2018L55.6197 25.048C55.305 24.8404 54.5114 24.5462 54.2312 23.4826C53.9697 22.4896 54.4102 20.8576 54.5814 20.043L36.0943 39.7984L5.76858 33.914C5.76858 33.914 2.21428 33.2664 1.64098 36.1675C1.1485 38.6597 4.15495 39.349 4.15495 39.349L36.575 46.2018Z" fill="#F1F2F3"/>
<path fill-rule="evenodd" clip-rule="evenodd" d="M36.6076 38.9754L36.1641 39.4643L5.77668 33.3821C5.77668 33.3821 2.21515 32.7128 1.64068 35.7114C1.1472 38.2872 4.18541 39.8393 4.18541 39.8393L36.5746 46.1139L36.6076 46.0762V38.9754Z" fill="white"/>
<path d="M55.9763 25.3232L37.0174 46.8643L4.14197 40.0595C4.14197 40.0595 1.12805 39.2078 1.72933 36.0699C2.3039 33.0714 5.90951 33.2546 5.90951 33.2546" stroke="#DDE0E3" stroke-width="1.5" stroke-linecap="round"/>
<path d="M36.575 38.9108L55.6197 17.757C55.305 17.5494 54.5114 17.2552 54.2312 16.1916C53.9697 15.1986 54.4102 13.5666 54.5814 12.752L36.0943 32.5074L5.76858 26.623C5.76858 26.623 2.21428 25.9754 1.64098 28.8765C1.1485 31.3686 4.15495 32.0579 4.15495 32.0579L36.575 38.9108Z" fill="#F1F2F3"/>
<path fill-rule="evenodd" clip-rule="evenodd" d="M36.6076 31.6844L36.1641 32.1732L5.77668 26.0911C5.77668 26.0911 2.21515 25.4218 1.64068 28.4204C1.1472 30.9962 4.18541 32.5483 4.18541 32.5483L36.5746 38.8229L36.6076 38.7851V31.6844Z" fill="white"/>
<path d="M55.9763 18.0322L37.0174 39.5733L4.14197 32.7685C4.14197 32.7685 1.12805 31.9168 1.72933 28.7789C2.3039 25.7804 5.90951 25.9636 5.90951 25.9636" stroke="#DDE0E3" stroke-width="1.5" stroke-linecap="round"/>
<path d="M22.0194 5.17996C22.3129 4.85494 22.755 4.70716 23.1849 4.79041L54.8705 10.9264C55.0612 10.9634 55.1388 11.1943 55.009 11.3389L36.3044 32.1786L3.43987 25.7596L22.0194 5.17996Z" fill="#F1F2F3" stroke="#DDE0E3" stroke-width="1.5"/>
<path d="M25.5161 10.9701C25.6344 10.8449 25.8089 10.7894 25.9778 10.8233L40.9881 13.8341C41.3733 13.9114 41.523 14.3823 41.2531 14.6678L38.9987 17.0532C38.8803 17.1784 38.7059 17.2339 38.537 17.2L23.5267 14.1892C23.1415 14.1119 22.9918 13.6411 23.2616 13.3555L25.5161 10.9701Z" fill="#D4D4D4"/>
</svg>
