<svg width="103" height="59" viewBox="0 0 103 59" fill="none" xmlns="http://www.w3.org/2000/svg">
<path d="M76.1881 41.4045C76.1881 41.4045 82.5771 41.0416 91.6534 48.8104L98.0099 55.7661L78.8484 56.9172L62.7338 57.5265L57.114 52.313L57.8588 46.8286L76.1881 41.4045Z" fill="url(#paint0_radial_1872_34859)"/>
<path d="M37.9168 40.7845C37.9168 40.7845 31.9598 38.6361 20.3749 43.6174L9.54834 49.0632L18.6213 58.2715L40.3556 55.834L48.0744 49.808V43.0372L37.9168 40.7845Z" fill="url(#paint1_radial_1872_34859)"/>
<path d="M93.2223 20.8666C93.0835 20.5362 92.9339 20.2099 92.7741 19.8896C90.9879 16.3065 87.5362 13.9441 84.0871 12.0625C80.9861 10.3705 77.6392 9.16393 74.2125 8.32503C70.93 7.52133 67.6367 7.16112 64.4131 6.12248C60.0832 4.72701 55.936 2.61451 51.4991 1.57721C46.7162 0.45935 41.5196 0.212215 36.652 0.813465C31.0058 1.51086 24.0048 3.4981 20.5814 8.3643C17.6889 12.4762 15.594 17.0892 12.7029 21.1964C10.6087 24.1708 8.06013 26.804 5.97065 29.7818C3.88117 32.7596 2.23044 36.0238 2.29815 39.6611H37.581C39.4328 39.7532 42.0247 39.4688 42.7918 41.6423C43.3389 43.1921 42.3551 45.2755 41.9258 46.8091C41.5947 47.9893 41.2643 49.1701 40.9332 50.3502L35.5842 52.3138C35.5842 52.3138 40.8655 51.7044 45.3342 49.5377C45.3342 49.5377 47.9749 50.4857 49.2275 50.7226L51.0895 50.5534L49.2613 58.5429C49.2613 58.5429 50.277 57.6627 51.5973 54.582L53.4931 54.7851L55.3889 55.5976L66.3895 51.2535C67.6902 50.7396 68.9678 50.1701 70.2198 49.5452C73.1123 48.1023 79.0679 45.3534 81.4587 45.8964C80.6225 45.4285 78.7226 44.2396 80.0395 43.1996C80.7342 42.6511 81.6293 42.7716 82.4445 42.6897C88.2193 42.1108 92.8675 36.3427 94.1235 30.9816C94.9082 27.6273 94.5541 24.0374 93.2223 20.8666Z" fill="url(#paint2_radial_1872_34859)"/>
<path d="M93.2223 20.8666C93.0835 20.5362 92.9339 20.2099 92.7741 19.8896C90.9879 16.3065 87.5362 13.9441 84.0871 12.0625C80.9861 10.3705 77.6392 9.16393 74.2125 8.32503C70.93 7.52133 67.6367 7.16112 64.4131 6.12248C60.0832 4.72701 55.936 2.61451 51.4991 1.57721C46.7162 0.45935 41.5196 0.212215 36.652 0.813465C31.0058 1.51086 24.0048 3.4981 20.5814 8.3643C17.6889 12.4762 15.594 17.0892 12.7029 21.1964C10.6087 24.1708 8.06013 26.804 5.97065 29.7818C3.88117 32.7596 2.23044 36.0238 2.29815 39.6611H37.581C39.4328 39.7532 42.0247 39.4688 42.7918 41.6423C43.3389 43.1921 42.3551 45.2755 41.9258 46.8091C41.5947 47.9893 41.2643 49.1701 40.9332 50.3502L35.5842 52.3138C35.5842 52.3138 40.8655 51.7044 45.3342 49.5377C45.3342 49.5377 47.9749 50.4857 49.2275 50.7226L51.0895 50.5534L49.2613 58.5429C49.2613 58.5429 50.277 57.6627 51.5973 54.582L53.4931 54.7851L55.3889 55.5976L66.3895 51.2535C67.6902 50.7396 68.9678 50.1701 70.2198 49.5452C73.1123 48.1023 79.0679 45.3534 81.4587 45.8964C80.6225 45.4285 78.7226 44.2396 80.0395 43.1996C80.7342 42.6511 81.6293 42.7716 82.4445 42.6897C88.2193 42.1108 92.8675 36.3427 94.1235 30.9816C94.9082 27.6273 94.5541 24.0374 93.2223 20.8666Z" fill="url(#paint3_radial_1872_34859)"/>
<path d="M93.2223 20.8666C93.0835 20.5362 92.9339 20.2099 92.7741 19.8896C90.9879 16.3065 87.5362 13.9441 84.0871 12.0625C80.9861 10.3705 77.6392 9.16393 74.2125 8.32503C70.93 7.52133 67.6367 7.16112 64.4131 6.12248C60.0832 4.72701 55.936 2.61451 51.4991 1.57721C46.7162 0.45935 41.5196 0.212215 36.652 0.813465C31.0058 1.51086 24.0048 3.4981 20.5814 8.3643C17.6889 12.4762 15.594 17.0892 12.7029 21.1964C10.6087 24.1708 8.06013 26.804 5.97065 29.7818C3.88117 32.7596 2.23044 36.0238 2.29815 39.6611H37.581C39.4328 39.7532 42.0247 39.4688 42.7918 41.6423C43.3389 43.1921 42.3551 45.2755 41.9258 46.8091C41.5947 47.9893 41.2643 49.1701 40.9332 50.3502L35.5842 52.3138C35.5842 52.3138 40.8655 51.7044 45.3342 49.5377C45.3342 49.5377 47.9749 50.4857 49.2275 50.7226L51.0895 50.5534L49.2613 58.5429C49.2613 58.5429 50.277 57.6627 51.5973 54.582L53.4931 54.7851L55.3889 55.5976L55.9306 56.0039C57.2313 55.49 68.9685 50.1701 70.2198 49.5459C73.1123 48.103 79.0679 45.354 81.4587 45.8971C80.6225 45.4292 78.7226 44.2402 80.0395 43.2002C80.7342 42.6518 81.6293 42.7723 82.4445 42.6904C88.2193 42.1115 92.8675 36.3434 94.1235 30.9823C94.9082 27.6273 94.5541 24.0374 93.2223 20.8666Z" fill="url(#paint4_radial_1872_34859)"/>
<path d="M76.1882 41.4045C76.1882 41.4045 82.5772 41.0416 91.6535 48.8104" stroke="#FA404B" stroke-width="0.385648" stroke-miterlimit="10"/>
<path d="M68.179 46.1308C68.5453 46.0759 76.4204 44.0575 82.9251 46.3346" stroke="#FA404B" stroke-width="0.385648" stroke-miterlimit="10"/>
<path d="M27.47 43.0743C27.47 43.0743 35.1664 39.9523 39.6676 43.0743" stroke="#FA404B" stroke-width="0.385648" stroke-miterlimit="10"/>
<path d="M0.714355 39.626H23.5124" stroke="#0061FE" stroke-width="0.385648" stroke-miterlimit="10"/>
<path d="M5.83301 40.8962H26.9979" stroke="#0061FE" stroke-width="0.385648" stroke-miterlimit="10"/>
<path d="M37.8829 40.9199C37.8829 40.9199 31.9618 38.3781 20.3411 43.7528" stroke="#FA404B" stroke-width="0.385648" stroke-miterlimit="10"/>
<path d="M13.6068 24.793H11.1463H10.8227H8.36145L7.45483 25.3759H10.8227H11.1463H14.5134L13.6068 24.793Z" fill="#EECFF8"/>
<path d="M13.6068 24.793H11.1463H10.8227H8.36145L7.45483 25.3759H10.8227H11.1463H14.5134L13.6068 24.793Z" fill="url(#paint5_radial_1872_34859)"/>
<path d="M11.0013 24.7931C11.2515 24.7931 11.4543 24.5904 11.4543 24.3402C11.4543 24.09 11.2515 23.8872 11.0013 23.8872C10.7511 23.8872 10.5483 24.09 10.5483 24.3402C10.5483 24.5904 10.7511 24.7931 11.0013 24.7931Z" fill="url(#paint6_radial_1872_34859)"/>
<path d="M16.8905 29.6763C16.0394 31.5295 15.3644 32.5586 14.885 33.1294L14.4692 27.5733L15.4652 26.9612L17.7328 26.9741C17.8662 26.9747 17.9583 27.1081 17.9109 27.2334C17.6861 27.8245 17.3286 28.723 16.8905 29.6763ZM18.1654 26.1189H15.2269L13.5911 27.1244L14.1341 34.3739H14.8044C16.6041 33.0658 18.4444 28.2388 18.873 27.0614C18.9312 26.9009 18.8987 26.7222 18.7877 26.5929L18.525 26.2855C18.4349 26.1798 18.3036 26.1189 18.1654 26.1189Z" fill="url(#paint7_radial_1872_34859)"/>
<path d="M7.50696 39.0997L7.85362 39.5987H14.1363L14.4599 39.1322C14.531 39.0293 14.5723 38.9115 14.5784 38.7896L15.267 25.3455H6.7019L7.38847 38.7571C7.39524 38.879 7.43586 38.9968 7.50696 39.0997Z" fill="#EECFF8"/>
<path d="M7.50696 39.0997L7.85362 39.5987H14.1363L14.4599 39.1322C14.531 39.0293 14.5723 38.9115 14.5784 38.7896L15.267 25.3455H6.7019L7.38847 38.7571C7.39524 38.879 7.43586 38.9968 7.50696 39.0997Z" fill="url(#paint8_radial_1872_34859)"/>
<path d="M5.36792 25.3455L6.72682 27.0598L6.88594 28.9421L8.21302 25.3455H5.36792Z" fill="url(#paint9_radial_1872_34859)"/>
<path d="M6.62454 24.9745C6.41329 24.9285 6.28464 24.6942 6.29073 24.4776C6.29683 24.2609 6.40516 24.0618 6.52027 23.879C6.63537 23.6955 6.76334 23.5141 6.81615 23.3042C6.9211 22.8864 6.7112 22.4612 6.5074 22.082" stroke="#C0D8F0" stroke-width="0.385648" stroke-miterlimit="10"/>
<path d="M7.14795 26.3152L7.66592 34.5397" stroke="white" stroke-width="0.385648" stroke-miterlimit="10"/>
<path d="M16.7646 26.3801H17.9726C18.11 26.3801 18.2414 26.4404 18.3307 26.5447L18.5779 26.8331" stroke="white" stroke-width="0.385648" stroke-miterlimit="10"/>
<path d="M11.1787 29.9849H10.79V30.3843H11.1787V29.9849Z" fill="#B0B0F8"/>
<path d="M11.1787 30.9133H10.79V31.3128H11.1787V30.9133Z" fill="#B0B0F8"/>
<path d="M11.1787 30.4487H10.79V30.8482H11.1787V30.4487Z" fill="#B0B0F8"/>
<path d="M11.1787 31.377H10.79V31.7764H11.1787V31.377Z" fill="#808CC6"/>
<path d="M11.1787 32.769H10.79V33.1685H11.1787V32.769Z" fill="#808CC6"/>
<path d="M11.1787 31.8408H10.79V32.2403H11.1787V31.8408Z" fill="#808CC6"/>
<path d="M11.1787 32.3052H10.79V32.7047H11.1787V32.3052Z" fill="#808CC6"/>
<path d="M11.1787 29.5205H10.79V29.92H11.1787V29.5205Z" fill="#B0B0F8"/>
<path d="M11.1787 33.2336H10.79V33.6331H11.1787V33.2336Z" fill="#808CC6"/>
<path d="M10.9844 33.8916C11.0913 33.8916 11.1787 33.8049 11.1787 33.6973H10.79C10.79 33.8049 10.8767 33.8916 10.9844 33.8916Z" fill="#808CC6"/>
<path d="M10.9844 27.8691C10.8774 27.8691 10.79 27.9558 10.79 28.0635H11.1787C11.1787 27.9565 11.0913 27.8691 10.9844 27.8691Z" fill="#B0B0F8"/>
<path d="M11.1787 29.0566H10.79V29.4561H11.1787V29.0566Z" fill="#B0B0F8"/>
<path d="M11.1787 28.1284H10.79V28.5279H11.1787V28.1284Z" fill="#B0B0F8"/>
<path d="M11.1787 28.5923H10.79V28.9918H11.1787V28.5923Z" fill="#B0B0F8"/>
<path d="M72.1947 18.0981L71.1784 18.1706C69.8716 17.5897 57.8913 18.0257 49.2517 17.5172C40.6121 17.0087 31.8987 19.5505 31.8987 19.5505L31.2128 19.1503C31.1235 19.0982 31.0097 19.153 30.9948 19.2553C30.8371 20.3393 30.1904 25.3362 31.0273 29.1346C31.9712 33.4185 31.8933 40.5834 31.8933 40.5834C35.6274 40.1724 37.5618 40.8969 37.5618 40.8969L38.2565 41.3106L45.548 41.8401L57.4552 41.4047L70.9597 40.4981C70.9597 40.4981 71.3232 30.8043 72.1947 26.4479C73.0661 22.0916 72.1947 18.0981 72.1947 18.0981Z" fill="#BDD9FF"/>
<path d="M70.7424 26.4478C70.7424 26.4478 71.9043 23.2533 71.1778 18.8245C71.1778 18.8245 67.2568 18.4616 63.627 18.7521" stroke="white" stroke-width="0.385648" stroke-miterlimit="10"/>
<path d="M31.7898 20.5309C31.7898 20.5309 36.7271 18.7881 41.2283 18.7881" stroke="white" stroke-width="0.385648" stroke-miterlimit="10"/>
<path d="M31.7533 24.4878C31.7533 24.4878 31.5352 26.9564 32.4066 29.6431" stroke="white" stroke-width="0.385648" stroke-miterlimit="10"/>
<path d="M99.2401 12.4714H81.0889V23.2167H99.2401V12.4714Z" fill="url(#paint10_radial_1872_34859)"/>
<path d="M95.5372 16.7554H77.386V27.5007H95.5372V16.7554Z" fill="#DEF4FF"/>
<path d="M93.8411 19.006H80.0259C79.7307 19.006 79.4917 18.767 79.4917 18.4718V17.7256C79.4917 17.4304 79.7307 17.1914 80.0259 17.1914H93.8411C94.1363 17.1914 94.3754 17.4304 94.3754 17.7256V18.4718C94.3754 18.7663 94.1363 19.006 93.8411 19.006Z" stroke="#0061FE" stroke-width="0.385648" stroke-miterlimit="10"/>
<path d="M84.8276 19.6953H94.0489" stroke="#0061FE" stroke-width="0.385648" stroke-miterlimit="10"/>
<path d="M84.8643 20.5667H94.0848" stroke="#0061FE" stroke-width="0.385648" stroke-miterlimit="10"/>
<path d="M84.8643 21.3657H94.0848" stroke="#0061FE" stroke-width="0.385648" stroke-miterlimit="10"/>
<path d="M79.4422 23.5438H76.7454C76.5579 23.5438 76.4055 23.3914 76.4055 23.2039V21.1605C76.4055 20.9729 76.5579 20.8206 76.7454 20.8206H79.4422C79.6298 20.8206 79.7821 20.9729 79.7821 21.1605V23.2039C79.7821 23.3914 79.6298 23.5438 79.4422 23.5438Z" fill="#EECFF8"/>
<path d="M77.3135 22.128L77.759 22.8281C77.7888 22.8748 77.8572 22.8769 77.889 22.8308L78.8383 21.4746" stroke="#0061FE" stroke-width="0.385648" stroke-miterlimit="10"/>
<path d="M100.039 11.2371H93.5771V14.504H100.039V11.2371Z" fill="#FFDE99"/>
<path d="M93.5742 14.504H100.041V11.2371H93.5742V14.504Z" fill="url(#paint11_radial_1872_34859)"/>
<path d="M93.5771 11.2371L96.7716 12.8343L100.039 11.2371H93.5771Z" fill="#FFDE99"/>
<path d="M99.3018 13.1682C99.4683 12.8255 99.9375 12.6712 100.275 12.8479C100.437 12.9325 100.56 13.0761 100.714 13.1742C100.931 13.3137 101.208 13.3557 101.458 13.2866C101.706 13.2183 101.923 13.0395 102.038 12.8086" stroke="#FA404B" stroke-width="0.385648" stroke-miterlimit="10"/>
<path d="M90.1585 17.8441H78.9886C78.7848 17.8441 78.6196 17.6789 78.6196 17.4751V15.9618C78.6196 15.758 78.7848 15.5928 78.9886 15.5928H90.1585C90.3623 15.5928 90.5275 15.758 90.5275 15.9618V17.4751C90.5275 17.6789 90.3623 17.8441 90.1585 17.8441Z" fill="#FFDE99"/>
<path d="M80.1451 17.0452C80.3456 17.0452 80.5081 16.8827 80.5081 16.6823C80.5081 16.4818 80.3456 16.3193 80.1451 16.3193C79.9447 16.3193 79.7822 16.4818 79.7822 16.6823C79.7822 16.8827 79.9447 17.0452 80.1451 17.0452Z" stroke="#FA404B" stroke-width="0.385648" stroke-miterlimit="10"/>
<path d="M81.1248 16.7188H89.4387" stroke="#FA404B" stroke-width="0.385648" stroke-miterlimit="10"/>
<path d="M52.3372 46.0879L52.1191 47.3947C52.1191 47.3947 53.7164 57.3417 55.7497 55.5264C57.783 53.7112 55.3143 48.411 55.3143 48.411L53.862 46.5233L52.3372 46.0879Z" fill="#0061FE"/>
<path d="M53.5153 47.3738L49.3851 49.0909C49.0885 49.2141 48.8766 49.4815 48.8271 49.7984C48.6504 50.9258 48.3627 53.8819 49.142 58.503C49.142 58.503 49.8678 59.5918 51.1021 51.7504C51.1021 51.7504 52.046 50.3712 56.1119 49.4998C60.1784 48.6291 53.5153 47.3738 53.5153 47.3738Z" fill="#FFDE99"/>
<path d="M53.5153 47.3738L49.3851 49.0909C49.0885 49.2141 48.8766 49.4815 48.8271 49.7984C48.6504 50.9258 48.3627 53.8819 49.142 58.503C49.142 58.503 49.8678 59.5918 51.1021 51.7504C51.1021 51.7504 52.046 50.3712 56.1119 49.4998C60.1784 48.6291 53.5153 47.3738 53.5153 47.3738Z" fill="url(#paint12_radial_1872_34859)"/>
<path d="M43.9956 43.4677C43.9956 43.4677 44.1222 47.0197 44.2096 48.5906C44.2278 48.9162 44.0457 49.2189 43.7491 49.355C42.1417 50.0916 37.0501 52.347 34.9728 52.347C34.9728 52.347 33.9795 52.0328 40.6847 48.3394C40.6847 48.3394 41.3469 45.9817 40.8506 43.4677C40.3529 40.953 43.9956 43.4677 43.9956 43.4677Z" fill="#FFDE99"/>
<path d="M43.9956 43.4677C43.9956 43.4677 44.1222 47.0197 44.2096 48.5906C44.2278 48.9162 44.0457 49.2189 43.7491 49.355C42.1417 50.0916 37.0501 52.347 34.9728 52.347C34.9728 52.347 33.9795 52.0328 40.6847 48.3394C40.6847 48.3394 41.3469 45.9817 40.8506 43.4677C40.3529 40.953 43.9956 43.4677 43.9956 43.4677Z" fill="url(#paint13_radial_1872_34859)"/>
<path d="M23.8028 34.761L22.6091 35.1016L22.6409 35.4144L20.781 36.2039C20.433 36.3515 20.1899 36.6737 20.1466 37.0489C20.1371 37.1315 20.129 37.2174 20.1235 37.3021H20.3903L20.3741 37.3129C20.1818 37.4395 20.0876 37.6792 20.1615 37.8972C20.1811 37.9555 20.2082 38.0008 20.2447 38.0286L22.4229 37.3752L24.3106 36.5763L24.6011 36.1409L23.8028 34.761Z" fill="#FFDE99"/>
<path d="M23.8028 34.761L22.6091 35.1016L22.6409 35.4144L20.781 36.2039C20.433 36.3515 20.1899 36.6737 20.1466 37.0489C20.1371 37.1315 20.129 37.2174 20.1235 37.3021H20.3903L20.3741 37.3129C20.1818 37.4395 20.0876 37.6792 20.1615 37.8972C20.1811 37.9555 20.2082 38.0008 20.2447 38.0286L22.4229 37.3752L24.3106 36.5763L24.6011 36.1409L23.8028 34.761Z" fill="url(#paint14_radial_1872_34859)"/>
<path d="M22.1333 33.8896L21.1895 34.7611L21.3344 35.7049L22.4231 36.8668C22.4231 36.8668 22.786 36.2858 22.2782 35.6325C21.7697 34.9791 22.1333 35.1971 22.1333 35.1971L23.5857 34.9066V34.3257L22.1333 33.8896Z" fill="#FFDE99"/>
<path d="M22.1333 33.8896L21.1895 34.7611L21.3344 35.7049L22.4231 36.8668C22.4231 36.8668 22.786 36.2858 22.2782 35.6325C21.7697 34.9791 22.1333 35.1971 22.1333 35.1971L23.5857 34.9066V34.3257L22.1333 33.8896Z" fill="url(#paint15_radial_1872_34859)"/>
<path d="M21.0805 34.761C21.6607 34.761 22.1333 35.1842 22.1333 35.7048C22.1333 36.2255 21.6607 36.6487 21.0805 36.6487C20.5002 36.6487 20.0276 36.2255 20.0276 35.7048C20.0276 35.1848 20.5002 34.761 21.0805 34.761ZM21.0805 34.2532C20.2185 34.2532 19.5198 34.9032 19.5198 35.7055C19.5198 36.5079 20.2185 37.1579 21.0805 37.1579C21.9424 37.1579 22.6418 36.5079 22.6418 35.7055C22.6418 34.9032 21.9424 34.2532 21.0805 34.2532Z" fill="#0144B9"/>
<path d="M34.0404 32.0019C34.0404 32.0019 26.925 34.9059 25.6906 34.9059L24.5288 33.4535L21.5516 33.744C21.5516 33.744 21.7697 34.4698 23.3669 34.543C23.3669 34.543 23.004 35.8497 24.0927 36.2858C24.0927 36.2858 20.9707 37.8106 20.2449 38.5364C20.2449 38.5364 22.8584 37.7374 24.0203 37.4476C24.8605 37.2378 25.4726 37.1037 25.885 36.9358C26.2939 36.7692 26.7178 36.6439 27.1525 36.5688L36.2904 34.9797C36.2911 34.979 36.5091 31.058 34.0404 32.0019Z" fill="#FFDE99"/>
<path d="M34.0404 32.0019C34.0404 32.0019 26.925 34.9059 25.6906 34.9059L24.5288 33.4535L21.5516 33.744C21.5516 33.744 21.7697 34.4698 23.3669 34.543C23.3669 34.543 23.004 35.8497 24.0927 36.2858C24.0927 36.2858 20.9707 37.8106 20.2449 38.5364C20.2449 38.5364 22.8584 37.7374 24.0203 37.4476C25.1822 37.1572 25.908 37.0123 26.2709 36.7218L36.2904 34.979C36.2911 34.979 36.5091 31.058 34.0404 32.0019Z" fill="url(#paint16_radial_1872_34859)"/>
<path d="M42.753 11.0916C42.753 11.0916 39.849 14.5765 44.0598 19.5138C44.0598 19.5138 44.7132 20.3852 44.8588 21.4015C44.8588 21.4015 50.4826 20.4285 50.918 18.8313C51.3534 17.2341 47.0369 13.5602 47.0369 13.5602L45.8751 11.6725L43.4064 11.0916H42.753Z" fill="url(#paint17_radial_1872_34859)"/>
<path d="M48.5619 19.1508C48.5619 19.1508 50.0867 21.6919 49.0704 22.9263H47.6912L49.434 25.8303L52.7009 25.9752L54.1532 24.0875L54.7342 20.9654L53.9352 20.8205C53.9352 20.8205 51.2763 19.8828 51.2628 13.9258L48.1272 16.6815L48.5619 19.1508Z" fill="#FFDE99"/>
<path d="M48.5619 19.1508C48.5619 19.1508 50.0867 21.6919 49.0704 22.9263H47.6912L49.434 25.8303L52.7009 25.9752L54.1532 24.0875L54.7342 20.9654L53.9352 20.8205C53.9352 20.8205 51.2763 19.8828 51.2628 13.9258L48.1272 16.6815L48.5619 19.1508Z" fill="url(#paint18_radial_1872_34859)"/>
<path d="M48.5619 19.1508C48.5619 19.1508 50.0867 21.6919 49.0704 22.9263H47.6912L49.434 25.8303L52.7009 25.9752L54.1532 24.0875L54.7342 20.9654L53.9352 20.8205C53.9352 20.8205 51.2763 19.8828 51.2628 13.9258L48.1272 16.6815L48.5619 19.1508Z" fill="url(#paint19_radial_1872_34859)"/>
<path d="M43.552 11.2371C43.552 11.2371 43.6773 18.4304 46.2495 20.0446C46.584 20.2545 47.0071 20.2639 47.3599 20.0852C48.2719 19.6234 50.2422 18.5313 50.7399 17.4811C51.3933 16.1019 51.2484 13.7782 51.2484 13.7782L43.552 11.2371Z" fill="#FFDE99"/>
<path d="M55.8946 11.6724C54.2249 9.27622 51.7563 6.00929 49.7954 6.44465C48.1285 6.81502 44.5724 8.28768 43.5446 8.72033C43.3645 8.79616 43.2257 8.9458 43.1641 9.13132L43.0436 9.49356L42.9745 9.47054C42.6346 9.35747 42.2642 9.52742 42.1302 9.85919C41.5039 11.4056 40.1633 15.7403 42.9718 19.3675L43.1898 19.295C43.1898 19.295 41.7375 17.6253 41.8106 14.8662C41.8594 13.0232 42.6204 11.99 43.1208 11.5072C43.2866 11.3474 43.5629 11.4585 43.5703 11.6887C43.5703 11.6887 45.6591 13.5588 47.8373 13.9224C50.0155 14.2853 50.5964 16.2454 50.5964 16.2454L50.8145 16.173C50.8145 16.173 50.524 15.2291 49.6526 14.4302C48.7812 13.6312 48.5638 13.4863 48.5638 13.4863C48.5638 13.4863 49.7426 14.0388 50.4515 14.8655C51.7583 16.3903 52.2668 19.7304 51.1049 20.5287C51.1049 20.5287 52.5992 20.2971 54.0807 19.8001C54.1978 19.511 54.4071 18.7628 54.3001 17.2617H54.445C54.445 17.2617 54.6346 18.5286 54.3637 19.7019C54.8715 19.5191 55.3658 19.3045 55.7856 19.0567C55.8303 18.7581 55.8729 18.4101 55.9088 18.0052L55.9955 18.0167C55.9955 18.0167 55.9786 18.4229 55.9075 18.9829C56.3957 18.6762 56.7674 18.3214 56.9136 17.9158C57.5643 16.1012 57.5643 14.0686 55.8946 11.6724Z" fill="url(#paint20_radial_1872_34859)"/>
<path d="M49.142 22.7814C49.142 22.7814 47.9801 22.709 45.221 23.6528L34.1128 31.3485C34.1128 31.3485 33.387 36.9392 35.9281 39.1174L46.5285 33.0914L49.7954 40.2793L59.5969 39.5534C59.5969 39.5534 58.653 35.56 59.0159 34.4713C59.3789 33.3825 60.7587 31.7121 60.7587 30.9863C60.7587 30.9863 62.9369 34.3264 65.7685 36.359L66.8572 30.5503C66.8572 30.5503 61.775 22.709 60.2503 22.2005C58.7255 21.692 55.8939 20.6757 53.9337 20.8212C53.9337 20.8212 52.9899 25.032 51.1022 25.1052C49.2151 25.1776 49.142 22.7814 49.142 22.7814Z" fill="#F9C1DA"/>
<path d="M49.142 22.7814C49.142 22.7814 47.9801 22.709 45.221 23.6528L34.1128 31.3485C34.1128 31.3485 33.387 36.9392 35.9281 39.1174L46.5285 33.0914L49.7954 40.2793L59.5969 39.5534C59.5969 39.5534 58.653 35.56 59.0159 34.4713C59.3789 33.3825 60.7587 31.7121 60.7587 30.9863C60.7587 30.9863 62.9369 34.3264 65.7685 36.359L66.8572 30.5503C66.8572 30.5503 61.775 22.709 60.2503 22.2005C58.7255 21.692 55.8939 20.6757 53.9337 20.8212C53.9337 20.8212 52.9899 25.032 51.1022 25.1052C49.2151 25.1776 49.142 22.7814 49.142 22.7814Z" fill="url(#paint21_radial_1872_34859)"/>
<path d="M49.142 22.7814C49.142 22.7814 47.9801 22.709 45.221 23.6528L34.1128 31.3485C34.1128 31.3485 33.387 36.9392 35.9281 39.1174L46.5285 33.0914L49.7954 40.2793L59.5969 39.5534C59.5969 39.5534 58.653 35.56 59.0159 34.4713C59.3789 33.3825 60.7587 31.7121 60.7587 30.9863C60.7587 30.9863 62.9369 34.3264 65.7685 36.359L66.8572 30.5503C66.8572 30.5503 61.775 22.709 60.2503 22.2005C58.7255 21.692 55.8939 20.6757 53.9337 20.8212C53.9337 20.8212 52.9899 25.032 51.1022 25.1052C49.2151 25.1776 49.142 22.7814 49.142 22.7814Z" fill="url(#paint22_radial_1872_34859)"/>
<path d="M17.2684 33.6724L13.7401 33.7468C13.6968 36.0719 15.9616 38.4641 15.9616 38.4641L16.0341 38.6821H17.2684H18.5224L18.5962 38.4641C18.5962 38.4641 20.8976 36.0719 20.8536 33.7468L17.2684 33.6724Z" fill="#0061FE"/>
<path d="M17.2684 33.6724L13.7401 33.7468C13.6968 36.0719 15.9616 38.4641 15.9616 38.4641L16.0341 38.6821H17.2684H18.5224L18.5962 38.4641C18.5962 38.4641 20.8976 36.0719 20.8536 33.7468L17.2684 33.6724Z" fill="url(#paint23_radial_1872_34859)"/>
<path d="M60.7596 30.9856L59.7433 29.8237C59.7433 29.8237 59.7785 34.8714 55.6774 35.9229C52.8458 36.6487 51.6582 38.6631 51.103 40.2068L52.1193 40.6422L59.5977 39.5534C59.5977 39.5534 58.6539 35.56 59.0168 34.4712C59.3797 33.3818 60.7596 31.7114 60.7596 30.9856Z" fill="url(#paint24_radial_1872_34859)"/>
<path d="M22.278 35.6325C22.1345 35.4483 22.0607 35.3332 22.0282 35.2628C22.0261 35.2615 22.0248 35.2594 22.0227 35.2581C21.9171 35.2283 21.8142 35.187 21.7045 35.147C21.5501 35.0908 21.3883 35.0597 21.2285 35.0225L21.3335 35.7056L22.4222 36.8675C22.4236 36.8668 22.7865 36.2859 22.278 35.6325Z" fill="#FFDE99"/>
<path d="M51.2479 39.8438C51.2479 39.8438 44.5685 25.1775 42.3172 24.1612C42.3172 24.1612 40.2839 23.9432 39.2676 24.4517C38.2513 24.9602 37.5979 45.2896 37.5979 45.2896H45.0763C45.0763 45.2896 46.0201 47.7583 52.1193 47.3229C52.1193 47.3229 52.1918 46.2341 52.8451 46.3066C53.4985 46.379 56.1852 55.0917 55.6043 55.6727L77.2262 44.7608C78.4308 44.1528 79.1485 41.9137 78.6928 40.6435C78.4192 39.8811 77.3657 39.2365 76.5146 39.1187C74.4089 38.8282 59.5611 39.5181 59.5611 39.5181C59.5611 39.5181 53.0997 40.2426 51.2479 39.8438Z" fill="#DEF4FF"/>
<path d="M78.6927 40.6421C78.4192 39.8797 77.3656 39.2351 76.5145 39.1173C75.6072 38.9921 72.3342 39.0489 68.9021 39.1546C68.6949 39.5121 68.5006 39.8777 68.3178 40.2481C67.6982 41.5061 67.2107 42.8264 66.8058 44.167C66.3948 45.5273 66.0482 46.9119 65.8694 48.323C65.7746 49.0691 65.7218 49.82 65.7117 50.5702L77.2268 44.7588C78.4307 44.1514 79.1484 41.9123 78.6927 40.6421Z" fill="url(#paint25_radial_1872_34859)"/>
<path d="M41.1835 33.5722C42.468 33.2939 43.7172 32.8585 44.9163 32.3223C45.6455 31.9966 46.3497 31.6323 47.0004 31.1807C45.2163 27.7994 43.3238 24.6157 42.3177 24.1607C42.3177 24.1607 40.2844 23.9427 39.2681 24.4512C38.7989 24.6861 38.4068 29.1461 38.1211 33.8796C39.1482 33.906 40.1781 33.7902 41.1835 33.5722Z" fill="url(#paint26_radial_1872_34859)"/>
<path d="M59.5611 39.5169C59.5611 39.5169 53.3685 40.2129 51.3711 39.867L51.2844 39.8798L51.2634 39.8466C51.2587 39.8453 51.2533 39.8446 51.2485 39.8439C51.2485 39.8439 51.237 39.8182 51.2147 39.7701L45.3315 30.5144L46.9287 45.2532H45.041V45.2897H45.0776C45.0776 45.2897 46.0214 47.7584 52.1206 47.323C52.1206 47.323 52.1694 46.5972 52.5431 46.3703C52.5749 46.3507 52.6101 46.3351 52.6467 46.3243L69.546 41.3701L65.1172 40.2813L65.0448 39.9184L77.6778 39.5555L59.5611 39.5169Z" fill="url(#paint27_radial_1872_34859)"/>
<path d="M59.5611 39.5169C59.5611 39.5169 53.3685 40.2129 51.3711 39.867L51.2844 39.8798L51.2634 39.8466C51.2587 39.8453 51.2533 39.8446 51.2485 39.8439C51.2485 39.8439 51.237 39.8182 51.2147 39.7701L45.3315 30.5144L46.9287 45.2532H45.041V45.2897H45.0776C45.0776 45.2897 46.0214 47.7584 52.1206 47.323C52.1206 47.323 52.1694 46.5972 52.5431 46.3703C52.5749 46.3507 52.6101 46.3351 52.6467 46.3243L69.546 41.3701L65.1172 40.2813L65.0448 39.9184L77.6778 39.5555L59.5611 39.5169Z" fill="url(#paint28_radial_1872_34859)"/>
<path d="M46.3803 18.0038C46.5522 17.7682 46.7236 17.5333 46.8955 17.2976C46.9307 17.2496 46.9869 17.1947 47.0411 17.2204C47.075 17.2367 47.0878 17.2773 47.0973 17.3139C47.1562 17.5583 47.1813 17.8109 47.1711 18.0614C47.165 18.213 47.1264 18.3918 46.9856 18.4493C46.8657 18.4988 46.729 18.4317 46.6308 18.3471C46.5204 18.253 46.4311 18.1338 46.3701 18.0018" fill="url(#paint29_radial_1872_34859)"/>
<path d="M48.8 10.8154C50.5794 11.1939 52.0602 12.565 52.8043 14.2252C53.5484 15.8854 53.6114 17.7968 53.2289 19.5755" stroke="#0144B9" stroke-width="0.385648" stroke-miterlimit="10"/>
<path d="M52.7456 12.6936C53.334 13.1317 53.6502 13.844 53.8614 14.5461C54.1194 15.4033 54.2582 16.2964 54.2738 17.1915" stroke="#0144B9" stroke-width="0.385648" stroke-miterlimit="10"/>
<path d="M48.0432 12.6123C49.4637 13.0571 50.6777 14.0883 51.4063 15.3856C52.1355 16.6829 52.3853 18.2307 52.1707 19.7034" stroke="#0144B9" stroke-width="0.385648" stroke-miterlimit="10"/>
<path d="M60.0681 22.4841C59.4716 22.5606 58.9381 23.0041 58.7539 23.577" stroke="#FA404B" stroke-width="0.385648" stroke-miterlimit="10"/>
<path d="M54.0476 35.0564C54.8235 35.2629 55.6699 35.225 56.4066 34.9061C57.1432 34.5871 57.7594 33.9798 58.0478 33.231" stroke="#FA404B" stroke-width="0.385648" stroke-miterlimit="10"/>
<path d="M48.7974 23.3964C49.0276 24.3104 49.3451 25.3301 50.1881 25.7512C50.8036 26.0586 51.568 25.9469 52.1625 25.6016C52.7569 25.2563 53.2058 24.7058 53.5803 24.129C54.1795 23.2054 54.6223 22.181 54.885 21.1125" stroke="#FA404B" stroke-width="0.385648" stroke-miterlimit="10"/>
<path d="M34.6681 31.4216C34.6099 32.6282 34.6058 33.8469 34.834 35.0332C35.0615 36.2194 35.5341 37.3806 36.3365 38.2832" stroke="#FA404B" stroke-width="0.385648" stroke-miterlimit="10"/>
<path d="M45.1743 23.8315C45.2644 23.8234 45.3219 23.9229 45.3517 24.0082C45.5183 24.4781 45.5684 24.9887 45.4966 25.4816" stroke="#FA404B" stroke-width="0.385648" stroke-miterlimit="10"/>
<path d="M43.0483 26.0613C44.1689 26.521 45.1128 28.5536 45.3308 30.3689" stroke="#B0B0F8" stroke-width="0.385648" stroke-miterlimit="10"/>
<path d="M69.5134 41.3219C71.1709 40.5649 73.0492 40.3002 74.8516 40.5697" stroke="#B0B0F8" stroke-width="0.385648" stroke-miterlimit="10"/>
<path d="M71.1628 41.3789C71.9875 41.1751 72.8569 41.1548 73.6897 41.3214" stroke="#B0B0F8" stroke-width="0.385648" stroke-miterlimit="10"/>
<path d="M53.7651 46.3879C55.2134 48.9507 56.1579 51.7972 56.5283 54.7174" stroke="#B0B0F8" stroke-width="0.385648" stroke-miterlimit="10"/>
<path d="M38.1294 44.5583C38.1538 44.5583 38.1781 44.5583 38.2025 44.5583H46.0188" stroke="#B0B0F8" stroke-width="0.385648" stroke-miterlimit="10"/>
<path d="M17.2683 34.3257C19.233 34.3257 20.8257 34.0656 20.8257 33.7447C20.8257 33.4239 19.233 33.1638 17.2683 33.1638C15.3036 33.1638 13.7109 33.4239 13.7109 33.7447C13.7109 34.0656 15.3036 34.3257 17.2683 34.3257Z" fill="#DEF4FF"/>
<path d="M17.2683 34.3257C19.233 34.3257 20.8257 34.0656 20.8257 33.7447C20.8257 33.4239 19.233 33.1638 17.2683 33.1638C15.3036 33.1638 13.7109 33.4239 13.7109 33.7447C13.7109 34.0656 15.3036 34.3257 17.2683 34.3257Z" fill="url(#paint30_radial_1872_34859)"/>
<path d="M14.7795 33.6446C15.4302 33.5275 16.3693 33.4543 17.4141 33.4543C17.538 33.4543 17.6598 33.4557 17.7804 33.4571" stroke="white" stroke-width="0.385648" stroke-miterlimit="10"/>
<path d="M14.5708 34.9304C14.7963 35.7185 15.1599 36.4667 15.6413 37.1296" stroke="#BDD9FF" stroke-width="0.385648" stroke-miterlimit="10"/>
<path d="M48.8 14.2238C46.0436 14.2996 44.5507 15.0857 44.0117 15.4419C44.2961 16.8881 44.7558 18.3824 45.4966 19.3398H47.431C47.431 19.3392 52.3737 14.1256 48.8 14.2238Z" fill="url(#paint31_radial_1872_34859)"/>
<path d="M79.3292 39.5359L52.4497 39.5779C52.2736 39.5779 52.1307 39.4357 52.1301 39.2597L52.1294 39.0261C52.1294 38.8501 52.2716 38.7072 52.4476 38.7065L79.3272 38.6646C79.5032 38.6646 79.6461 38.8067 79.6468 38.9828L79.6474 39.2164C79.6474 39.3924 79.5052 39.5353 79.3292 39.5359Z" fill="#241921"/>
<path d="M79.3292 39.5359L63.3405 39.561C63.1645 39.561 63.0216 39.4188 63.0209 39.2428L63.0203 39.0092C63.0203 38.8331 63.1624 38.6903 63.3385 38.6896L79.3272 38.6646C79.5032 38.6646 79.6461 38.8067 79.6467 38.9828L79.6474 39.2164C79.6474 39.3924 79.5052 39.5353 79.3292 39.5359Z" fill="#0061FE"/>
<path d="M83.3809 25.0083L67.7802 25.0327C67.5696 25.0327 67.3834 25.1681 67.3177 25.3678L63.2295 37.8316C63.1259 38.1471 63.3615 38.4708 63.6933 38.4708L79.294 38.4464C79.5046 38.4464 79.6908 38.311 79.7564 38.1112L83.8447 25.6475C83.9476 25.3319 83.7126 25.0076 83.3809 25.0083Z" fill="#0061FE"/>
<path d="M61.1819 39.3463L59.9232 39.3483C59.8297 39.3483 59.7539 39.2725 59.7539 39.1791V39.1547C59.7539 39.0613 59.8297 38.9854 59.9232 38.9854L61.1819 38.9834C61.2753 38.9834 61.3511 39.0592 61.3511 39.1527V39.177C61.3511 39.2698 61.2753 39.3456 61.1819 39.3463Z" stroke="#F2F6FF" stroke-width="0.385648" stroke-miterlimit="10"/>
<path d="M78.5708 39.3551L77.3121 39.3571C77.2187 39.3571 77.1428 39.2813 77.1428 39.1879V39.1635C77.1428 39.07 77.2187 38.9942 77.3121 38.9942L78.5708 38.9922C78.6642 38.9922 78.7401 39.068 78.7401 39.1615V39.1858C78.7401 39.2793 78.6642 39.3551 78.5708 39.3551Z" stroke="#F2F6FF" stroke-width="0.385648" stroke-miterlimit="10"/>
<path d="M58.532 39.3864L57.2733 39.3884C57.1798 39.3884 57.104 39.3126 57.104 39.2191V39.1947C57.104 39.1013 57.1798 39.0255 57.2733 39.0255L58.532 39.0234C58.6254 39.0234 58.7012 39.0993 58.7012 39.1927V39.2171C58.7012 39.3105 58.6254 39.3864 58.532 39.3864Z" stroke="#F2F6FF" stroke-width="0.385648" stroke-miterlimit="10"/>
<path d="M62.1617 39.3807H62.1373C62.0439 39.3807 61.968 39.3049 61.968 39.2115V39.1871C61.968 39.0937 62.0439 39.0178 62.1373 39.0178H62.1617C62.2551 39.0178 62.3309 39.0937 62.3309 39.1871V39.2115C62.3309 39.3049 62.2558 39.3807 62.1617 39.3807Z" stroke="#F2F6FF" stroke-width="0.385648" stroke-miterlimit="10"/>
<path d="M83.6673 25.1011C83.5881 25.0428 83.4899 25.0076 83.3809 25.0083L67.7802 25.0327C67.5696 25.0327 67.3834 25.1681 67.3177 25.3678L63.2776 37.6853L83.6673 25.1011Z" fill="url(#paint32_radial_1872_34859)"/>
<path d="M74.1156 32.3409C74.5658 32.0331 74.7371 31.4995 74.4981 31.1491C74.2584 30.7986 73.6992 30.764 73.2489 31.0718C72.798 31.3796 72.6273 31.9131 72.8663 32.2636C73.106 32.614 73.6653 32.6486 74.1156 32.3409Z" fill="#0144B9"/>
<path d="M81.0468 25.9636L76.1143 29.0207" stroke="#BDD9FF" stroke-width="0.385648" stroke-miterlimit="10"/>
<path d="M80.3577 36.2263L81.273 36.072L80.9656 34.8525L80.7368 34.5479L80.3577 36.2263Z" fill="#FFDE99"/>
<path d="M80.3577 36.2263L81.273 36.072L80.9656 34.8525L80.7368 34.5479L80.3577 36.2263Z" fill="url(#paint33_radial_1872_34859)"/>
<path d="M81.1715 31.9599L80.3597 30.1555C80.3597 30.1555 80.1119 31.0303 80.3285 32.0297C80.1823 31.6634 80.0503 31.3384 80.0503 31.3384C80.0503 31.3384 79.4937 33.6425 79.9318 35.3853C80.0645 35.9141 80.1742 36.2926 80.2629 36.5648L81.4484 32.9505L81.1715 31.9599Z" fill="url(#paint34_radial_1872_34859)"/>
<path d="M80.3481 30.125C80.3481 30.125 80.1213 31.2693 81.3441 33.0981L80.0448 31.3458L79.9175 32.6837C79.8538 33.35 80.0096 34.0189 80.3603 34.589L81.2723 36.0725L82.1844 34.0121L82.3354 33.0967L80.3481 30.125Z" fill="#FFDE99"/>
<path d="M80.3481 30.125C80.3481 30.125 80.1213 31.2693 81.3441 33.0981L80.0448 31.3458L79.9175 32.6837C79.8538 33.35 80.0096 34.0189 80.3603 34.589L81.2723 36.0725L82.1844 34.0121L82.3354 33.0967L80.3481 30.125Z" fill="url(#paint35_radial_1872_34859)"/>
<path d="M21.081 5.28687C20.7438 5.73171 20.7574 6.40812 21.1128 6.83874C21.5232 7.33572 22.268 7.46775 22.6552 7.98233C22.9505 8.37437 22.9633 8.95598 22.6857 9.36088" stroke="#0061FE" stroke-width="0.385648" stroke-miterlimit="10"/>
<path d="M5.13647 48.5776C5.24278 49.1857 5.68424 49.7239 6.26043 49.9474C6.83663 50.1708 7.52523 50.0699 8.0134 49.6921" stroke="#0061FE" stroke-width="0.385648" stroke-miterlimit="10"/>
<path d="M65.8816 11.0786C66.1619 11.0786 66.3894 10.8512 66.3894 10.5708C66.3894 10.2904 66.1619 10.063 65.8816 10.063C65.6013 10.063 65.3738 10.2904 65.3738 10.5708C65.3738 10.8512 65.6013 11.0786 65.8816 11.0786Z" stroke="#0061FE" stroke-width="0.385648" stroke-miterlimit="10"/>
<path d="M76.207 50.8911L77.6966 52.313" stroke="#0061FE" stroke-width="0.385648" stroke-miterlimit="10"/>
<path d="M92.6922 31.9241L92.0388 32.1L92.2142 32.7538L92.8682 32.5779L92.6922 31.9241Z" stroke="#FA404B" stroke-width="0.385648" stroke-miterlimit="10"/>
<defs>
<radialGradient id="paint0_radial_1872_34859" cx="0" cy="0" r="1" gradientUnits="userSpaceOnUse" gradientTransform="translate(78.0217 41.4596) rotate(18.9169) scale(23.0279 11.9618)">
<stop stop-color="#F9C1DA"/>
<stop offset="0.9011" stop-color="white" stop-opacity="0"/>
</radialGradient>
<radialGradient id="paint1_radial_1872_34859" cx="0" cy="0" r="1" gradientUnits="userSpaceOnUse" gradientTransform="translate(34.6036 42.0032) rotate(-1.91412) scale(20.7167 12.0084)">
<stop stop-color="#F9C1DA"/>
<stop offset="0.9011" stop-color="white" stop-opacity="0"/>
</radialGradient>
<radialGradient id="paint2_radial_1872_34859" cx="0" cy="0" r="1" gradientUnits="userSpaceOnUse" gradientTransform="translate(88.1787 1.59137) scale(60.1593)">
<stop stop-color="#DCE9FC"/>
<stop offset="0.7754" stop-color="#F7F8FC" stop-opacity="0"/>
</radialGradient>
<radialGradient id="paint3_radial_1872_34859" cx="0" cy="0" r="1" gradientUnits="userSpaceOnUse" gradientTransform="translate(-2.65052 7.33872) scale(70.4221)">
<stop stop-color="#DCE9FC"/>
<stop offset="0.7754" stop-color="#F7F8FC" stop-opacity="0"/>
</radialGradient>
<radialGradient id="paint4_radial_1872_34859" cx="0" cy="0" r="1" gradientUnits="userSpaceOnUse" gradientTransform="translate(55.0767 49.5474) rotate(-4.83597) scale(61.8922 17.3364)">
<stop stop-color="#DCE9FC"/>
<stop offset="0.7754" stop-color="#F7F8FC" stop-opacity="0"/>
</radialGradient>
<radialGradient id="paint5_radial_1872_34859" cx="0" cy="0" r="1" gradientUnits="userSpaceOnUse" gradientTransform="translate(10.9931 27.1723) scale(4.58093)">
<stop stop-color="#B2B1F8"/>
<stop offset="0.1471" stop-color="#B0B0F8"/>
<stop offset="1" stop-color="#EECFF8" stop-opacity="0"/>
</radialGradient>
<radialGradient id="paint6_radial_1872_34859" cx="0" cy="0" r="1" gradientUnits="userSpaceOnUse" gradientTransform="translate(11.5318 25.5816) scale(1.86457)">
<stop stop-color="#B2B1F8"/>
<stop offset="0.1471" stop-color="#B0B0F8"/>
<stop offset="1" stop-color="#EECFF8"/>
</radialGradient>
<radialGradient id="paint7_radial_1872_34859" cx="0" cy="0" r="1" gradientUnits="userSpaceOnUse" gradientTransform="translate(14.0462 29.5842) scale(6.2639)">
<stop stop-color="#B2B1F8"/>
<stop offset="0.1471" stop-color="#B0B0F8"/>
<stop offset="1" stop-color="#EECFF8"/>
</radialGradient>
<radialGradient id="paint8_radial_1872_34859" cx="0" cy="0" r="1" gradientUnits="userSpaceOnUse" gradientTransform="translate(15.7911 37.1018) scale(12.2851)">
<stop stop-color="#B2B1F8"/>
<stop offset="0.1471" stop-color="#B0B0F8"/>
<stop offset="1" stop-color="#EECFF8"/>
</radialGradient>
<radialGradient id="paint9_radial_1872_34859" cx="0" cy="0" r="1" gradientUnits="userSpaceOnUse" gradientTransform="translate(6.11793 29.1735) scale(4.75052)">
<stop stop-color="#B2B1F8"/>
<stop offset="0.1471" stop-color="#B0B0F8"/>
<stop offset="1" stop-color="#EECFF8"/>
</radialGradient>
<radialGradient id="paint10_radial_1872_34859" cx="0" cy="0" r="1" gradientUnits="userSpaceOnUse" gradientTransform="translate(88.3838 29.4045) scale(21.9819)">
<stop offset="0.131" stop-color="#B0B0F8"/>
<stop offset="0.1759" stop-color="#B7B7F9"/>
<stop offset="0.3876" stop-color="#D3D4FB"/>
<stop offset="0.5977" stop-color="#E8E9FD"/>
<stop offset="0.8034" stop-color="#F4F6FE"/>
<stop offset="1" stop-color="#F8FAFE"/>
</radialGradient>
<radialGradient id="paint11_radial_1872_34859" cx="0" cy="0" r="1" gradientUnits="userSpaceOnUse" gradientTransform="translate(98.7329 9.80178) rotate(180) scale(8.36872 8.36205)">
<stop stop-color="#FA404B"/>
<stop offset="0.025" stop-color="#FA484F" stop-opacity="0.975"/>
<stop offset="0.1916" stop-color="#FC7565" stop-opacity="0.8084"/>
<stop offset="0.3589" stop-color="#FD9B78" stop-opacity="0.6411"/>
<stop offset="0.5244" stop-color="#FEB886" stop-opacity="0.4756"/>
<stop offset="0.6876" stop-color="#FECD91" stop-opacity="0.3124"/>
<stop offset="0.8474" stop-color="#FFDA97" stop-opacity="0.1526"/>
<stop offset="1" stop-color="#FFDE99" stop-opacity="0"/>
</radialGradient>
<radialGradient id="paint12_radial_1872_34859" cx="0" cy="0" r="1" gradientUnits="userSpaceOnUse" gradientTransform="translate(56.0035 52.5992) scale(13.4271)">
<stop stop-color="#FA404B"/>
<stop offset="0.025" stop-color="#FA484F" stop-opacity="0.975"/>
<stop offset="0.1916" stop-color="#FC7565" stop-opacity="0.8084"/>
<stop offset="0.3589" stop-color="#FD9B78" stop-opacity="0.6411"/>
<stop offset="0.5244" stop-color="#FEB886" stop-opacity="0.4756"/>
<stop offset="0.6876" stop-color="#FECD91" stop-opacity="0.3124"/>
<stop offset="0.8474" stop-color="#FFDA97" stop-opacity="0.1526"/>
<stop offset="1" stop-color="#FFDE99" stop-opacity="0"/>
</radialGradient>
<radialGradient id="paint13_radial_1872_34859" cx="0" cy="0" r="1" gradientUnits="userSpaceOnUse" gradientTransform="translate(46.6758 45.7176) scale(12.2187 11.5993)">
<stop stop-color="#FA404B"/>
<stop offset="0.025" stop-color="#FA484F" stop-opacity="0.975"/>
<stop offset="0.1916" stop-color="#FC7565" stop-opacity="0.8084"/>
<stop offset="0.3589" stop-color="#FD9B78" stop-opacity="0.6411"/>
<stop offset="0.5244" stop-color="#FEB886" stop-opacity="0.4756"/>
<stop offset="0.6876" stop-color="#FECD91" stop-opacity="0.3124"/>
<stop offset="0.8474" stop-color="#FFDA97" stop-opacity="0.1526"/>
<stop offset="1" stop-color="#FFDE99" stop-opacity="0"/>
</radialGradient>
<radialGradient id="paint14_radial_1872_34859" cx="0" cy="0" r="1" gradientUnits="userSpaceOnUse" gradientTransform="translate(24.5125 37.1018) scale(4.58294)">
<stop stop-color="#FA404B"/>
<stop offset="0.025" stop-color="#FA484F" stop-opacity="0.975"/>
<stop offset="0.1916" stop-color="#FC7565" stop-opacity="0.8084"/>
<stop offset="0.3589" stop-color="#FD9B78" stop-opacity="0.6411"/>
<stop offset="0.5244" stop-color="#FEB886" stop-opacity="0.4756"/>
<stop offset="0.6876" stop-color="#FECD91" stop-opacity="0.3124"/>
<stop offset="0.8474" stop-color="#FFDA97" stop-opacity="0.1526"/>
<stop offset="1" stop-color="#FFDE99" stop-opacity="0"/>
</radialGradient>
<radialGradient id="paint15_radial_1872_34859" cx="0" cy="0" r="1" gradientUnits="userSpaceOnUse" gradientTransform="translate(22.5284 34.1255) scale(1.31188)">
<stop stop-color="#FA404B"/>
<stop offset="0.025" stop-color="#FA484F" stop-opacity="0.975"/>
<stop offset="0.1916" stop-color="#FC7565" stop-opacity="0.8084"/>
<stop offset="0.3589" stop-color="#FD9B78" stop-opacity="0.6411"/>
<stop offset="0.5244" stop-color="#FEB886" stop-opacity="0.4756"/>
<stop offset="0.6876" stop-color="#FECD91" stop-opacity="0.3124"/>
<stop offset="0.8474" stop-color="#FFDA97" stop-opacity="0.1526"/>
<stop offset="1" stop-color="#FFDE99" stop-opacity="0"/>
</radialGradient>
<radialGradient id="paint16_radial_1872_34859" cx="0" cy="0" r="1" gradientUnits="userSpaceOnUse" gradientTransform="translate(37.4783 35.4939) scale(12.206)">
<stop stop-color="#FA404B"/>
<stop offset="0.025" stop-color="#FA484F" stop-opacity="0.975"/>
<stop offset="0.1916" stop-color="#FC7565" stop-opacity="0.8084"/>
<stop offset="0.3589" stop-color="#FD9B78" stop-opacity="0.6411"/>
<stop offset="0.5244" stop-color="#FEB886" stop-opacity="0.4756"/>
<stop offset="0.6876" stop-color="#FECD91" stop-opacity="0.3124"/>
<stop offset="0.8474" stop-color="#FFDA97" stop-opacity="0.1526"/>
<stop offset="1" stop-color="#FFDE99" stop-opacity="0"/>
</radialGradient>
<radialGradient id="paint17_radial_1872_34859" cx="0" cy="0" r="1" gradientUnits="userSpaceOnUse" gradientTransform="translate(46.0993 12.8808) scale(10.5528)">
<stop offset="0.0775" stop-color="#0144B9"/>
<stop offset="1" stop-color="#0061FE"/>
</radialGradient>
<radialGradient id="paint18_radial_1872_34859" cx="0" cy="0" r="1" gradientUnits="userSpaceOnUse" gradientTransform="translate(48.4087 18.9873) scale(4.25302)">
<stop stop-color="#FA404B"/>
<stop offset="0.025" stop-color="#FA484F" stop-opacity="0.975"/>
<stop offset="0.1916" stop-color="#FC7565" stop-opacity="0.8084"/>
<stop offset="0.3589" stop-color="#FD9B78" stop-opacity="0.6411"/>
<stop offset="0.5244" stop-color="#FEB886" stop-opacity="0.4756"/>
<stop offset="0.6876" stop-color="#FECD91" stop-opacity="0.3124"/>
<stop offset="0.8474" stop-color="#FFDA97" stop-opacity="0.1526"/>
<stop offset="1" stop-color="#FFDE99" stop-opacity="0"/>
</radialGradient>
<radialGradient id="paint19_radial_1872_34859" cx="0" cy="0" r="1" gradientUnits="userSpaceOnUse" gradientTransform="translate(53.317 19.2427) rotate(72.5598) scale(8.10388 5.07732)">
<stop stop-color="#FA404B"/>
<stop offset="0.025" stop-color="#FA484F" stop-opacity="0.975"/>
<stop offset="0.1916" stop-color="#FC7565" stop-opacity="0.8084"/>
<stop offset="0.3589" stop-color="#FD9B78" stop-opacity="0.6411"/>
<stop offset="0.5244" stop-color="#FEB886" stop-opacity="0.4756"/>
<stop offset="0.6876" stop-color="#FECD91" stop-opacity="0.3124"/>
<stop offset="0.8474" stop-color="#FFDA97" stop-opacity="0.1526"/>
<stop offset="1" stop-color="#FFDE99" stop-opacity="0"/>
</radialGradient>
<radialGradient id="paint20_radial_1872_34859" cx="0" cy="0" r="1" gradientUnits="userSpaceOnUse" gradientTransform="translate(54.2073 7.08206) scale(11.598)">
<stop offset="0.0775" stop-color="#0144B9"/>
<stop offset="1" stop-color="#0061FE"/>
</radialGradient>
<radialGradient id="paint21_radial_1872_34859" cx="0" cy="0" r="1" gradientUnits="userSpaceOnUse" gradientTransform="translate(39.6079 41.3867) scale(10.2655)">
<stop offset="0.0989" stop-color="#FA404B"/>
<stop offset="1" stop-color="#F9C1DA" stop-opacity="0"/>
</radialGradient>
<radialGradient id="paint22_radial_1872_34859" cx="0" cy="0" r="1" gradientUnits="userSpaceOnUse" gradientTransform="translate(66.0075 24.4223) rotate(60.6048) scale(8.36313 5.34701)">
<stop offset="0.0989" stop-color="#FA404B"/>
<stop offset="1" stop-color="#F9C1DA" stop-opacity="0"/>
</radialGradient>
<radialGradient id="paint23_radial_1872_34859" cx="0" cy="0" r="1" gradientUnits="userSpaceOnUse" gradientTransform="translate(15.6691 32.4835) scale(11.0731)">
<stop stop-color="#0061FE"/>
<stop offset="0.9225" stop-color="#0144B9"/>
</radialGradient>
<radialGradient id="paint24_radial_1872_34859" cx="0" cy="0" r="1" gradientUnits="userSpaceOnUse" gradientTransform="translate(62.4692 43.7216) scale(17.7268)">
<stop offset="0.0989" stop-color="#FA404B"/>
<stop offset="1" stop-color="#F9C1DA" stop-opacity="0"/>
</radialGradient>
<radialGradient id="paint25_radial_1872_34859" cx="0" cy="0" r="1" gradientUnits="userSpaceOnUse" gradientTransform="translate(79.3007 48.5452) scale(19.7774)">
<stop stop-color="#F9C1DA"/>
<stop offset="0.1462" stop-color="#F2CEE4" stop-opacity="0.8538"/>
<stop offset="0.4384" stop-color="#E7E3F3" stop-opacity="0.5616"/>
<stop offset="0.7256" stop-color="#E0F0FC" stop-opacity="0.2744"/>
<stop offset="1" stop-color="#DEF4FF" stop-opacity="0"/>
</radialGradient>
<radialGradient id="paint26_radial_1872_34859" cx="0" cy="0" r="1" gradientUnits="userSpaceOnUse" gradientTransform="translate(37.2217 26.2743) scale(11.1044)">
<stop stop-color="#F9C1DA"/>
<stop offset="0.1462" stop-color="#F2CEE4" stop-opacity="0.8538"/>
<stop offset="0.4384" stop-color="#E7E3F3" stop-opacity="0.5616"/>
<stop offset="0.7256" stop-color="#E0F0FC" stop-opacity="0.2744"/>
<stop offset="1" stop-color="#DEF4FF" stop-opacity="0"/>
</radialGradient>
<radialGradient id="paint27_radial_1872_34859" cx="0" cy="0" r="1" gradientUnits="userSpaceOnUse" gradientTransform="translate(42.0455 39.3085) scale(12.4028)">
<stop offset="0.1096" stop-color="#BDD9FF"/>
<stop offset="1" stop-color="#DEF4FF" stop-opacity="0"/>
</radialGradient>
<radialGradient id="paint28_radial_1872_34859" cx="0" cy="0" r="1" gradientUnits="userSpaceOnUse" gradientTransform="translate(55.3855 46.1851) rotate(-13.8459) scale(18.5588 9.4831)">
<stop offset="0.1096" stop-color="#BDD9FF"/>
<stop offset="1" stop-color="#DEF4FF" stop-opacity="0"/>
</radialGradient>
<radialGradient id="paint29_radial_1872_34859" cx="0" cy="0" r="1" gradientUnits="userSpaceOnUse" gradientTransform="translate(47.3994 16.8491) scale(3.51965)">
<stop stop-color="#FA404B"/>
<stop offset="0.025" stop-color="#FA484F" stop-opacity="0.975"/>
<stop offset="0.1916" stop-color="#FC7565" stop-opacity="0.8084"/>
<stop offset="0.3589" stop-color="#FD9B78" stop-opacity="0.6411"/>
<stop offset="0.5244" stop-color="#FEB886" stop-opacity="0.4756"/>
<stop offset="0.6876" stop-color="#FECD91" stop-opacity="0.3124"/>
<stop offset="0.8474" stop-color="#FFDA97" stop-opacity="0.1526"/>
<stop offset="1" stop-color="#FFDE99" stop-opacity="0"/>
</radialGradient>
<radialGradient id="paint30_radial_1872_34859" cx="0" cy="0" r="1" gradientUnits="userSpaceOnUse" gradientTransform="translate(19.6461 34.536) scale(4.03344)">
<stop stop-color="#BDD9FF"/>
<stop offset="1" stop-color="#DEF4FF"/>
</radialGradient>
<radialGradient id="paint31_radial_1872_34859" cx="0" cy="0" r="1" gradientUnits="userSpaceOnUse" gradientTransform="translate(44.2262 11.9059) scale(5.99455)">
<stop offset="0.0989" stop-color="#FA404B"/>
<stop offset="1" stop-color="#F9C1DA" stop-opacity="0"/>
</radialGradient>
<radialGradient id="paint32_radial_1872_34859" cx="0" cy="0" r="1" gradientUnits="userSpaceOnUse" gradientTransform="translate(76.306 20.36) rotate(-0.088981) scale(16.0599)">
<stop offset="0.1096" stop-color="#BDD9FF"/>
<stop offset="1" stop-color="#0061FE" stop-opacity="0"/>
</radialGradient>
<radialGradient id="paint33_radial_1872_34859" cx="0" cy="0" r="1" gradientUnits="userSpaceOnUse" gradientTransform="translate(81.5878 34.669) rotate(-0.0889878) scale(2.94909 2.94931)">
<stop stop-color="#FA404B"/>
<stop offset="0.025" stop-color="#FA484F" stop-opacity="0.975"/>
<stop offset="0.1916" stop-color="#FC7565" stop-opacity="0.8084"/>
<stop offset="0.3589" stop-color="#FD9B78" stop-opacity="0.6411"/>
<stop offset="0.5244" stop-color="#FEB886" stop-opacity="0.4756"/>
<stop offset="0.6876" stop-color="#FECD91" stop-opacity="0.3124"/>
<stop offset="0.8474" stop-color="#FFDA97" stop-opacity="0.1526"/>
<stop offset="1" stop-color="#FFDE99" stop-opacity="0"/>
</radialGradient>
<radialGradient id="paint34_radial_1872_34859" cx="0" cy="0" r="1" gradientUnits="userSpaceOnUse" gradientTransform="translate(80.8655 32.0016) rotate(-0.0889817) scale(5.77668)">
<stop offset="0.0989" stop-color="#0144B9"/>
<stop offset="1" stop-color="#0061FE" stop-opacity="0"/>
</radialGradient>
<radialGradient id="paint35_radial_1872_34859" cx="0" cy="0" r="1" gradientUnits="userSpaceOnUse" gradientTransform="translate(83.3571 33.999) rotate(-0.0889809) scale(3.85732)">
<stop stop-color="#FA404B"/>
<stop offset="0.025" stop-color="#FA484F" stop-opacity="0.975"/>
<stop offset="0.1916" stop-color="#FC7565" stop-opacity="0.8084"/>
<stop offset="0.3589" stop-color="#FD9B78" stop-opacity="0.6411"/>
<stop offset="0.5244" stop-color="#FEB886" stop-opacity="0.4756"/>
<stop offset="0.6876" stop-color="#FECD91" stop-opacity="0.3124"/>
<stop offset="0.8474" stop-color="#FFDA97" stop-opacity="0.1526"/>
<stop offset="1" stop-color="#FFDE99" stop-opacity="0"/>
</radialGradient>
</defs>
</svg>
