<svg width="80" height="79" viewBox="0 0 80 79" fill="none" xmlns="http://www.w3.org/2000/svg">
<g id="Layer_1" clip-path="url(#clip0_7856_216274)">
<path id="Vector" d="M8.48974 8.4075C8.48974 8.88082 8.48974 9.23888 8.48974 9.59694C8.48974 14.3964 8.51181 19.1982 8.47993 23.9977C8.46031 26.8155 5.90977 28.6671 3.3298 27.7989C1.84853 27.3011 0.722855 25.9375 0.715498 24.3704C0.686069 18.8083 0.629662 13.2413 0.749832 7.67913C0.830763 4.05687 4.14401 0.748529 7.77117 0.670051C13.3333 0.549881 18.9003 0.591573 24.4649 0.640622C26.5078 0.657789 28.0946 2.46279 28.0896 4.52038C28.0847 6.60741 26.4588 8.36336 24.3472 8.38543C19.4865 8.43448 14.6233 8.4075 9.7601 8.40995C9.39469 8.40995 9.02927 8.40995 8.48728 8.40995L8.48974 8.4075Z" fill="#FFFFFF"/>
<path id="Vector_2" d="M71.2036 8.40615C70.6837 8.40615 70.3207 8.40615 69.9578 8.40615C65.1264 8.40615 60.2951 8.41842 55.4638 8.39144C53.7569 8.38163 52.3566 7.33689 51.8195 5.80412C51.2775 4.25172 51.6993 2.48596 53.0482 1.52215C53.7054 1.05128 54.5932 0.661346 55.3829 0.651536C60.7954 0.580416 66.208 0.555891 71.6205 0.646631C75.5984 0.712847 78.8994 4.02855 78.968 8.01867C79.0588 13.3993 79.022 18.78 78.9901 24.1606C78.9778 26.3384 77.2489 27.9938 75.1299 28.0036C72.9743 28.0159 71.2355 26.3384 71.2208 24.114C71.1864 19.2827 71.2085 14.4514 71.206 9.62257C71.206 9.26206 71.206 8.90155 71.206 8.40861L71.2036 8.40615Z" fill="#FFFFFF"/>
<path id="Vector_3" d="M8.48971 71.1073C8.97529 71.1073 9.33335 71.1073 9.69141 71.1073C14.5227 71.1073 19.354 71.095 24.1853 71.1196C25.9094 71.1269 27.2975 72.1349 27.8542 73.6701C28.4158 75.2225 28.0136 76.9858 26.6746 77.9619C26.0198 78.4401 25.1369 78.8472 24.3496 78.857C18.8758 78.9281 13.4019 78.96 7.93055 78.857C4.11701 78.7859 0.803761 75.4457 0.735093 71.6272C0.636995 66.1877 0.673782 60.7433 0.708116 55.3013C0.72283 53.1407 2.49104 51.4976 4.61731 51.5098C6.73867 51.5221 8.45538 53.175 8.47254 55.3577C8.51178 60.189 8.48726 65.0203 8.48971 69.8492C8.48971 70.2146 8.48971 70.5776 8.48971 71.1073Z" fill="#FFFFFF"/>
<path id="Vector_4" d="M71.2035 71.1076C71.2035 70.6269 71.2035 70.2689 71.2035 69.9108C71.2035 65.1114 71.1814 60.3095 71.2133 55.5101C71.2305 52.7315 73.7123 50.8946 76.28 51.6941C77.8128 52.1723 78.9679 53.5408 78.9753 55.1496C79.0071 60.7142 79.066 66.2812 78.9385 71.8409C78.8551 75.5024 75.5026 78.7813 71.819 78.8524C66.3158 78.9603 60.81 78.9211 55.3068 78.8794C53.205 78.8622 51.5913 77.0744 51.6011 74.9849C51.6109 72.8979 53.2394 71.1493 55.3509 71.1297C60.2116 71.0831 65.0748 71.1101 69.938 71.1052C70.3034 71.1052 70.6664 71.1052 71.201 71.1052L71.2035 71.1076Z" fill="#FFFFFF"/>
<rect id="Rectangle 1542" x="9.05542" y="3.45117" width="28.9461" height="7.70312" rx="3.85156" transform="rotate(45 9.05542 3.45117)" fill="#FFFFFF"/>
<rect id="Rectangle 1543" x="55.4207" y="49.248" width="28.9461" height="7.70312" rx="3.85156" transform="rotate(45 55.4207 49.248)" fill="#FFFFFF"/>
<rect id="Rectangle 1544" x="51.6008" y="23.918" width="28.9461" height="7.70312" rx="3.85156" transform="rotate(-45 51.6008 23.918)" fill="#FFFFFF"/>
<rect id="Rectangle 1545" x="3.60815" y="69.7168" width="28.9461" height="7.70312" rx="3.85156" transform="rotate(-45 3.60815 69.7168)" fill="#FFFFFF"/>
</g>
<defs>
<clipPath id="clip0_7856_216274">
<rect width="78.3506" height="78.3383" fill="white" transform="translate(0.671143 0.587891)"/>
</clipPath>
</defs>
</svg>
