<svg width="16" height="16" viewBox="0 0 16 16" fill="none" xmlns="http://www.w3.org/2000/svg">
<g clip-path="url(#clip0_9963_249288)">
<path d="M9.99572 15.0694H2.35999C2.34529 15.062 2.33092 15.05 2.31521 15.0476C1.35569 14.9206 0.580651 13.7482 1.28417 12.6102C2.12772 11.246 2.93417 9.8587 3.76 8.48309C3.81381 8.39352 3.82284 8.32267 3.7824 8.22341C3.24799 6.91264 3.19686 5.57546 3.62231 4.23094C4.52903 1.36643 7.37183 -0.351412 10.3336 0.158593C12.7413 0.573347 14.6864 2.48135 15.1342 4.8783C15.1971 5.21485 15.2218 5.55842 15.2639 5.89898V6.16568C15.2438 6.35217 15.2308 6.53999 15.2027 6.72548C14.8381 9.13079 13.5033 10.7537 11.2423 11.6247C11.0334 11.7052 10.8135 11.7563 10.5876 11.8245C10.6227 11.8867 10.6514 11.9395 10.6819 11.9913C10.8343 12.2493 10.9957 12.5023 11.1377 12.7657C11.6006 13.6252 11.1905 14.682 10.2808 14.9868C10.1869 15.0182 10.0906 15.042 9.99572 15.0694ZM4.50129 7.24083C4.63865 7.02059 4.73724 6.81705 4.87794 6.64894C5.04271 6.45176 5.2185 6.24221 5.4344 6.11354C6.17134 5.67406 7.07505 5.93808 7.53292 6.70376C8.34204 8.05697 9.14749 9.41219 9.94994 10.7691C10.0124 10.8744 10.0689 10.9155 10.1979 10.8904C12.9094 10.3607 14.6586 7.814 14.1694 5.10323C13.656 2.25943 10.7631 0.444676 7.98444 1.22372C5.82744 1.8283 4.34086 3.77608 4.33852 6.00927C4.33819 6.414 4.36927 6.81739 4.50129 7.24083ZM6.19474 14.0714C7.37784 14.0714 8.56095 14.0697 9.74406 14.0727C9.99505 14.0734 10.1889 13.9848 10.3049 13.7586C10.4185 13.537 10.36 13.3318 10.2387 13.1289C9.06962 11.1772 7.8942 9.22871 6.74184 7.26723C6.49486 6.84713 5.9267 6.7589 5.62958 7.26656C4.48357 9.2257 3.30915 11.1678 2.14175 13.1146C2.01007 13.3345 1.94958 13.552 2.08393 13.7877C2.21528 14.0179 2.4275 14.0744 2.67883 14.0734C3.85091 14.0681 5.02266 14.0711 6.19474 14.0711V14.0714Z" fill="#FF9A24"/>
<path d="M9.7892 5.51354C9.87209 5.51354 9.93659 5.51354 10.0014 5.51354C10.4954 5.51354 10.9897 5.5092 11.4837 5.51588C11.7621 5.51956 11.9462 5.68633 11.977 5.93966C12.007 6.18664 11.8667 6.41357 11.6337 6.48242C11.5712 6.5008 11.5027 6.50447 11.4369 6.50447C10.743 6.50614 10.0489 6.50648 9.35506 6.50481C9.00314 6.50414 8.80696 6.3113 8.80595 5.95938C8.80361 5.0764 8.80361 4.19375 8.80595 3.31077C8.80696 2.99193 9.00949 2.76935 9.29123 2.76567C9.57899 2.76199 9.78787 2.98892 9.78887 3.31544C9.79088 3.98186 9.78954 4.64794 9.78954 5.31435C9.78954 5.37384 9.78954 5.43367 9.78954 5.51321L9.7892 5.51354Z" fill="#FF9A24"/>
<path d="M6.78859 9.25719C6.72977 9.89319 6.67095 10.5289 6.61212 11.1649C6.60343 11.2588 6.59876 11.3534 6.58739 11.4469C6.55698 11.6969 6.38753 11.864 6.16896 11.8634C5.9564 11.8627 5.79498 11.7026 5.76991 11.4509C5.71911 10.9369 5.67499 10.4226 5.62754 9.90823C5.60882 9.7037 5.58576 9.49949 5.56905 9.29462C5.53997 8.93802 5.80868 8.63556 6.15893 8.6262C6.51353 8.61684 6.79494 8.89892 6.78825 9.25686L6.78859 9.25719Z" fill="#FF9A24"/>
<path d="M5.65332 12.8241C5.65399 12.5216 5.88894 12.2893 6.19174 12.292C6.48217 12.2947 6.72012 12.53 6.72413 12.8184C6.72848 13.1088 6.48049 13.3615 6.18906 13.3635C5.89562 13.3655 5.65265 13.1205 5.65332 12.8237V12.8241Z" fill="#FF9A24"/>
</g>
<defs>
<clipPath id="clip0_9963_249288">
<rect width="15" height="15" fill="white" transform="translate(0.638184 0.0693359)"/>
</clipPath>
</defs>
</svg>
