<svg width="40" height="37" viewBox="0 0 40 37" fill="none" xmlns="http://www.w3.org/2000/svg">
<g id="Image Icon" clip-path="url(#clip0_7646_217527)">
<path id="Rectangle 1547" d="M4.18811 13.806C4.27655 13.4425 4.5736 13.1677 4.94253 13.1081C5.51255 13.016 6.02922 13.4606 6.02444 14.039L5.93856 24.4135C5.92498 26.0537 7.22852 27.4045 8.86601 27.4471L29.4032 27.9808L31.8447 27.9808C32.5427 27.9808 33.0274 28.6794 32.7834 29.3337L30.658 35.033C30.4782 35.5152 29.9619 35.781 29.4647 35.6472L1.6991 28.1766C1.1738 28.0352 0.856618 27.4996 0.985221 26.971L4.18811 13.806Z" fill="#D9D9D9"/>
<path id="Vector" d="M35.5575 0.527344C27.1347 0.527344 18.7108 0.527344 10.288 0.52938C9.98624 0.52938 9.67743 0.52938 9.38381 0.587427C7.80231 0.905158 6.76351 2.20867 6.76148 3.89916C6.75541 10.3261 6.75743 16.753 6.76351 23.1799C6.76351 23.4691 6.79489 23.7655 6.8607 24.0476C7.21001 25.5446 8.50801 26.5375 10.1148 26.5385C16.7071 26.5415 23.2984 26.5395 29.8906 26.5395C31.8609 26.5395 33.8302 26.5456 35.8005 26.5375C37.4104 26.5314 38.6436 25.5385 39.0283 23.961C39.0425 23.903 39.0759 23.85 39.1012 23.795V3.29018C39.086 3.27083 39.0617 3.25351 39.0556 3.23213C38.5585 1.37157 37.4691 0.527344 35.5575 0.527344ZM8.41588 22.0322C8.40677 21.9304 8.38955 21.8275 8.38955 21.7257C8.38854 15.7815 8.38652 9.83726 8.38955 3.89305C8.38955 2.80136 9.05374 2.14757 10.1452 2.14757C18.6693 2.14757 27.1934 2.14757 35.7175 2.14757C36.7857 2.14757 37.4853 2.80238 37.4873 3.85028C37.4954 8.70178 37.4914 13.5543 37.4903 18.4068C37.4903 18.4435 37.4812 18.4801 37.464 18.6034C37.3334 18.4598 37.2362 18.359 37.1461 18.252C34.9601 15.6868 32.7762 13.1205 30.5893 10.5572C29.7469 9.56943 28.6696 9.26596 27.6176 9.78431C27.2359 9.9727 26.8826 10.2833 26.6051 10.6133C24.6419 12.9514 22.702 15.309 20.754 17.6604C20.6659 17.7673 20.5728 17.8701 20.4452 18.0168C19.7243 17.2897 19.0307 16.588 18.3342 15.8894C17.1911 14.7417 15.7361 14.7438 14.587 15.8976C12.6572 17.8355 10.7284 19.7765 8.80163 21.7186C8.69532 21.8265 8.61129 21.9569 8.51713 22.076C8.48371 22.0607 8.4503 22.0465 8.4179 22.0312L8.41588 22.0322ZM37.4903 23.0842C37.4853 24.2624 36.8312 24.9193 35.6517 24.9193C28.3517 24.9203 21.0527 24.9193 13.7527 24.9193C12.5407 24.9193 11.3278 24.9193 10.1158 24.9193C9.52556 24.9193 9.03248 24.7166 8.65482 24.1789C8.76923 24.0577 8.86137 23.9559 8.95857 23.8592C11.2083 21.5953 13.4591 19.3325 15.7098 17.0687C16.2646 16.5106 16.6666 16.5096 17.2214 17.0667C18.0709 17.919 18.9184 18.7734 19.7668 19.6268C20.3328 20.1961 20.7712 20.1788 21.2845 19.5586C23.4674 16.9251 25.6494 14.2896 27.8302 11.654C28.3507 11.0247 28.8437 11.0074 29.3631 11.6163C31.9936 14.702 34.624 17.7856 37.2433 20.8815C37.383 21.0464 37.466 21.302 37.4802 21.522C37.5146 22.0404 37.4934 22.5628 37.4903 23.0842Z" fill="#87919F"/>
<path id="Vector_2" d="M31.6524 33.8457C31.7587 33.4811 31.8498 33.1114 31.948 32.7438C32.2538 31.6053 32.5626 30.4678 32.8643 29.3282C33.0061 28.7936 32.8279 28.3801 32.4047 28.2202C31.9146 28.0349 31.4631 28.3048 31.3041 28.8924C30.9143 30.3364 30.5326 31.7815 30.1448 33.2265C29.8218 34.4323 29.0685 34.8712 27.8627 34.5473C19.6686 32.3416 11.4746 30.1337 3.28059 27.9239C2.19015 27.6296 1.72542 26.8179 2.016 25.7232C2.54249 23.7384 3.07303 21.7557 3.60155 19.7719C4.09969 17.8981 4.59985 16.0243 5.09395 14.1495C5.23873 13.5985 4.96334 13.1311 4.46519 13.0537C4.0116 12.9835 3.6623 13.2594 3.51042 13.8256C2.48478 17.671 1.45609 21.5153 0.440574 25.3627C-0.0616171 27.264 0.948841 28.9881 2.84421 29.4983C9.58937 31.314 16.3355 33.1267 23.0807 34.9435C24.7341 35.3885 26.3854 35.8447 28.0378 36.2959H29.023C29.0787 36.2704 29.1313 36.2358 29.189 36.2215C30.4678 35.9079 31.2828 35.1095 31.6524 33.8447V33.8457Z" fill="#87919F"/>
<path id="Vector_3" d="M37.2447 20.8827C34.6264 17.7879 31.995 14.7033 29.3646 11.6176C28.8452 11.0087 28.3521 11.026 27.8317 11.6553C25.6508 14.2909 23.4689 16.9254 21.286 19.5599C20.7716 20.1801 20.3342 20.1974 19.7683 19.6281C18.9198 18.7747 18.0723 17.9213 17.2229 17.0679C16.668 16.5109 16.2671 16.5119 15.7112 17.07C13.4605 19.3328 11.2097 21.5966 8.95999 23.8604C8.8628 23.9582 8.77066 24.059 8.65625 24.1802C9.03492 24.7179 9.52698 24.9195 10.1173 24.9206C11.3292 24.9216 12.5422 24.9206 13.7541 24.9206C21.0541 24.9206 28.3531 24.9206 35.6531 24.9206C36.8326 24.9206 37.4867 24.2637 37.4918 23.0855C37.4938 22.5651 37.5151 22.0427 37.4816 21.5233C37.4675 21.3033 37.3844 21.0467 37.2447 20.8827Z" fill="#D8E4FF"/>
</g>
<defs>
<clipPath id="clip0_7646_217527">
<rect width="38.7902" height="35.7701" fill="white" transform="translate(0.3125 0.527344)"/>
</clipPath>
</defs>
</svg>
