<svg width="20" height="21" viewBox="0 0 20 21" fill="none" xmlns="http://www.w3.org/2000/svg">
<circle cx="10.0142" cy="10.875" r="7.4" stroke="#2B3242" stroke-width="1.2"/>
<path d="M10.2984 9.38254L10.8984 9.38254C10.8984 9.05117 10.6298 8.78254 10.2984 8.78254L10.2984 9.38254ZM10.2984 14.6013L10.2984 15.2013L10.2984 15.2013L10.2984 14.6013ZM8.42685 8.78254C8.09548 8.78254 7.82685 9.05117 7.82685 9.38254C7.82685 9.71391 8.09548 9.98254 8.42685 9.98254L8.42685 8.78254ZM12.1152 15.2013C12.4466 15.2013 12.7152 14.9327 12.7152 14.6013C12.7152 14.27 12.4466 14.0013 12.1152 14.0013L12.1152 15.2013ZM8.42685 14.0013C8.09548 14.0013 7.82685 14.27 7.82685 14.6013C7.82685 14.9327 8.09548 15.2013 8.42685 15.2013L8.42685 14.0013ZM9.69843 9.38254L9.69844 14.6013L10.8984 14.6013L10.8984 9.38254L9.69843 9.38254ZM10.2984 8.78254L8.42685 8.78254L8.42685 9.98254L10.2984 9.98254L10.2984 8.78254ZM10.2984 15.2013L12.1152 15.2013L12.1152 14.0013L10.2984 14.0013L10.2984 15.2013ZM10.2984 14.0013L8.42685 14.0013L8.42685 15.2013L10.2984 15.2013L10.2984 14.0013Z" fill="#2B3242"/>
<circle cx="10.0001" cy="6.80798" r="0.900692" fill="#2B3242"/>
</svg>
