<svg width="21" height="21" viewBox="0 0 21 21" fill="none" xmlns="http://www.w3.org/2000/svg">
<path d="M20.0159 11.0254L13.3119 18.6425L1.68685 16.2363C1.68685 16.2363 0.621101 15.9351 0.833716 14.8255C1.03689 13.7652 2.31187 13.83 2.31187 13.83" stroke="#1F283A" stroke-linecap="round"/>
<path d="M19.9935 8.47754L13.2894 16.0947L1.66439 13.6884C1.66439 13.6884 0.59864 13.3873 0.811255 12.2777C1.01443 11.2174 2.28941 11.2822 2.28941 11.2822" stroke="#1F283A" stroke-linecap="round"/>
<path d="M19.9935 5.89941L13.2894 13.5165L1.66439 11.1103C1.66439 11.1103 0.59864 10.8091 0.811255 9.69954C1.01443 8.63923 2.28941 8.70403 2.28941 8.70403" stroke="#1F283A" stroke-linecap="round"/>
<path d="M7.67181 2.05363C8.02394 1.66359 8.55449 1.48626 9.07038 1.58616L18.4378 3.4002C18.8193 3.47408 18.9744 3.93586 18.7148 4.22505L12.9521 10.6456L1.86912 8.48098L7.67181 2.05363Z" stroke="#1F283A"/>
<path d="M9.09903 3.53222C9.21737 3.407 9.39183 3.35153 9.56075 3.38542L14.1209 4.3001C14.506 4.37736 14.6558 4.84825 14.3859 5.13377L14.1125 5.42308C13.9942 5.54829 13.8197 5.60376 13.6508 5.56987L9.09066 4.65519C8.70548 4.57793 8.55577 4.10704 8.82561 3.82152L9.09903 3.53222Z" fill="#1F283A"/>
</svg>
