<svg width="41" height="41" viewBox="0 0 41 41" fill="none" xmlns="http://www.w3.org/2000/svg">
<path d="M25.5885 37.1443L39.0573 22.184C38.8347 22.0372 38.2734 21.8291 38.0753 21.0769C37.8904 20.3746 38.2019 19.2205 38.3229 18.6443L25.2485 32.6157L3.80165 28.4542C3.80165 28.4542 1.28799 27.9962 0.882547 30.0479C0.534255 31.8104 2.66047 32.2979 2.66047 32.2979L25.5885 37.1443Z" fill="#D7DADF"/>
<path fill-rule="evenodd" clip-rule="evenodd" d="M25.6125 32.0326L25.2982 32.3791L3.80769 28.0777C3.80769 28.0777 1.28891 27.6043 0.882636 29.725C0.533635 31.5467 2.68231 32.6443 2.68231 32.6443L25.5885 37.0818L25.6125 37.0544V32.0326Z" fill="white"/>
<path d="M39.309 22.3789L25.901 37.6131L2.65092 32.8006C2.65092 32.8006 0.519424 32.1983 0.944654 29.9792C1.351 27.8585 3.90096 27.9881 3.90096 27.9881" stroke="#87919F" stroke-width="1.5" stroke-linecap="round"/>
<path d="M25.5438 32.0486L39.0126 17.0883C38.79 16.9415 38.2287 16.7334 38.0306 15.9812C37.8457 15.2789 38.1572 14.1248 38.2783 13.5486L25.2038 27.52L3.75698 23.3585C3.75698 23.3585 1.24332 22.9005 0.837869 24.9522C0.489577 26.7147 2.61579 27.2022 2.61579 27.2022L25.5438 32.0486Z" fill="#D7DADF"/>
<path fill-rule="evenodd" clip-rule="evenodd" d="M25.5679 26.9369L25.2536 27.2834L3.76301 22.982C3.76301 22.982 1.24423 22.5086 0.837959 24.6293C0.488958 26.451 2.63763 27.5486 2.63763 27.5486L25.5438 31.9861L25.5679 31.9587V26.9369Z" fill="white"/>
<path d="M39.2644 17.2832L25.8563 32.5174L2.60624 27.7049C2.60624 27.7049 0.474746 27.1026 0.899977 24.8835C1.30633 22.7628 3.85628 22.8924 3.85628 22.8924" stroke="#87919F" stroke-width="1.5" stroke-linecap="round"/>
<path d="M25.5438 26.8921L39.0126 11.9317C38.79 11.7849 38.2287 11.5769 38.0306 10.8247C37.8457 10.1224 38.1572 8.96823 38.2783 8.39209L25.2038 22.3635L3.75698 18.2019C3.75698 18.2019 1.24332 17.744 0.837869 19.7957C0.489577 21.5581 2.61579 22.0456 2.61579 22.0456L25.5438 26.8921Z" fill="#D7DADF"/>
<path fill-rule="evenodd" clip-rule="evenodd" d="M25.5679 21.7804L25.2536 22.1268L3.76301 17.8254C3.76301 17.8254 1.24423 17.3521 0.837959 19.4727C0.488958 21.2944 2.63763 22.3921 2.63763 22.3921L25.5438 26.8296L25.5679 26.8021V21.7804Z" fill="white"/>
<path d="M39.2644 12.1266L25.8563 27.3608L2.60624 22.5483C2.60624 22.5483 0.474746 21.946 0.899977 19.7268C1.30633 17.6062 3.85628 17.7358 3.85628 17.7358" stroke="#87919F" stroke-width="1.5" stroke-linecap="round"/>
<path d="M15.1923 3.42945C15.4857 3.10442 15.9279 2.95664 16.3578 3.0399L37.9343 7.21828C38.1251 7.25522 38.2026 7.48612 38.0729 7.63071L25.2732 21.8915L2.53419 17.4502L15.1923 3.42945Z" fill="#D8E4FF" stroke="#87919F" stroke-width="1.5"/>
<path d="M17.6664 7.19087C17.7847 7.06566 17.9592 7.01019 18.1281 7.04407L28.405 9.10544C28.7902 9.1827 28.9399 9.65359 28.6701 9.93911L27.3129 11.3751C27.1946 11.5003 27.0201 11.5558 26.8512 11.5219L16.5743 9.46054C16.1891 9.38328 16.0394 8.91239 16.3093 8.62687L17.6664 7.19087Z" fill="#6391FF"/>
</svg>
