<svg width="130" height="130" viewBox="0 0 130 130" fill="none" xmlns="http://www.w3.org/2000/svg">
<path fill-rule="evenodd" clip-rule="evenodd" d="M48.6471 22.3424C49.8757 23.2024 52.6648 24.4604 54.981 24.562H121.472C125.488 24.562 128.743 27.8173 128.743 31.8328V109.896C128.743 113.911 125.488 117.166 121.472 117.166H9.18434C5.16879 117.166 1.91355 113.911 1.91355 109.896V26.0581C1.91324 26.0309 1.91309 26.0037 1.91309 25.9764V21.6437C1.91309 17.7777 5.04709 14.6437 8.91309 14.6437H34.9519C35.0793 14.6437 35.2058 14.6471 35.3315 14.6538V14.6437C39.0142 14.6437 41.077 16.307 42.8847 17.7646C43.0413 17.8908 43.196 18.0155 43.3496 18.1375C44.0805 18.7177 44.7943 19.2991 45.4683 19.8482L45.4687 19.8485C46.7102 20.8599 47.8168 21.7613 48.6471 22.3424Z" fill="#B1C8FF"/>
<rect x="1.91309" y="37.8544" width="126.829" height="79.2683" rx="7.27079" fill="url(#paint0_linear_4520_296)"/>
<path d="M108.854 93.4157C108.854 91.7004 110.244 90.3098 111.959 90.3098V90.3098C113.675 90.3098 115.065 91.7004 115.065 93.4157V96.0267H108.854V93.4157Z" stroke="#485674" stroke-width="2"/>
<path fill-rule="evenodd" clip-rule="evenodd" d="M108 95.0562C106.895 95.0562 106 95.9516 106 97.0562V104.31C106 105.414 106.895 106.31 108 106.31H115.92C117.025 106.31 117.92 105.414 117.92 104.31V97.0562C117.92 95.9516 117.025 95.0562 115.92 95.0562H108ZM113.368 99.8461C113.368 100.422 113.023 100.916 112.529 101.135V102.341C112.529 102.665 112.266 102.928 111.941 102.928C111.617 102.928 111.354 102.665 111.354 102.341V101.118C110.879 100.892 110.551 100.407 110.551 99.8461C110.551 99.0682 111.182 98.4376 111.96 98.4376C112.738 98.4376 113.368 99.0682 113.368 99.8461Z" fill="#485674"/>
<defs>
<linearGradient id="paint0_linear_4520_296" x1="65.3277" y1="0.598274" x2="65.3277" y2="99.6836" gradientUnits="userSpaceOnUse">
<stop stop-color="#8FAAEA"/>
<stop offset="1" stop-color="#B1C8FF"/>
</linearGradient>
</defs>
</svg>
