<svg width="18" height="19" viewBox="0 0 18 19" fill="none" xmlns="http://www.w3.org/2000/svg">
<g id="Icon / Publisher">
<path id="Union" fill-rule="evenodd" clip-rule="evenodd" d="M15.2762 3.32367L9.66854 5.14826L9.66854 14.8911L15.2762 13.0665V3.32367ZM8.43852 5.18567C8.48805 5.2018 8.5381 5.21573 8.58854 5.22745V14.9771L2.72414 13.0668V3.3242L8.43852 5.18567ZM2.58715 2.14371C2.12184 1.99214 1.64414 2.33894 1.64414 2.82831V4.85789L1.63954 4.85773L0.72 4.86876C0.322355 4.86876 0 5.19112 0 5.58876V15.6688C0 16.0664 0.322355 16.3888 0.72 16.3888H17.28C17.6776 16.3888 18 16.0664 18 15.6688V5.58876C18 5.19112 17.6776 4.86876 17.28 4.86876L16.3562 4.86338V5.9457L16.92 5.94876V15.3088H11.8755L15.8589 14.0126C16.1554 13.9161 16.3562 13.6398 16.3562 13.328V2.82795C16.3562 2.33869 15.8786 1.9919 15.4134 2.14329L9.21881 4.15885C9.07395 4.20599 8.91788 4.20596 8.77303 4.15878L2.58715 2.14371ZM6.11968 15.3088L2.14113 14.0127C1.84474 13.9162 1.64414 13.6399 1.64414 13.3281V5.94242L1.62835 5.94236L1.08 5.94876V15.3088H6.11968Z" fill="#87919F"/>
</g>
</svg>
