<svg width="22" height="20" viewBox="0 0 22 20" fill="none" xmlns="http://www.w3.org/2000/svg">
<path d="M20.6348 10.9426L13.9308 18.5597L2.30574 16.1534C2.30574 16.1534 1.24 15.8523 1.45261 14.7427C1.65579 13.6824 2.93076 13.7472 2.93076 13.7472" stroke="#1F283A" stroke-linecap="round"/>
<path d="M20.6125 8.39471L13.9084 16.0118L2.28341 13.6056C2.28341 13.6056 1.21766 13.3044 1.43027 12.1948C1.63345 11.1345 2.90843 11.1993 2.90843 11.1993" stroke="#1F283A" stroke-linecap="round"/>
<path d="M20.6125 5.81647L13.9084 13.4336L2.28341 11.0273C2.28341 11.0273 1.21766 10.7262 1.43027 9.6166C1.63345 8.55628 2.90843 8.62108 2.90843 8.62108" stroke="#1F283A" stroke-linecap="round"/>
<path d="M8.29095 1.97062C8.64308 1.58058 9.17363 1.40325 9.68952 1.50315L19.0569 3.31719C19.4384 3.39107 19.5935 3.85286 19.334 4.14205L13.5712 10.5626L2.48826 8.39797L8.29095 1.97062Z" stroke="#1F283A"/>
<path d="M9.7183 3.44921C9.83663 3.324 10.0111 3.26853 10.18 3.30241L14.7401 4.21709C15.1253 4.29435 15.275 4.76524 15.0052 5.05076L14.7318 5.34007C14.6134 5.46528 14.439 5.52075 14.27 5.48687L9.70993 4.57219C9.32474 4.49492 9.17503 4.02403 9.44487 3.73851L9.7183 3.44921Z" fill="#1F283A"/>
</svg>
