<svg width="20" height="20" viewBox="0 0 20 20" fill="none" xmlns="http://www.w3.org/2000/svg">
<path d="M1.70021 6.81019C1.58597 7.12124 1.74553 7.46601 2.05658 7.58025C2.36764 7.69448 2.71241 7.53493 2.82665 7.22387L1.70021 6.81019ZM13.5305 8.06086C13.1991 8.06086 12.9305 8.32949 12.9305 8.66086C12.9305 8.99224 13.1991 9.26086 13.5305 9.26086V8.06086ZM19.1149 3.66232C19.1149 3.33095 18.8463 3.06232 18.5149 3.06232C18.1835 3.06232 17.9149 3.33095 17.9149 3.66232H19.1149ZM18.5149 8.66086V9.26086C18.8463 9.26086 19.1149 8.99224 19.1149 8.66086H18.5149ZM2.82665 7.22387C3.89043 4.32728 6.67319 2.26232 9.93672 2.26232V1.06232C6.15394 1.06232 2.93187 3.45647 1.70021 6.81019L2.82665 7.22387ZM9.93672 2.26232C13.7489 2.26232 16.9039 5.08006 17.4311 8.74626L18.6189 8.57547C18.008 4.32704 14.3541 1.06232 9.93672 1.06232V2.26232ZM18.025 8.06086H13.5305V9.26086H18.025V8.06086ZM17.9149 3.66232V8.66086H19.1149V3.66232H17.9149ZM18.5149 8.06086H18.025V9.26086H18.5149V8.06086Z" fill="#2B3242"/>
<path d="M18.3281 13.2005C18.4423 12.8894 18.2828 12.5447 17.9717 12.4304C17.6607 12.3162 17.3159 12.4758 17.2017 12.7868L18.3281 13.2005ZM6.4978 11.9498C6.82917 11.9498 7.0978 11.6812 7.0978 11.3498C7.0978 11.0184 6.82917 10.7498 6.4978 10.7498L6.4978 11.9498ZM0.913427 16.3484C0.913427 16.6797 1.18206 16.9484 1.51343 16.9484C1.8448 16.9484 2.11343 16.6797 2.11343 16.3484L0.913427 16.3484ZM1.51343 11.3498V10.7498C1.18206 10.7498 0.913427 11.0184 0.913427 11.3498H1.51343ZM17.2017 12.7868C16.1379 15.6834 13.3551 17.7484 10.0916 17.7484V18.9484C13.8744 18.9484 17.0965 16.5542 18.3281 13.2005L17.2017 12.7868ZM10.0916 17.7484C6.27945 17.7484 3.12438 14.9306 2.59722 11.2644L1.40944 11.4352C2.02031 15.6836 5.67418 18.9484 10.0916 18.9484V17.7484ZM2.00333 11.9498H6.4978L6.4978 10.7498H2.00333L2.00333 11.9498ZM2.11343 16.3484V11.3498H0.913427V16.3484L2.11343 16.3484ZM1.51343 11.9498H2.00333L2.00333 10.7498H1.51343V11.9498Z" fill="#2B3242"/>
</svg>
