<svg width="490" height="326" viewBox="0 0 490 326" fill="none" xmlns="http://www.w3.org/2000/svg">
<g opacity="0.04" clip-path="url(#clip0_7226_220701)">
<path d="M9.96585 301.227C5.58184 304.139 5.3027 308.793 6.39683 311.893C7.49096 314.992 10.629 318.443 15.8729 317.966L292.026 292.88C292.375 292.77 292.735 292.741 293.078 292.785L297.444 292.389C295.797 263.844 285.266 233.999 278.905 215.973C273.096 199.514 259.741 161.674 245.544 144.721L9.96585 301.227Z" fill="#9C9C9C"/>
<path d="M297.443 292.388C295.798 263.846 285.265 234 278.904 215.973C274.068 202.27 264.004 173.751 252.575 154.803C250.277 150.988 247.924 147.563 245.544 144.723L9.967 301.227C5.58085 304.139 5.30385 308.792 6.39797 311.89C7.4921 314.991 10.629 318.442 15.874 317.964L292.027 292.88C292.376 292.77 292.736 292.742 293.08 292.784L297.444 292.387" fill="#9C9C9C"/>
<path d="M294.748 300.59C295.097 300.48 295.457 300.453 295.802 300.495L300.165 300.098L294.748 300.59Z" fill="#9C9C9C"/>
<path d="M235.888 130.188L240.159 142.29L244.596 139.342C245.624 138.659 246.997 138.825 247.83 139.735C261.486 154.622 274.134 187.41 283.628 214.311C290.26 233.103 301.36 264.558 302.565 294.563C302.618 295.894 301.617 297.034 300.289 297.155L296.223 297.524L301.088 311.308L321.461 317.75L248.004 109.275L235.887 130.19" fill="#9C9C9C"/>
<path d="M264.409 100.393L251.755 104.847L327.021 318.457L339.78 313.966L264.409 100.393Z" fill="#9C9C9C"/>
<path d="M252.575 154.803L186.792 195.682L183.383 186.019L245.544 144.723C247.923 147.563 250.275 150.988 252.575 154.803ZM149.626 218.781L89.6588 256.047L87.4395 249.759L146.671 210.407L149.626 218.78M52.5172 279.128L19.1511 299.864C14.7671 302.776 5.30493 308.792 6.39799 311.89C5.30493 308.792 5.58087 304.139 9.96701 301.227L50.7525 274.132L52.5161 279.13" fill="#BABABA"/>
<path d="M50.7524 274.131L64.6585 313.534L108.54 309.549L87.4395 249.758L50.7524 274.131Z" fill="#EFEFEF"/>
<path d="M248.005 109.273L269.306 169.724L269.353 169.857L248.005 109.273Z" fill="#FBFBFB"/>
<path d="M248.005 109.273L235.888 130.188L237.187 133.866C241.088 126.538 247.688 108.526 269.305 169.724L248.004 109.273" fill="#BABABA"/>
<path d="M265.731 104.137L264.409 100.393L251.755 104.847L287.549 206.429L259.686 116.124C258.153 111.156 260.821 105.865 265.731 104.136" fill="#BABABA"/>
<path d="M299.636 255.809C299.681 255.935 299.725 256.062 299.77 256.187L299.636 255.809ZM299.77 256.187L321.462 317.751L299.773 256.197L299.77 256.188M300.816 297.05C300.648 297.104 300.472 297.14 300.29 297.156C300.469 297.123 300.643 297.087 300.816 297.05Z" fill="#C7C7C7"/>
<path d="M299.773 256.195C311.324 289.032 308.793 295.336 300.816 297.048C300.648 297.102 300.472 297.138 300.29 297.154L296.225 297.523L301.089 311.307L321.462 317.749L299.773 256.195Z" fill="#818181"/>
<path d="M320.579 300.172L320.569 300.175L327.021 318.456L320.578 300.172" fill="#C7C7C7"/>
<path d="M339.78 313.965L290.984 175.695C308.324 224.832 331.226 296.375 320.579 300.172L327.022 318.456L339.781 313.965" fill="#818181"/>
<path d="M146.671 210.407L179.387 303.112L223.299 299.124L183.383 186.018L146.671 210.407Z" fill="#EFEFEF"/>
<path d="M277.592 212.267C277.589 212.258 277.585 212.246 277.58 212.237C277.585 212.246 277.589 212.257 277.592 212.267Z" fill="#818181"/>
<path d="M278.904 215.972C285.265 233.999 295.798 263.845 297.443 292.388L293.079 292.784C292.735 292.742 292.375 292.77 292.026 292.88L223.298 299.124L217.321 282.188L217.682 282.13C258.942 275.598 284.574 233.403 270.81 194.012L270.704 193.708C270.596 193.402 270.486 193.096 270.374 192.787C273.022 199.562 275.324 205.893 277.16 211.05L277.162 211.058L277.187 211.126L277.2 211.163L277.203 211.172L277.234 211.259L277.242 211.282L277.25 211.305C277.315 211.487 277.38 211.669 277.444 211.848L277.453 211.875L277.582 212.238C277.586 212.247 277.59 212.258 277.593 212.268L277.644 212.409L277.653 212.435L277.67 212.484L277.673 212.489L277.697 212.559L277.701 212.572L277.721 212.627L277.731 212.656L277.765 212.751L277.769 212.763L277.777 212.789L277.784 212.806C277.818 212.9 277.851 212.993 277.884 213.087L277.897 213.124L277.993 213.398L277.998 213.411L278.015 213.46L278.024 213.487L278.048 213.554L278.05 213.56L278.095 213.686L278.122 213.763C278.149 213.84 278.175 213.915 278.203 213.992L278.216 214.027L278.227 214.058L278.236 214.085L278.259 214.148L278.305 214.278L278.311 214.296L278.357 214.426L278.365 214.448L278.395 214.532L278.42 214.605L278.453 214.699L278.482 214.781L278.499 214.83L278.529 214.916L278.577 215.052L278.647 215.251L278.687 215.363L278.901 215.974M179.385 303.114L108.537 309.551L105.149 299.95L174.399 288.986L179.385 303.114ZM64.6553 313.535L15.8708 317.966C10.6258 318.445 7.4889 314.994 6.39478 311.893C7.4889 314.994 19.0676 313.227 24.3126 312.751L62.2574 306.742L64.6553 313.537" fill="#818181"/>
<path d="M108.54 309.549L105.152 299.947L62.2605 306.74L64.6584 313.534L108.539 309.548" fill="#BFBFBF"/>
<path d="M223.299 299.124L217.321 282.188L174.401 288.983L179.387 303.112L223.298 299.123" fill="#BFBFBF"/>
<path d="M181.205 187.465L179.775 188.414L181.205 187.465Z" fill="white"/>
<path d="M181.205 187.465L179.775 188.414L178.791 189.069L181.205 187.465Z" fill="#DDDDDD"/>
<path d="M200.27 241.486L181.205 187.465L178.791 189.069L148.853 208.959L152.103 218.17C161.102 211.39 181.733 188.96 200.27 241.485" fill="white"/>
<path d="M99.1304 290.598L85.234 251.223L52.8401 272.746L54.6123 277.768C77.465 263.705 91.0908 267.817 99.1304 290.6" fill="white"/>
<path d="M245.38 145.833L10.4279 301.921C6.44708 304.566 6.14227 308.663 7.18506 311.616C8.22678 314.568 11.0375 317.57 15.798 317.137L296.561 291.632C294.774 263.449 284.404 234.066 278.117 216.25C272.389 200.017 259.299 162.928 245.38 145.832V145.833ZM284.417 214.034C291.065 232.872 302.191 264.399 303.4 294.529C303.471 296.304 302.137 297.824 300.366 297.984L16.4023 323.78C9.44391 324.412 3.20855 320.416 0.885525 313.833C-1.43749 307.251 0.911194 300.233 6.72944 296.368L244.135 138.648C245.505 137.738 247.335 137.96 248.447 139.172C262.205 154.17 274.896 187.058 284.416 214.034H284.417Z" fill="#242424"/>
<path d="M346.125 314.384L269.088 96.0935C268.476 94.3567 266.568 93.4435 264.829 94.0555L247.452 100.172C246.701 100.436 246.07 100.96 245.671 101.648L230.253 128.263C229.764 129.106 229.67 130.122 229.994 131.041L235.718 147.261C236.331 148.998 238.239 149.911 239.978 149.299C241.718 148.686 242.632 146.781 242.018 145.043L236.805 130.273L250.836 106.053L263.9 101.455L338.716 313.455L325.436 318.129L301.74 310.637L295.924 294.156C295.311 292.418 293.403 291.506 291.664 292.118C289.924 292.73 289.011 294.636 289.625 296.374L295.995 314.423C296.343 315.411 297.137 316.177 298.136 316.494L324.485 324.826C325.176 325.044 325.919 325.033 326.602 324.792L344.087 318.638C345.826 318.026 346.74 316.121 346.126 314.383L346.125 314.384Z" fill="#242424"/>
<path d="M251.711 102.21C251.098 100.474 249.192 99.5613 247.452 100.172C245.713 100.784 244.798 102.689 245.41 104.426L322.339 322.755V322.757C322.953 324.494 324.859 325.406 326.598 324.795C328.337 324.183 329.252 322.279 328.64 320.542L251.711 102.212V102.21Z" fill="#242424"/>
<path d="M84.8565 252.475L53.9065 273.037L67.7933 312.386L104.821 309.047L84.8565 252.475ZM112.548 310.875C112.89 311.845 112.765 312.919 112.208 313.786C111.651 314.652 110.725 315.212 109.699 315.305L65.8071 319.263C64.2852 319.401 62.8649 318.488 62.3568 317.051L46.7428 272.807C46.2347 271.368 46.7695 269.767 48.0433 268.922L84.7303 244.549C85.587 243.978 86.6608 243.836 87.6373 244.162C88.6149 244.489 89.386 245.246 89.7293 246.217L112.548 310.875Z" fill="#242424"/>
<path d="M180.801 188.735L149.826 209.313L182.532 301.99L219.581 298.624L180.801 188.735ZM227.307 300.448C227.649 301.419 227.524 302.493 226.968 303.359C226.411 304.224 225.486 304.786 224.459 304.879L180.548 308.869C179.026 309.006 177.605 308.096 177.097 306.655L142.663 209.083C142.155 207.643 142.69 206.043 143.963 205.197L180.675 180.809C181.532 180.238 182.605 180.096 183.583 180.422C184.559 180.748 185.331 181.506 185.675 182.476L227.308 300.448H227.307Z" fill="#242424"/>
<path d="M362.494 13.7406C363.787 8.64341 368.089 6.83398 371.38 6.83398C374.67 6.83398 378.972 8.64341 380.265 13.7406L448.37 282.19C448.382 282.557 448.474 282.904 448.63 283.213L449.707 287.457C422.203 295.395 390.518 295.396 371.38 295.396C353.906 295.396 313.732 295.395 293.002 287.657L362.494 13.7406Z" fill="#9C9C9C"/>
<path d="M449.706 287.457C422.204 295.395 390.518 295.395 371.379 295.395C356.831 295.395 326.553 295.395 304.86 290.93C300.494 290.032 296.477 288.955 293.004 287.658L362.495 13.7425C363.787 8.64323 368.089 6.83594 371.379 6.83594C374.668 6.83594 378.972 8.64323 380.264 13.7425L448.37 282.191C448.383 282.557 448.476 282.905 448.63 283.215L449.706 287.457Z" fill="#9C9C9C"/>
<path d="M456.555 282.191C456.568 282.558 456.662 282.905 456.816 283.216L457.891 287.457L456.555 282.191Z" fill="#9C9C9C"/>
<path d="M276.068 283.393H288.917L287.608 288.553C287.304 289.748 287.918 290.986 289.054 291.469C307.652 299.383 342.819 300.397 371.38 300.397C391.332 300.397 424.726 300.397 453.462 291.558C454.737 291.166 455.48 289.845 455.153 288.553L454.149 284.601H468.784L481.64 301.649L260.345 301.757L276.068 283.393Z" fill="#9C9C9C"/>
<path d="M257.41 320.161V306.761L484.155 306.65V320.161H257.41Z" fill="#9C9C9C"/>
<path d="M304.86 290.93C300.494 290.032 296.477 288.955 293.004 287.658L311.34 215.38H321.599L304.86 290.93ZM331.058 172.694H322.168L339.642 103.823H346.318L331.058 172.694ZM355.77 61.1657H350.464L362.495 13.7425C363.787 8.64323 368.089 6.83594 371.379 6.83594C368.089 6.83594 365.554 17.748 364.261 22.8452L355.77 61.1657Z" fill="#BABABA"/>
<path d="M350.463 61.166H392.296L403.119 103.823H339.64L350.463 61.166Z" fill="#EFEFEF"/>
<path d="M260.345 301.758L324.513 301.727H324.654L260.345 301.758Z" fill="#FBFBFB"/>
<path d="M260.345 301.757L276.068 283.393H279.974C274.351 289.503 259.535 301.708 324.513 301.726L260.345 301.757Z" fill="#BABABA"/>
<path d="M261.386 320.161H257.41V306.761L365.239 306.709L270.697 310.483C265.496 310.69 261.386 314.961 261.386 320.161Z" fill="#BABABA"/>
<path d="M416.29 301.682H416.301L481.64 301.65L416.29 301.682ZM455.228 289.085C455.205 288.909 455.18 288.733 455.153 288.554C455.198 288.731 455.222 288.908 455.228 289.085Z" fill="#C7C7C7"/>
<path d="M416.301 301.682C451.15 301.647 456.263 297.167 455.228 289.085C455.222 288.908 455.198 288.731 455.153 288.554L454.149 284.602H468.784L481.64 301.65L416.301 301.682Z" fill="#818181"/>
<path d="M464.746 306.66V306.65H484.155L464.746 306.66Z" fill="#C7C7C7"/>
<path d="M484.155 320.161H337.358C389.525 320.161 464.7 317.951 464.746 306.66L484.155 306.65V320.161Z" fill="#818181"/>
<path d="M322.168 172.693H420.591L431.421 215.379H311.339L322.168 172.693Z" fill="#EFEFEF"/>
<path d="M367.444 295.394C367.433 295.394 367.422 295.394 367.412 295.393C367.422 295.394 367.434 295.394 367.444 295.394Z" fill="#818181"/>
<path d="M371.378 295.394H369.274C369.192 295.394 369.112 295.394 369.031 295.394H368.313C368.214 295.394 368.115 295.394 368.015 295.393H367.444C367.434 295.393 367.422 295.393 367.412 295.392H366.998C366.807 295.392 366.615 295.392 366.421 295.39H366.151C360.67 295.374 353.927 295.311 346.648 295.069C346.976 295.072 347.302 295.073 347.626 295.073H347.949C389.724 294.944 421.051 256.774 413.505 215.739L413.44 215.38H431.421L448.37 282.191C448.382 282.557 448.476 282.905 448.63 283.215L449.706 287.457C422.204 295.395 390.518 295.395 371.378 295.395M420.591 172.694H405.591L392.926 103.823H403.119L420.591 172.694ZM392.296 61.1657H385.083L378.144 23.4284C376.851 18.3291 374.67 6.83594 371.378 6.83594C374.67 6.83594 378.972 8.64323 380.264 13.7425L392.295 61.1657" fill="#818181"/>
<path d="M403.119 103.823H392.926L385.083 61.166H392.296L403.118 103.823" fill="#BFBFBF"/>
<path d="M431.421 215.379H413.44L405.591 172.693H420.591L431.42 215.379" fill="#BFBFBF"/>
<path d="M311.981 212.849L312.402 211.186L311.981 212.849Z" fill="white"/>
<path d="M311.981 212.848L312.402 211.185L312.693 210.041L311.981 212.848Z" fill="#DDDDDD"/>
<path d="M369.334 212.848H311.981L312.693 210.041L321.526 175.23H331.304C327.894 185.96 313.569 212.848 369.334 212.848Z" fill="white"/>
<path d="M382.095 101.259H340.29L349.848 63.5918H355.179C349.495 89.7911 357.908 101.259 382.095 101.259Z" fill="white"/>
<path d="M293.997 287.134C314.768 294.562 354.145 294.562 371.38 294.562C390.293 294.562 421.489 294.562 448.698 286.877L379.457 13.946C378.282 9.31777 374.514 7.66856 371.38 7.66856C368.245 7.66856 364.477 9.31777 363.302 13.946L293.997 287.134ZM371.38 301.232C342.74 301.232 307.463 300.21 288.726 292.236C287.212 291.592 286.394 289.942 286.798 288.349L356.829 12.3075C358.544 5.54297 364.392 0.998047 371.38 0.998047C378.368 0.998047 384.215 5.54297 385.93 12.3075L455.961 288.349C456.399 290.071 455.407 291.833 453.707 292.356C424.851 301.232 391.379 301.232 371.38 301.232Z" fill="#242424"/>
<path d="M486.66 325.998H254.906C253.062 325.998 251.565 324.504 251.565 322.663V304.262C251.565 303.468 251.85 302.698 252.368 302.094L272.376 278.724C273.011 277.983 273.939 277.557 274.914 277.557H292.135C293.98 277.557 295.475 279.05 295.475 280.891C295.475 282.733 293.98 284.227 292.135 284.227H276.453L258.245 305.494V319.327H483.32V305.264L468.368 285.435H450.87C449.025 285.435 447.53 283.942 447.53 282.101C447.53 280.259 449.025 278.765 450.87 278.765H470.033C471.082 278.765 472.069 279.257 472.7 280.093L489.327 302.142C489.764 302.72 490 303.424 490 304.148V322.663C490 324.504 488.505 325.998 486.66 325.998Z" fill="#242424"/>
<path d="M254.906 307.598C253.062 307.598 251.566 306.106 251.565 304.265C251.565 302.423 253.06 300.929 254.903 300.928L486.658 300.814H486.66C488.504 300.814 489.999 302.307 490 304.148C490 305.99 488.506 307.484 486.662 307.485L254.908 307.598H254.906Z" fill="#242424"/>
<path d="M341.348 100.487H401.409L392.254 64.5006H350.478L341.348 100.487ZM405.703 107.158H337.057C336.026 107.158 335.054 106.682 334.421 105.871C333.789 105.059 333.566 104 333.82 103.004L344.641 60.3466C345.017 58.8662 346.35 57.8301 347.879 57.8301H394.85C396.378 57.8301 397.711 58.8651 398.087 60.3445L408.939 103.002C409.193 103.999 408.971 105.058 408.339 105.87C407.706 106.682 406.733 107.158 405.703 107.158Z" fill="#242424"/>
<path d="M313.046 212.045H429.713L420.576 176.03H322.183L313.046 212.045ZM434.004 218.716H308.755C307.725 218.716 306.752 218.241 306.12 217.429C305.487 216.616 305.264 215.558 305.518 214.561L316.347 171.875C316.722 170.395 318.056 169.359 319.584 169.359H423.175C424.704 169.359 426.037 170.395 426.412 171.875L437.241 214.561C437.495 215.558 437.272 216.616 436.64 217.429C436.007 218.241 435.035 218.716 434.004 218.716Z" fill="#242424"/>
</g>
<defs>
<clipPath id="clip0_7226_220701">
<rect width="490" height="325" fill="white" transform="translate(0 0.998047)"/>
</clipPath>
</defs>
</svg>
