<svg width="18" height="19" viewBox="0 0 18 19" fill="none" xmlns="http://www.w3.org/2000/svg">
<g clip-path="url(#clip0_3411_83605)">
<path d="M10.2108 9.56929C10.2108 9.56929 10.3527 10.6896 11.174 10.8164C11.174 10.8164 12.0459 11.156 12.5934 11.3081C13.1408 11.4602 13.603 11.7372 13.822 12.7227L13.9999 13.4344C13.2745 14.1735 11.591 15.5422 9.15477 15.5422C6.5926 15.5422 5.14453 14.5704 3.91272 13.2598L4.11802 12.5584C4.39176 11.7235 4.81282 11.4606 5.36031 11.3085C5.9078 11.1564 6.7797 10.8167 6.7797 10.8167C7.60095 10.69 7.74288 9.56969 7.74288 9.56969C7.74288 9.56969 7.06359 9.09824 7.10415 8.26686C7.10415 8.26686 6.91658 8.28207 6.87095 8.04381C6.82533 7.80555 6.71888 7.37972 6.71888 7.37972C6.67022 7.07962 6.82027 6.92348 6.90138 6.88293V5.90454C6.90138 4.281 8.2604 3.7701 9.05814 3.76464L9.05826 3.75781C9.58525 3.75781 10.455 3.82571 10.6071 4.67736C10.9568 4.92576 11.0523 5.35265 11.0523 5.90414V6.88253C11.1334 6.92308 11.2834 7.07922 11.2348 7.37933C11.2348 7.37933 11.1283 7.80515 11.0827 8.04341C11.0371 8.28167 10.8495 8.26647 10.8495 8.26647C10.8901 9.09784 10.2108 9.56929 10.2108 9.56929Z" fill="#87919F"/>
<ellipse cx="8.95627" cy="9.44834" rx="7.65" ry="7.65" stroke="#87919F" stroke-width="1.2"/>
</g>
<defs>
<clipPath id="clip0_3411_83605">
<rect width="18" height="18" fill="white" transform="translate(0 0.248047)"/>
</clipPath>
</defs>
</svg>
