<svg width="21" height="21" viewBox="0 0 21 21" fill="none" xmlns="http://www.w3.org/2000/svg">
<path d="M11.3755 10.426C11.3755 10.426 11.5332 11.6708 12.4457 11.8116C12.4457 11.8116 13.4145 12.189 14.0228 12.358C14.6312 12.5269 15.1446 12.8348 15.388 13.9297L15.5857 14.7205C14.7797 15.5417 12.9091 17.0625 10.2022 17.0625C7.35533 17.0625 5.74637 15.9828 4.37769 14.5265L4.6058 13.7472C4.90995 12.8196 5.3778 12.5274 5.98612 12.3584C6.59445 12.1894 7.56322 11.812 7.56322 11.812C8.47572 11.6712 8.63342 10.4264 8.63342 10.4264C8.63342 10.4264 7.87865 9.90259 7.92371 8.97884C7.92371 8.97884 7.71531 8.99573 7.66461 8.731C7.61392 8.46627 7.49564 7.99313 7.49564 7.99313C7.44157 7.65968 7.6083 7.48619 7.69841 7.44113V6.35403C7.69841 4.55011 9.20844 3.98244 10.0948 3.97637L10.095 3.96878C10.6805 3.96878 11.6469 4.04422 11.8158 4.9905C12.2045 5.2665 12.3105 5.74082 12.3105 6.35359V7.44069C12.4007 7.48575 12.5674 7.65923 12.5133 7.99269C12.5133 7.99269 12.395 8.46583 12.3443 8.73056C12.2936 8.99529 12.0852 8.97839 12.0852 8.97839C12.1303 9.90214 11.3755 10.426 11.3755 10.426Z" fill="#2B3242"/>
<circle cx="9.98169" cy="10.2914" r="8.5" stroke="#2B3242" stroke-width="1.2"/>
</svg>
