<svg width="53" height="53" viewBox="0 0 53 53" fill="none" xmlns="http://www.w3.org/2000/svg">
<rect width="53" height="53" fill="#E5E5E5"/>
<path d="M-42891 -848C-42891 -849.105 -42890.1 -850 -42889 -850H12715C12716.1 -850 12717 -849.105 12717 -848V1156C12717 1157.1 12716.1 1158 12715 1158H-42889C-42890.1 1158 -42891 1157.1 -42891 1156V-848Z" fill="#D4D4D4"/>
<g clip-path="url(#clip0_1873_41629)">
<rect width="1920" height="1319" transform="translate(-1091 -461)" fill="white"/>
<circle cx="26.5" cy="26.5" r="24.91" stroke="#1F283A" stroke-width="3.18"/>
<path d="M26.474 30.9763L23.415 13.8711L29.3672 13.8711L26.474 30.9763Z" fill="#1F283A" stroke="#1F283A" stroke-width="2.65" stroke-linecap="round" stroke-linejoin="round"/>
<circle cx="26.3898" cy="38.0792" r="2.98354" fill="#1F283A"/>
</g>
<path d="M-42889 -849H12715V-851H-42889V-849ZM12716 -848V1156H12718V-848H12716ZM12715 1157H-42889V1159H12715V1157ZM-42890 1156V-848H-42892V1156H-42890ZM-42889 1157C-42889.6 1157 -42890 1156.55 -42890 1156H-42892C-42892 1157.66 -42890.7 1159 -42889 1159V1157ZM12716 1156C12716 1156.55 12715.6 1157 12715 1157V1159C12716.7 1159 12718 1157.66 12718 1156H12716ZM12715 -849C12715.6 -849 12716 -848.553 12716 -848H12718C12718 -849.656 12716.7 -851 12715 -851V-849ZM-42889 -851C-42890.7 -851 -42892 -849.657 -42892 -848H-42890C-42890 -848.552 -42889.6 -849 -42889 -849V-851Z" fill="black" fill-opacity="0.1"/>
<defs>
<clipPath id="clip0_1873_41629">
<rect width="1920" height="1319" fill="white" transform="translate(-1091 -461)"/>
</clipPath>
</defs>
</svg>
