<svg width="18" height="18" viewBox="0 0 18 18" fill="none" xmlns="http://www.w3.org/2000/svg">
<g clip-path="url(#clip0_501_56725)">
<path d="M12.2069 10.5894L9.69715 8.70714V4.87293C9.69715 4.48741 9.38553 4.17578 9 4.17578C8.61448 4.17578 8.30286 4.48741 8.30286 4.87293V9.05575C8.30286 9.27534 8.40604 9.48241 8.58172 9.61347L11.3702 11.7049C11.4957 11.799 11.6421 11.8443 11.7878 11.8443C12.0004 11.8443 12.2096 11.7488 12.3462 11.5647C12.5778 11.2573 12.515 10.8202 12.2069 10.5894Z" fill="#1F283A"/>
<path d="M9 0C4.0371 0 0 4.0371 0 9C0 13.9629 4.0371 18 9 18C13.9629 18 18 13.9629 18 9C18 4.0371 13.9629 0 9 0ZM9 16.6057C4.80674 16.6057 1.39426 13.1933 1.39426 9C1.39426 4.80674 4.80674 1.39426 9 1.39426C13.194 1.39426 16.6057 4.80674 16.6057 9C16.6057 13.1933 13.1933 16.6057 9 16.6057Z" fill="#1F283A"/>
</g>
<defs>
<clipPath id="clip0_501_56725">
<rect width="18" height="18" fill="white"/>
</clipPath>
</defs>
</svg>
