<svg width="14" height="14" viewBox="0 0 14 14" fill="none" xmlns="http://www.w3.org/2000/svg">
<g clip-path="url(#clip0_14357_152374)">
<path d="M3.5 0.875V0H0.4375C0.195863 0 0 0.195863 0 0.4375V3.5H0.875V1.49188L4.93937 5.55625L5.55625 4.93937L1.49188 0.875H3.5Z" fill="#485674"/>
<path d="M13.5626 0H10.5001V0.875H12.5082L8.44385 4.93937L9.06072 5.55625L13.1251 1.49188V3.5H14.0001V0.4375C14.0001 0.195863 13.8042 0 13.5626 0Z" fill="#485674"/>
<path d="M13.1251 12.5077L9.06072 8.44336L8.44385 9.06023L12.5082 13.1246H10.5001V13.9996H13.5626C13.8042 13.9996 14.0001 13.8037 14.0001 13.5621V10.4996H13.1251V12.5077Z" fill="#485674"/>
<path d="M4.93937 8.43945L0.875 12.5082V10.5001H0V13.5626C0 13.8042 0.195863 14.0001 0.4375 14.0001H3.5V13.1251H1.49188L5.55625 9.0607L4.93937 8.43945Z" fill="#485674"/>
</g>
<defs>
<clipPath id="clip0_14357_152374">
<rect width="14" height="14" fill="white"/>
</clipPath>
</defs>
</svg>
