<svg width="18" height="18" viewBox="0 0 18 18" fill="none" xmlns="http://www.w3.org/2000/svg">
<g id="002-magnifying-glass-1" clip-path="url(#clip0_14357_152252)">
<g id="Group">
<path id="Vector" d="M17.2218 16.9949L12.0619 11.6288C13.3394 10.3979 14.1365 8.67199 14.1365 6.76209C14.1365 3.03348 11.1031 0 7.37439 0C3.64571 0 0.612305 3.0334 0.612305 6.76209C0.612305 10.4907 3.64571 13.5242 7.37439 13.5242C8.76544 13.5242 10.0596 13.1016 11.1358 12.3785L16.366 17.8179C16.4826 17.939 16.6382 18.0001 16.794 18.0001C16.942 18.0001 17.0903 17.9451 17.2053 17.8343C17.4417 17.607 17.4491 17.2312 17.2218 16.9949ZM1.79961 6.76209C1.79961 3.68816 4.30047 1.1873 7.37439 1.1873C10.4483 1.1873 12.9492 3.68816 12.9492 6.76209C12.9492 9.83602 10.4483 12.3369 7.37439 12.3369C4.30047 12.3368 1.79961 9.83602 1.79961 6.76209Z" fill="#485674"/>
<path id="Vector_2" d="M10.4016 6.16809H7.96778V3.73428C7.96778 3.40634 7.70206 3.14062 7.37413 3.14062C7.04619 3.14062 6.78048 3.40634 6.78048 3.73428V6.16809H4.34658C4.01865 6.16809 3.75293 6.43381 3.75293 6.76174C3.75293 7.08968 4.01865 7.35539 4.34658 7.35539H6.7804V9.78929C6.7804 10.1172 7.04611 10.3829 7.37405 10.3829C7.70198 10.3829 7.9677 10.1172 7.9677 9.78929V7.35539H10.4015C10.7294 7.35539 10.9952 7.08968 10.9952 6.76174C10.9952 6.43381 10.7294 6.16809 10.4016 6.16809Z" fill="#485674"/>
</g>
</g>
<defs>
<clipPath id="clip0_14357_152252">
<rect width="18" height="18" fill="white"/>
</clipPath>
</defs>
</svg>
