<svg width="18" height="18" viewBox="0 0 18 18" fill="none" xmlns="http://www.w3.org/2000/svg">
<g id="001-magnifying-glass" clip-path="url(#clip0_14357_152256)">
<g id="Group">
<path id="Vector" d="M17.2217 16.9949L12.0619 11.6288C13.3393 10.398 14.1364 8.67199 14.1364 6.76209C14.1364 3.0334 11.1029 0 7.3744 0C3.64571 0 0.612305 3.0334 0.612305 6.76209C0.612305 10.4907 3.64571 13.5242 7.3744 13.5242C8.76544 13.5242 10.0594 13.1016 11.1356 12.3786L16.3659 17.8179C16.4825 17.939 16.6381 18.0001 16.7939 18.0001C16.9419 18.0001 17.0902 17.9451 17.2053 17.8343C17.4416 17.607 17.449 17.2312 17.2217 16.9949ZM1.79961 6.76209C1.79961 3.68816 4.30047 1.1873 7.3744 1.1873C10.4483 1.1873 12.9491 3.68816 12.9491 6.76209C12.9491 9.83602 10.4483 12.3369 7.3744 12.3369C4.30047 12.3368 1.79961 9.83602 1.79961 6.76209Z" fill="#485674"/>
<path id="Vector_2" d="M10.4014 6.16797H4.34658C4.01865 6.16797 3.75293 6.43369 3.75293 6.76162C3.75293 7.08955 4.01865 7.35527 4.34658 7.35527H10.4014C10.7294 7.35527 10.9951 7.08955 10.9951 6.76162C10.9951 6.43369 10.7294 6.16797 10.4014 6.16797Z" fill="#485674"/>
</g>
</g>
<defs>
<clipPath id="clip0_14357_152256">
<rect width="18" height="18" fill="white"/>
</clipPath>
</defs>
</svg>
