<svg width="17" height="17" viewBox="0 0 17 17" fill="none" xmlns="http://www.w3.org/2000/svg">
<g id="Layer_1" clip-path="url(#clip0_7856_216265)">
<path id="Vector" d="M1.60708 1.97716C1.60708 2.07383 1.60708 2.14696 1.60708 2.22009C1.60708 3.20034 1.61159 4.18108 1.60508 5.16133C1.60107 5.73685 1.08014 6.11503 0.553197 5.93771C0.250656 5.83603 0.0207453 5.55753 0.0192426 5.23746C0.0132318 4.10144 0.00171126 2.96442 0.0262551 1.82839C0.0427847 1.08857 0.719494 0.412871 1.46032 0.396842C2.59635 0.372298 3.73338 0.380814 4.86991 0.390831C5.28715 0.394338 5.61123 0.762994 5.61023 1.18324C5.60923 1.6095 5.27714 1.96814 4.84587 1.97265C3.85309 1.98267 2.85982 1.97716 1.86654 1.97766C1.79191 1.97766 1.71728 1.97766 1.60658 1.97766L1.60708 1.97716Z" fill="white"/>
<path id="Vector_2" d="M14.4158 1.97573C14.3097 1.97573 14.2355 1.97573 14.1614 1.97573C13.1746 1.97573 12.1879 1.97823 11.2011 1.97272C10.8525 1.97072 10.5665 1.75734 10.4568 1.44428C10.3461 1.12722 10.4322 0.766573 10.7077 0.569722C10.842 0.473551 11.0233 0.393909 11.1846 0.391905C12.29 0.37738 13.3955 0.372371 14.501 0.390904C15.3134 0.404428 15.9877 1.08163 16.0017 1.89659C16.0202 2.99554 16.0127 4.0945 16.0062 5.19346C16.0037 5.63825 15.6505 5.97635 15.2178 5.97836C14.7775 5.98086 14.4224 5.63825 14.4193 5.18394C14.4123 4.19718 14.4168 3.21043 14.4163 2.22417C14.4163 2.15054 14.4163 2.07691 14.4163 1.97623L14.4158 1.97573Z" fill="white"/>
<path id="Vector_3" d="M1.60675 14.7819C1.70593 14.7819 1.77906 14.7819 1.85219 14.7819C2.83895 14.7819 3.82572 14.7794 4.81248 14.7844C5.16461 14.7859 5.44811 14.9918 5.56182 15.3054C5.67652 15.6224 5.59438 15.9826 5.32089 16.1819C5.18715 16.2796 5.00683 16.3628 4.84604 16.3648C3.72804 16.3793 2.61004 16.3858 1.49255 16.3648C0.713656 16.3502 0.0369466 15.668 0.0229216 14.8881C0.00288575 13.7772 0.0103992 12.6652 0.0174117 11.5537C0.0204171 11.1124 0.381562 10.7768 0.815838 10.7793C1.24911 10.7818 1.59974 11.1194 1.60325 11.5652C1.61126 12.552 1.60625 13.5387 1.60675 14.525C1.60675 14.5996 1.60675 14.6737 1.60675 14.7819Z" fill="white"/>
<path id="Vector_4" d="M14.4158 14.7828C14.4158 14.6846 14.4158 14.6115 14.4158 14.5384C14.4158 13.5581 14.4113 12.5774 14.4178 11.5971C14.4213 11.0296 14.9282 10.6544 15.4526 10.8177C15.7657 10.9154 16.0016 11.1949 16.0031 11.5235C16.0096 12.66 16.0216 13.797 15.9956 14.9326C15.9786 15.6804 15.2938 16.3501 14.5415 16.3646C13.4175 16.3867 12.293 16.3786 11.169 16.3701C10.7397 16.3666 10.4101 16.0015 10.4121 15.5747C10.4141 15.1485 10.7467 14.7913 11.178 14.7873C12.1708 14.7778 13.164 14.7833 14.1573 14.7823C14.2319 14.7823 14.3061 14.7823 14.4153 14.7823L14.4158 14.7828Z" fill="white"/>
<rect id="Rectangle 1542" width="5.91204" height="1.57331" rx="0.786654" transform="matrix(0.707109 0.707105 -0.707109 0.707105 1.72241 0.964844)" fill="white"/>
<rect id="Rectangle 1543" width="5.91204" height="1.57331" rx="0.786654" transform="matrix(0.707109 0.707105 -0.707109 0.707105 11.1921 10.3184)" fill="white"/>
<rect id="Rectangle 1544" width="5.91204" height="1.57331" rx="0.786654" transform="matrix(0.707109 -0.707105 0.707109 0.707105 10.4121 5.14453)" fill="white"/>
<rect id="Rectangle 1545" width="5.91204" height="1.57331" rx="0.786654" transform="matrix(0.707109 -0.707105 0.707109 0.707105 0.609863 14.498)" fill="white"/>
</g>
<defs>
<clipPath id="clip0_7856_216265">
<rect width="16.0026" height="16" fill="white" transform="translate(0.0100098 0.378906)"/>
</clipPath>
</defs>
</svg>
