<svg width="81" height="81" viewBox="0 0 81 81" fill="none" xmlns="http://www.w3.org/2000/svg">
<path d="M50.9343 42.2923C47.7522 45.7972 44.0657 47.6907 40.2213 47.6907C40.0994 47.6907 39.9583 47.65 39.8388 47.65C37.2807 47.5688 34.8038 46.6627 32.5087 44.9915C30.192 43.3204 28.0571 40.9033 26.2042 37.7809C24.9347 35.646 23.8684 33.2504 22.9814 30.7114C23.3448 31.0342 23.7274 31.3952 24.1888 31.8184C24.3896 32.0192 24.612 32.22 24.8534 32.4423C24.9132 32.5021 24.9753 32.5834 25.0351 32.6838C25.1762 32.9253 25.5396 33.5086 26.0631 34.2737C27.7152 36.7314 31.0168 41.0802 34.5217 42.6103C39.4156 44.7237 40.4221 44.9867 48.1969 42.792C48.2376 42.792 48.2567 42.7729 48.2973 42.7729C48.8615 42.6127 49.3254 42.5099 49.7461 42.431C50.2291 42.3306 50.6331 42.2899 50.9343 42.2899V42.2923Z" fill="#D7DADF"/>
<path d="M61.3704 77.0756L61.3512 77.3768L60.2921 77.8789H20.3447V74.5748C20.3447 74.5557 20.3639 74.515 20.3639 74.4935L21.1098 74.5342L21.8557 74.5939L50.3322 76.3655L61.3728 77.0732L61.3704 77.0756Z" fill="#D7DADF"/>
<path d="M72.767 8.55843C71.8012 7.41086 70.3906 6.76536 68.9012 6.76536H62.5178V4.24787C62.5178 2.47631 61.0881 1.04663 59.3166 1.04663H21.1503C19.3787 1.04663 17.949 2.47631 17.949 4.24787V6.76536H11.5657C10.0762 6.76536 8.66568 7.41086 7.6998 8.55843C6.73393 9.68688 6.32989 11.1572 6.55223 12.606C8.00343 21.4471 13.5811 29.3008 21.4946 33.5922L21.736 33.7141L21.8364 33.9771C22.5608 35.7296 23.4072 37.4007 24.3133 38.9308C27.1726 43.7649 30.797 47.167 34.7442 48.7999L35.1674 48.9816L35.208 49.4239C35.6718 54.0548 32.5901 58.3247 28.0381 59.3528C27.5336 59.4747 27.1726 59.917 27.1726 60.4191V69.7431H22.9625C20.3637 69.7431 18.2694 71.7967 18.1499 74.3549C18.1499 74.4361 18.1307 74.4959 18.1307 74.5772V78.9882C18.1307 79.593 18.6352 80.0951 19.2377 80.0951H61.4085C62.0134 80.0951 62.5154 79.5907 62.5154 78.9882V74.5772C62.5154 71.8995 60.3398 69.7431 57.6621 69.7431H53.452V60.4191C53.452 59.9146 53.1101 59.4723 52.6057 59.3528C47.9939 58.3056 44.9337 54.0166 45.4357 49.3426L45.4764 48.9003L45.8996 48.7186C49.7654 47.0666 53.3301 43.6837 56.1512 38.9308C57.0573 37.4007 57.9036 35.7296 58.628 33.9771L58.7284 33.7357L58.9699 33.5946C66.8642 29.3056 72.4634 21.4495 73.8931 12.6084C74.1346 11.1596 73.7114 9.68927 72.7646 8.56083L72.767 8.55843ZM18.7117 29.1215C13.3755 24.8922 9.82998 18.889 8.74457 12.245C8.62264 11.4393 8.84498 10.6336 9.39008 9.99051C9.93278 9.345 10.7193 8.98399 11.5657 8.98399H17.949V13.1726C17.949 18.4491 18.6137 23.5653 19.9023 28.3182L20.5072 30.5344L18.7141 29.1239L18.7117 29.1215ZM57.6598 71.9569C59.111 71.9569 60.2992 73.126 60.2992 74.5748V77.8765H20.3446V74.5748C20.3446 74.5557 20.3637 74.515 20.3637 74.4935C20.4044 73.083 21.5519 71.9569 22.9625 71.9569H57.6621H57.6598ZM51.2358 61.526V69.7431H29.4056V61.526H51.2358ZM46.1601 58.0618L47.3077 59.3097H33.3313L34.4788 58.0618C34.902 57.5788 35.3037 57.0552 35.667 56.5101C36.8146 54.6979 37.4386 52.6227 37.4601 50.5093L37.4793 49.663L38.3256 49.7634C39.6549 49.9451 40.9841 49.9451 42.2919 49.7443L43.1573 49.6223V50.4878C43.198 53.2659 44.2643 55.965 46.1578 58.0594L46.1601 58.0618ZM54.2362 37.7808C53.2297 39.5118 52.1012 41.0036 50.9345 42.2922C47.7524 45.7971 44.0658 47.6906 40.2215 47.6906C40.0995 47.6906 39.9585 47.6499 39.8389 47.6499C37.2808 47.5687 34.804 46.6626 32.5088 44.9914C30.1922 43.3203 28.0572 40.9032 26.2044 37.7808C24.9349 35.6459 23.8686 33.2503 22.9816 30.7113C21.1694 25.4349 20.1629 19.4532 20.1629 13.1702V4.24787C20.1629 3.70517 20.6052 3.26049 21.1503 3.26049H59.3142C59.8569 3.26049 60.3016 3.70278 60.3016 4.24787V13.1702C60.3016 22.4942 58.1475 31.2349 54.2386 37.7808H54.2362ZM71.7175 12.245C70.6297 18.8914 67.0866 24.8922 61.748 29.1023L59.9358 30.532L60.5406 28.3158C61.8508 23.5629 62.5154 18.4467 62.5154 13.1702V8.9816H68.8988C69.7236 8.9816 70.5293 9.345 71.0744 9.98812C71.6171 10.6336 71.8394 11.4393 71.7199 12.2426L71.7175 12.245Z" fill="#87919F"/>
<path d="M61.4085 80.5709H19.2353C18.3603 80.5709 17.6502 79.8585 17.6502 78.9858V74.5749C17.6502 74.5103 17.6574 74.4529 17.6646 74.3956C17.6646 74.3812 17.6693 74.3693 17.6693 74.3525C17.8032 71.4884 20.127 69.2626 22.9601 69.2626H26.6897V60.4167C26.6897 59.6899 27.1966 59.0588 27.9234 58.8842C32.2459 57.9088 35.1674 53.8612 34.7275 49.467L34.7131 49.3044L34.553 49.2351C30.4839 47.5544 26.7973 44.0734 23.8973 39.1699C22.9458 37.5609 22.1018 35.8731 21.3894 34.1541L21.3511 34.0537L21.2746 34.0154C13.2297 29.6571 7.55398 21.6838 6.07648 12.685C5.83262 11.0808 6.28926 9.46459 7.33403 8.24769C8.38119 7.00449 9.92323 6.28965 11.5633 6.28965H17.4685V4.25032C17.4685 2.22056 19.1205 0.570923 21.1479 0.570923H59.3118C61.3416 0.570923 62.9912 2.22295 62.9912 4.25032V6.28965H68.8964C70.5365 6.28965 72.0785 7.00449 73.1281 8.25247C74.1728 9.49806 74.6223 11.1142 74.3617 12.6874C72.9081 21.6695 67.2396 29.6427 59.1946 34.013L59.1038 34.0656L59.0655 34.1589C58.3555 35.8778 57.5115 37.5633 56.5576 39.1723C53.6935 44.0017 50.0715 47.454 46.0837 49.1562L45.9235 49.2255L45.9091 49.3857C45.431 53.8158 48.3549 57.8968 52.7085 58.8842C53.4281 59.0564 53.9278 59.6875 53.9278 60.4167V69.2626H57.6598C60.6004 69.2626 62.9912 71.6462 62.9912 74.5749V78.9858C62.9912 79.8609 62.2787 80.5709 61.4061 80.5709H61.4085ZM22.9625 70.2189C20.6411 70.2189 18.738 72.0454 18.6256 74.374C18.6256 74.4171 18.6185 74.4745 18.6113 74.5294C18.6113 74.5438 18.6065 74.5557 18.6065 74.5725V78.9834C18.6065 79.3253 18.8958 79.6122 19.2353 79.6122H61.4061C61.748 79.6122 62.0349 79.3229 62.0349 78.9834V74.5725C62.0349 72.1721 60.0721 70.2165 57.6598 70.2165H52.9715V60.4143C52.9715 60.1274 52.7754 59.8788 52.4933 59.8119C47.6735 58.7169 44.4316 54.1912 44.96 49.2853L45.0245 48.5657L45.7083 48.2716C49.5096 46.6483 52.9762 43.3323 55.7352 38.6798C56.6652 37.1115 57.4876 35.4642 58.181 33.7859L58.3435 33.3938L58.7237 33.1715C66.5224 28.935 72.0092 21.2176 73.4149 12.5224C73.6301 11.2242 73.2596 9.89015 72.3941 8.85734C71.5262 7.82691 70.2496 7.23639 68.894 7.23639H62.0325V4.24076C62.0325 2.73935 60.8108 1.51767 59.3094 1.51767H21.1503C19.6489 1.51767 18.4272 2.73935 18.4272 4.24076V7.23639H11.5657C10.2077 7.23639 8.93345 7.82691 8.0656 8.85734C7.20014 9.86624 6.8224 11.2027 7.02562 12.5248C8.45291 21.232 13.9493 28.947 21.7241 33.1619L22.1186 33.358L22.2859 33.7931C22.9745 35.4595 23.7993 37.1043 24.7269 38.675C27.5217 43.3968 31.0481 46.7415 34.9307 48.3457L35.6216 48.6422L35.6886 49.369C36.1763 54.239 32.9344 58.7264 28.1481 59.8071C27.866 59.874 27.6556 60.1274 27.6556 60.4072V70.2093H22.9697L22.9625 70.2189ZM60.7773 78.3547H19.8665V74.5749C19.8665 74.5103 19.8784 74.4577 19.8904 74.4195C19.9764 72.7579 21.3105 71.4788 22.9625 71.4788H57.6622C59.3811 71.4788 60.7773 72.8679 60.7773 74.5749V78.3547ZM20.8204 77.3984H59.821V74.5749C59.821 73.3938 58.8528 72.4351 57.6622 72.4351H22.9625C21.8078 72.4351 20.8754 73.346 20.8419 74.5079C20.8419 74.5581 20.8323 74.6036 20.8228 74.6394V77.3984H20.8204ZM19.8856 74.4649C19.8856 74.4649 19.8856 74.484 19.8856 74.4936C19.8856 74.484 19.8856 74.4745 19.8856 74.4649ZM51.7139 70.2189H28.9275V61.0455H51.7139V70.2189ZM29.8838 69.2626H50.7576V62.0018H29.8838V69.2626ZM48.3979 59.7879H32.2435L34.1274 57.7367C34.5362 57.2705 34.9235 56.7636 35.2702 56.2448C36.3699 54.5091 36.9629 52.5224 36.982 50.5046L37.0155 49.1275L38.383 49.2901C39.6955 49.4694 40.9841 49.4622 42.2202 49.2733L43.6379 49.0749V50.4902C43.6761 53.1536 44.697 55.7308 46.514 57.7414L48.3979 59.7903V59.7879ZM34.4215 58.8316H46.2199L45.8063 58.3822C43.8339 56.1994 42.7246 53.3998 42.6816 50.495V50.1723L42.3588 50.2177C41.0367 50.4209 39.6549 50.4281 38.261 50.2368L37.9455 50.1986L37.9383 50.5189C37.9168 52.7089 37.2713 54.8701 36.0711 56.766C35.6958 57.3302 35.2821 57.8682 34.8399 58.375L34.4215 58.8316ZM40.2191 48.1688C40.1211 48.1688 40.0326 48.1545 39.9561 48.1425C39.9155 48.1353 39.8748 48.1282 39.8366 48.1282C37.1732 48.0445 34.6151 47.1192 32.2244 45.3788C29.8216 43.6455 27.658 41.171 25.7908 38.0271C24.5619 35.9591 23.4646 33.5516 22.5274 30.8716C20.665 25.4493 19.68 19.3313 19.68 13.1727V4.24793C19.68 3.43985 20.3374 2.78239 21.1455 2.78239H59.3094C60.1175 2.78239 60.7749 3.43985 60.7749 4.24793V13.1703C60.7749 22.5756 58.5993 31.4023 54.6474 38.0224C53.6983 39.6553 52.5674 41.1997 51.286 42.6126C47.9867 46.2466 44.1591 48.1664 40.2167 48.1664L40.2191 48.1688ZM39.8533 47.1718C39.9346 47.1718 40.023 47.1862 40.0996 47.1981C40.1402 47.2053 40.1808 47.2125 40.2191 47.2125C43.8841 47.2125 47.4655 45.4003 50.5783 41.9719C51.8143 40.6068 52.9045 39.1173 53.8226 37.5418V37.537C57.6908 31.0604 59.8186 22.4082 59.8186 13.1727V4.24793C59.8186 3.96821 59.5915 3.7387 59.3094 3.7387H21.1503C20.8706 3.7387 20.6411 3.96582 20.6411 4.24793V13.1703C20.6411 19.2237 21.6069 25.2365 23.4359 30.556C24.3491 33.1739 25.4202 35.524 26.618 37.5346C28.4182 40.5661 30.4934 42.945 32.791 44.6018C35.0263 46.2299 37.4028 47.0929 39.8557 47.1695L39.8533 47.1718ZM59.0918 31.8064L60.0768 28.1915C61.375 23.4769 62.0349 18.4252 62.0349 13.1727V8.50589H68.8964C69.879 8.50589 70.8066 8.93384 71.4378 9.68215C72.0666 10.4257 72.3319 11.3629 72.1909 12.3168V12.324C71.0816 19.1018 67.4787 25.1935 62.0444 29.4777L59.0918 31.8064ZM62.9912 9.4622V13.1727C62.9912 18.5089 62.3218 23.649 60.9997 28.4449L60.7773 29.2602L61.4515 28.7294C66.6945 24.5934 70.1731 18.7145 71.2441 12.1757C71.3445 11.4991 71.1533 10.8321 70.7062 10.3014C70.2567 9.76822 69.5969 9.46459 68.8964 9.46459H62.9912V9.4622ZM21.3439 31.804L18.4129 29.4969C12.981 25.1887 9.37814 19.0898 8.27121 12.3216C8.12776 11.3605 8.39314 10.4257 9.02191 9.67976C9.65308 8.93145 10.5783 8.5035 11.5633 8.5035H18.4248V13.1703C18.4248 18.3965 19.0775 23.4506 20.3613 28.1891L21.3463 31.8016L21.3439 31.804ZM19.0058 28.7486L19.6608 29.2626L19.4385 28.4449C18.1308 23.6227 17.4685 18.485 17.4685 13.1751V9.46459H11.5633C10.8628 9.46459 10.203 9.77061 9.75349 10.3014C9.30402 10.8321 9.11515 11.4991 9.21556 12.1781C10.2842 18.7049 13.7604 24.5934 19.0082 28.7509L19.0058 28.7486Z" fill="#87919F"/>
<path d="M38.0864 52.1949C37.8329 53.8565 37.2329 55.4607 36.3005 56.9167C35.9227 57.5048 35.5019 58.0547 35.0405 58.5615C35.5019 58.0547 35.9227 57.5048 36.2981 56.9167C37.2305 55.4607 37.8306 53.8541 38.084 52.1925L38.0864 52.1949Z" fill="white"/>
<path d="M42.409 50.4927C41.6894 50.6003 40.9626 50.6552 40.2286 50.6552C39.5544 50.6552 38.8874 50.6074 38.2252 50.5166C38.2204 50.9708 38.1702 51.4227 38.1128 51.8721C38.1702 51.4227 38.218 50.9708 38.2252 50.5166C38.8874 50.6074 39.5568 50.6552 40.2286 50.6552C40.9626 50.6552 41.6894 50.5979 42.409 50.4927Z" fill="white"/>
<path d="M43.1524 49.6152L42.2965 49.7419C40.9864 49.9404 39.6595 49.9476 38.3278 49.7682L37.4815 49.6511L37.4695 50.5046C37.4408 52.6276 36.8192 54.7028 35.6669 56.5078C35.3107 57.0601 34.9138 57.5813 34.4835 58.0523L33.3335 59.317H47.3195L46.1719 58.0523C44.2737 55.9651 43.205 53.2755 43.1667 50.4807L43.1548 49.6152H43.1524ZM45.6101 58.5615H35.0405C35.5019 58.0547 35.9227 57.5048 36.3004 56.9167C37.2328 55.4607 37.8329 53.8565 38.0864 52.1949C38.1031 52.0897 38.0983 51.9797 38.1126 51.8745C38.17 51.4251 38.2178 50.9732 38.225 50.5189C38.8873 50.6098 39.5567 50.6576 40.2285 50.6576C40.9624 50.6576 41.6892 50.6002 42.4089 50.495C42.4519 53.5218 43.6306 56.3883 45.6101 58.5639V58.5615Z" fill="#D7DADF"/>
<path d="M38.9448 51.3557C38.7798 53.4692 38.0937 55.5181 36.9413 57.3255C36.8361 57.4881 36.7261 57.6506 36.6138 57.8084H44.0371C42.6911 55.8982 41.8783 53.6676 41.6918 51.339C40.7785 51.4274 39.8676 51.437 38.9424 51.3557H38.9448Z" fill="#D7DADF"/>
<path d="M40.231 50.6552C39.5568 50.6552 38.8898 50.6074 38.2275 50.5166C38.2227 50.9708 38.1725 51.4227 38.1152 51.8721C38.1008 51.9797 38.1056 52.0873 38.0889 52.1925C37.8354 53.8541 37.2354 55.4607 36.303 56.9167C35.9276 57.5048 35.5044 58.0547 35.0454 58.5615H45.6126C43.6331 56.3835 42.4544 53.5194 42.4114 50.4927C41.6918 50.6003 40.965 50.6552 40.231 50.6552ZM36.6138 57.806C36.7261 57.6459 36.8337 57.4857 36.9413 57.3231C38.0936 55.5181 38.7798 53.4692 38.9448 51.3534C39.87 51.437 40.7809 51.4251 41.6941 51.3366C41.8782 53.6628 42.6911 55.8958 44.0395 57.8037H36.6161L36.6138 57.806Z" fill="#D7DADF"/>
<path d="M35.043 58.5639H45.6102V58.5615H35.043V58.5639Z" fill="#D7DADF"/>
<path d="M38.0864 52.1949C38.1032 52.0897 38.0984 51.9797 38.1127 51.8745C38.0984 51.9821 38.1032 52.0897 38.0864 52.1949Z" fill="#D7DADF"/>
<path d="M41.5075 19.8764L40.2308 17.2872L38.9518 19.8764C38.6792 20.4263 38.1556 20.8088 37.5484 20.8973L34.6914 21.3133L36.7594 23.3287C37.1993 23.7567 37.4002 24.3735 37.295 24.9783L36.8072 27.8234L39.363 26.4797C39.6355 26.3363 39.932 26.2646 40.2308 26.2646C40.5297 26.2646 40.8261 26.3363 41.0987 26.4797L43.6544 27.8234L43.1667 24.9783C43.0639 24.3735 43.2623 23.7567 43.7022 23.3287L45.7702 21.3133L42.9133 20.8973C42.306 20.8088 41.78 20.4287 41.5099 19.8764H41.5075Z" fill="#F5DC60"/>
<path d="M51.5491 19.4341C51.3292 18.7599 50.7458 18.2674 50.0429 18.1646L44.4174 17.347L41.9024 12.2498C41.5892 11.6139 40.9413 11.2098 40.2312 11.2098C39.5211 11.2098 38.8732 11.6139 38.5601 12.2498L36.045 17.347L30.4195 18.1646C29.7166 18.2674 29.1332 18.7575 28.9133 19.4341C28.6933 20.1083 28.8774 20.8494 29.3843 21.3443L33.4558 25.313L32.4947 30.917C32.3751 31.6175 32.662 32.3227 33.2358 32.7411C33.8096 33.1571 34.5722 33.2121 35.1986 32.8822L40.2312 30.238L45.2638 32.8822C45.5363 33.0256 45.8352 33.095 46.1316 33.095C46.5189 33.095 46.9038 32.9754 47.2266 32.7387C47.8004 32.3204 48.0873 31.6151 47.9677 30.9146L47.0066 25.3106L51.0781 21.3419C51.5874 20.847 51.7691 20.1059 51.5515 19.4317L51.5491 19.4341ZM45.6128 28.574H34.0104L34.0152 21.1913L36.8578 16.5699L43.8963 16.962L46.1699 21.4758L45.6128 28.574Z" fill="#F8E99B"/>
<path d="M36.8577 16.5724L34.015 21.1937L34.0103 28.5765H45.6127L46.1697 21.4783L43.8961 16.9645L36.8577 16.5724ZM43.7001 23.3287C43.2601 23.7567 43.0593 24.3735 43.1645 24.9783L43.6522 27.8234L41.0965 26.4797C40.824 26.3363 40.5275 26.2646 40.2286 26.2646C39.9298 26.2646 39.6334 26.3363 39.3608 26.4797L36.8051 27.8234L37.2928 24.9783C37.3956 24.3735 37.1948 23.7567 36.7573 23.3287L34.6892 21.3133L37.5462 20.8973C38.1535 20.8088 38.6794 20.4287 38.9496 19.8764L40.2286 17.2872L41.5053 19.8764C41.7779 20.4263 42.3015 20.8088 42.9087 20.8973L45.7657 21.3133L43.6977 23.3287H43.7001Z" fill="#F8E99B"/>
</svg>
