<svg width="81" height="81" viewBox="0 0 81 81" fill="none" xmlns="http://www.w3.org/2000/svg">
<rect x="1.98047" y="13.9489" width="77" height="53.2042" rx="12.5" fill="white" stroke="#87919F" stroke-width="3"/>
<path opacity="0.08" fill-rule="evenodd" clip-rule="evenodd" d="M3.57617 51.5999V55.5999C3.57617 61.1227 8.05333 65.5999 13.5762 65.5999H67.3843C72.9071 65.5999 77.3843 61.1227 77.3843 55.5999V51.5999C77.3843 57.1227 72.9071 61.5999 67.3843 61.5999H13.5762C8.05333 61.5999 3.57617 57.1227 3.57617 51.5999Z" fill="#2B3242"/>
<rect x="47.9165" y="22.551" width="2.82194" height="23.7854" rx="1.41097" fill="#6391FF"/>
<rect x="52.4966" y="30.3113" width="2.82194" height="23.7854" rx="1.41097" fill="#6391FF"/>
<rect x="57.0762" y="27.2073" width="2.82194" height="23.7854" rx="1.41097" fill="#6391FF"/>
<rect x="46.1587" y="41.428" width="2.82194" height="7.76035" rx="1.41097" transform="rotate(-180 46.1587 41.428)" fill="#6391FF"/>
<rect x="20.438" y="30.3113" width="2.82194" height="23.7854" rx="1.41097" fill="#6391FF"/>
<rect x="25.0176" y="25.655" width="2.82194" height="23.7854" rx="1.41097" fill="#6391FF"/>
<rect x="29.5977" y="33.4155" width="2.82194" height="23.7854" rx="1.41097" fill="#6391FF"/>
<rect x="34.1772" y="24.103" width="2.82194" height="23.7854" rx="1.41097" fill="#6391FF"/>
<rect x="38.7568" y="31.8633" width="2.82194" height="12.4166" rx="1.41097" fill="#6391FF"/>
</svg>
