<svg width="82" height="81" viewBox="0 0 82 81" fill="none" xmlns="http://www.w3.org/2000/svg">
<rect x="2.2373" y="9.08142" width="76.9946" height="53.552" rx="4.5" fill="white" stroke="#87919F" stroke-width="3"/>
<path d="M74.7319 62.6334H60.7283L79.2319 44.1297V58.1334C79.2319 60.6187 77.2172 62.6334 74.7319 62.6334Z" fill="#D8E4FF" stroke="#87919F" stroke-width="3"/>
<path d="M6.7373 9.08142H20.741L2.2373 27.5851V13.5814C2.2373 11.0961 4.25202 9.08142 6.7373 9.08142Z" fill="#D8E4FF" stroke="#87919F" stroke-width="3"/>
<path d="M33.4839 63.2363H47.9915V78.758C47.9915 78.9308 47.787 79.0223 47.6582 78.9071L40.7377 72.7218L33.8172 78.9071C33.6883 79.0223 33.4839 78.9308 33.4839 78.758V63.2363Z" fill="#B1C8FF" stroke="#6391FF" stroke-width="3"/>
<path d="M38.6073 43.1665C39.7808 41.9833 41.6938 41.9833 42.8673 43.1665L42.9769 43.277C43.6593 43.965 44.6319 44.2811 45.5884 44.1255L45.7419 44.1006C47.3868 43.8331 48.9345 44.9575 49.1884 46.6046L49.2121 46.7583C49.3598 47.716 49.9609 48.5434 50.8261 48.9798L50.965 49.0498C52.453 49.8003 53.0441 51.6197 52.2814 53.1014L52.2102 53.2397C51.7668 54.1013 51.7668 55.124 52.2102 55.9856L52.2814 56.1239C53.0441 57.6057 52.453 59.425 50.965 60.1755L50.8261 60.2455C49.9609 60.6819 49.3598 61.5093 49.2121 62.467L49.1884 62.6208C48.9345 64.2678 47.3868 65.3922 45.7419 65.1248L45.5884 65.0998C44.6319 64.9443 43.6593 65.2603 42.9769 65.9483L42.8673 66.0588C41.6938 67.242 39.7808 67.242 38.6073 66.0588L38.4977 65.9483C37.8154 65.2603 36.8427 64.9443 35.8862 65.0998L35.7327 65.1248C34.0878 65.3922 32.5401 64.2678 32.2862 62.6208L32.2625 62.467C32.1149 61.5093 31.5137 60.6819 30.6485 60.2455L30.5096 60.1755C29.0216 59.425 28.4305 57.6057 29.1932 56.1239L29.2644 55.9856C29.7078 55.124 29.7078 54.1013 29.2644 53.2397L29.1932 53.1014C28.4305 51.6197 29.0216 49.8003 30.5096 49.0498L30.6485 48.9798C31.5137 48.5434 32.1149 47.716 32.2625 46.7583L32.2862 46.6046C32.5401 44.9575 34.0878 43.8331 35.7327 44.1006L35.8862 44.1255C36.8427 44.2811 37.8154 43.965 38.4977 43.277L38.6073 43.1665Z" fill="#D8E4FF" stroke="#6391FF" stroke-width="3"/>
<circle cx="40.7373" cy="54.6127" r="5.09375" fill="white" stroke="#6391FF" stroke-width="3"/>
<line x1="24.2944" y1="26.1256" x2="57.2944" y2="26.1256" stroke="#D7DADF" stroke-width="3" stroke-linecap="round"/>
<line x1="32.7944" y1="17.8939" x2="48.7944" y2="17.8939" stroke="#D7DADF" stroke-width="3" stroke-linecap="round"/>
<line x1="32.7944" y1="34.3574" x2="48.7944" y2="34.3574" stroke="#D7DADF" stroke-width="3" stroke-linecap="round"/>
</svg>
