<svg width="81" height="81" viewBox="0 0 81 81" fill="none" xmlns="http://www.w3.org/2000/svg">
<mask id="path-1-inside-1_1141_3635" fill="white">
<path fill-rule="evenodd" clip-rule="evenodd" d="M69.7638 79.8262H21.6127C19.4328 79.8262 17.6656 78.0591 17.6656 75.8792V5.72451C17.6656 3.54462 19.4328 1.77747 21.6127 1.77747H49.4741L73.7109 26.5647V75.8792C73.7109 78.0591 71.9437 79.8262 69.7638 79.8262Z"/>
</mask>
<path fill-rule="evenodd" clip-rule="evenodd" d="M69.7638 79.8262H21.6127C19.4328 79.8262 17.6656 78.0591 17.6656 75.8792V5.72451C17.6656 3.54462 19.4328 1.77747 21.6127 1.77747H49.4741L73.7109 26.5647V75.8792C73.7109 78.0591 71.9437 79.8262 69.7638 79.8262Z" fill="white"/>
<path d="M49.4741 1.77747L51.6191 -0.319901L49.4741 -1.22253V1.77747ZM73.7109 26.5647H76.7109L75.8559 24.4673L73.7109 26.5647ZM21.6127 82.8262H69.7638V76.8262H21.6127V82.8262ZM14.6656 75.8792C14.6656 79.7159 17.776 82.8262 21.6127 82.8262V76.8262C21.0897 76.8262 20.6656 76.4022 20.6656 75.8792H14.6656ZM14.6656 5.72451V75.8792H20.6656V5.72451H14.6656ZM21.6127 -1.22253C17.776 -1.22253 14.6656 1.88776 14.6656 5.72451H20.6656C20.6656 5.20148 21.0897 4.77747 21.6127 4.77747V-1.22253ZM49.4741 -1.22253H21.6127V4.77747H49.4741V-1.22253ZM75.8559 24.4673L51.6191 -0.319901L47.3291 3.87483L71.5659 28.6621L75.8559 24.4673ZM76.7109 75.8792V26.5647H70.7109V75.8792H76.7109ZM69.7638 82.8262C73.6006 82.8262 76.7109 79.716 76.7109 75.8792H70.7109C70.7109 76.4022 70.2869 76.8262 69.7638 76.8262V82.8262Z" fill="#87919F" mask="url(#path-1-inside-1_1141_3635)"/>
<path opacity="0.08" d="M49.3566 1.79382L49.3566 1.82751L73.7107 26.6892V30.1523H54.7459C50.7039 30.1523 49.3566 27.3984 49.3566 24.9505L49.3566 1.82751L49.3236 1.79382H49.3566Z" fill="#2B3242"/>
<path d="M50.9218 22.1635V5.47011L70.1429 25.103H54.0238C52.6686 25.103 51.9645 24.6592 51.5729 24.1971C51.1434 23.6901 50.9218 22.9584 50.9218 22.1635Z" fill="white" stroke="#87919F" stroke-width="3" stroke-linejoin="round"/>
<line x1="24.4228" y1="51.5367" x2="65.6329" y2="51.5367" stroke="#D7DADF" stroke-width="2.4" stroke-linecap="round" stroke-linejoin="round"/>
<line x1="24.4228" y1="39.6861" x2="65.6329" y2="39.6861" stroke="#D7DADF" stroke-width="2.4" stroke-linecap="round" stroke-linejoin="round"/>
<line x1="24.4228" y1="57.462" x2="65.6329" y2="57.462" stroke="#D7DADF" stroke-width="2.4" stroke-linecap="round" stroke-linejoin="round"/>
<line x1="24.4228" y1="45.6114" x2="65.6329" y2="45.6114" stroke="#D7DADF" stroke-width="2.4" stroke-linecap="round" stroke-linejoin="round"/>
<line x1="24.4228" y1="63.3875" x2="57.3801" y2="63.3875" stroke="#D7DADF" stroke-width="2.4" stroke-linecap="round" stroke-linejoin="round"/>
<rect opacity="0.08" x="6.52014" y="38.9479" width="32.694" height="32.694" rx="4" fill="#2B3242"/>
<rect x="6.52014" y="35.5944" width="32.694" height="32.694" rx="3.15764" fill="#F2994A"/>
<path d="M23.2466 53.7228L19.3808 53.7125L19.8012 51.3131L23.3491 51.3234C23.855 51.3234 24.3198 51.2345 24.7436 51.0568C25.1675 50.8722 25.5161 50.6056 25.7895 50.257C26.063 49.9083 26.2373 49.4708 26.3125 48.9445C26.3808 48.5001 26.3569 48.1002 26.2407 47.7448C26.1245 47.3893 25.9194 47.1022 25.6255 46.8834C25.3315 46.6647 24.9521 46.545 24.4873 46.5245L21.688 46.5143L19.5141 59.0343H16.5097L19.0937 44.1046L24.5796 44.1149C25.5298 44.1354 26.3774 44.3405 27.1225 44.7301C27.8677 45.1129 28.4419 45.6598 28.8452 46.3707C29.2553 47.0748 29.4194 47.9259 29.3374 48.924C29.2485 50.0109 28.9101 50.9098 28.3222 51.6207C27.7344 52.3317 26.9927 52.8615 26.0971 53.2101C25.2085 53.5519 24.2583 53.7228 23.2466 53.7228Z" fill="white"/>
</svg>
