<svg width="81" height="81" viewBox="0 0 81 81" fill="none" xmlns="http://www.w3.org/2000/svg">
<mask id="path-1-inside-1_1141_3634" fill="white">
<path fill-rule="evenodd" clip-rule="evenodd" d="M69.6315 79.8262H21.4804C19.3005 79.8262 17.5333 78.0591 17.5333 75.8792V5.72451C17.5333 3.54462 19.3005 1.77747 21.4804 1.77747H49.3418L73.5785 26.5647V75.8792C73.5785 78.0591 71.8114 79.8262 69.6315 79.8262Z"/>
</mask>
<path fill-rule="evenodd" clip-rule="evenodd" d="M69.6315 79.8262H21.4804C19.3005 79.8262 17.5333 78.0591 17.5333 75.8792V5.72451C17.5333 3.54462 19.3005 1.77747 21.4804 1.77747H49.3418L73.5785 26.5647V75.8792C73.5785 78.0591 71.8114 79.8262 69.6315 79.8262Z" fill="white"/>
<path d="M49.3418 1.77747L51.4868 -0.319901L49.3418 -1.22253V1.77747ZM73.5785 26.5647H76.5785L75.7235 24.4673L73.5785 26.5647ZM21.4804 82.8262H69.6315V76.8262H21.4804V82.8262ZM14.5333 75.8792C14.5333 79.7159 17.6436 82.8262 21.4804 82.8262V76.8262C20.9573 76.8262 20.5333 76.4022 20.5333 75.8792H14.5333ZM14.5333 5.72451V75.8792H20.5333V5.72451H14.5333ZM21.4804 -1.22253C17.6436 -1.22253 14.5333 1.88776 14.5333 5.72451H20.5333C20.5333 5.20148 20.9573 4.77747 21.4804 4.77747V-1.22253ZM49.3418 -1.22253H21.4804V4.77747H49.3418V-1.22253ZM75.7235 24.4673L51.4868 -0.319901L47.1968 3.87483L71.4335 28.6621L75.7235 24.4673ZM76.5785 75.8792V26.5647H70.5785V75.8792H76.5785ZM69.6315 82.8262C73.4682 82.8262 76.5785 79.716 76.5785 75.8792H70.5785C70.5785 76.4022 70.1545 76.8262 69.6315 76.8262V82.8262Z" fill="#87919F" mask="url(#path-1-inside-1_1141_3634)"/>
<path opacity="0.08" d="M49.2243 1.79382L49.2243 1.82751L73.5784 26.6892V30.1523H54.6136C50.5715 30.1523 49.2243 27.3984 49.2243 24.9505L49.2243 1.82751L49.1913 1.79382H49.2243Z" fill="#2B3242"/>
<path d="M50.7894 22.1635V5.47011L70.0106 25.103H53.8914C52.5363 25.103 51.8321 24.6592 51.4406 24.1971C51.0111 23.6901 50.7894 22.9584 50.7894 22.1635Z" fill="white" stroke="#87919F" stroke-width="3" stroke-linejoin="round"/>
<line x1="24.2905" y1="51.5367" x2="65.5006" y2="51.5367" stroke="#D7DADF" stroke-width="2.4" stroke-linecap="round" stroke-linejoin="round"/>
<line x1="24.2905" y1="39.6861" x2="65.5006" y2="39.6861" stroke="#D7DADF" stroke-width="2.4" stroke-linecap="round" stroke-linejoin="round"/>
<line x1="24.2905" y1="57.462" x2="65.5006" y2="57.462" stroke="#D7DADF" stroke-width="2.4" stroke-linecap="round" stroke-linejoin="round"/>
<line x1="24.2905" y1="45.6114" x2="65.5006" y2="45.6114" stroke="#D7DADF" stroke-width="2.4" stroke-linecap="round" stroke-linejoin="round"/>
<line x1="24.2905" y1="63.3875" x2="57.2478" y2="63.3875" stroke="#D7DADF" stroke-width="2.4" stroke-linecap="round" stroke-linejoin="round"/>
<rect opacity="0.08" x="6.38782" y="38.9481" width="32.694" height="32.694" rx="4" fill="#2B3242"/>
<rect x="6.38782" y="35.5944" width="32.694" height="32.694" rx="3.15764" fill="#6399FF"/>
<rect x="6.38782" y="35.5944" width="32.694" height="32.694" rx="3.15764" fill="#6399FF"/>
<path d="M25.6319 53.8418L28.7998 44.5187H31.4983L26.6156 57.6595H23.9532L23.2582 48.905L19.8196 57.6595H17.1572L16.381 44.5187H18.9622L19.2239 53.7967L22.7618 44.5187H25.0091L25.6319 53.8418Z" fill="white"/>
</svg>
