<svg width="81" height="81" viewBox="0 0 81 81" fill="none" xmlns="http://www.w3.org/2000/svg">
<mask id="path-1-inside-1_1141_3633" fill="white">
<path fill-rule="evenodd" clip-rule="evenodd" d="M69.9811 79.8262H21.83C19.6501 79.8262 17.8829 78.0591 17.8829 75.8792V5.72451C17.8829 3.54462 19.6501 1.77747 21.83 1.77747H49.6914L73.9281 26.5647V75.8792C73.9281 78.0591 72.161 79.8262 69.9811 79.8262Z"/>
</mask>
<path fill-rule="evenodd" clip-rule="evenodd" d="M69.9811 79.8262H21.83C19.6501 79.8262 17.8829 78.0591 17.8829 75.8792V5.72451C17.8829 3.54462 19.6501 1.77747 21.83 1.77747H49.6914L73.9281 26.5647V75.8792C73.9281 78.0591 72.161 79.8262 69.9811 79.8262Z" fill="white"/>
<path d="M49.6914 1.77747L51.8364 -0.319901L49.6914 -1.22253V1.77747ZM73.9281 26.5647H76.9281L76.0731 24.4673L73.9281 26.5647ZM21.83 82.8262H69.9811V76.8262H21.83V82.8262ZM14.8829 75.8792C14.8829 79.7159 17.9932 82.8262 21.83 82.8262V76.8262C21.3069 76.8262 20.8829 76.4022 20.8829 75.8792H14.8829ZM14.8829 5.72451V75.8792H20.8829V5.72451H14.8829ZM21.83 -1.22253C17.9932 -1.22253 14.8829 1.88776 14.8829 5.72451H20.8829C20.8829 5.20148 21.3069 4.77747 21.83 4.77747V-1.22253ZM49.6914 -1.22253H21.83V4.77747H49.6914V-1.22253ZM76.0731 24.4673L51.8364 -0.319901L47.5464 3.87483L71.7831 28.6621L76.0731 24.4673ZM76.9281 75.8792V26.5647H70.9281V75.8792H76.9281ZM69.9811 82.8262C73.8178 82.8262 76.9281 79.716 76.9281 75.8792H70.9281C70.9281 76.4022 70.5041 76.8262 69.9811 76.8262V82.8262Z" fill="#87919F" mask="url(#path-1-inside-1_1141_3633)"/>
<path opacity="0.08" d="M49.574 1.79382L49.574 1.82751L73.9281 26.6892V30.1523H54.9633C50.9213 30.1523 49.574 27.3984 49.574 24.9505L49.574 1.82751L49.541 1.79382H49.574Z" fill="#2B3242"/>
<path d="M51.1392 22.1635V5.47011L70.3603 25.103H54.2412C52.886 25.103 52.1819 24.6592 51.7903 24.1971C51.3608 23.6901 51.1392 22.9584 51.1392 22.1635Z" fill="white" stroke="#87919F" stroke-width="3" stroke-linejoin="round"/>
<line x1="24.6401" y1="51.5367" x2="65.8502" y2="51.5367" stroke="#D7DADF" stroke-width="2.4" stroke-linecap="round" stroke-linejoin="round"/>
<line x1="24.6401" y1="39.6861" x2="65.8502" y2="39.6861" stroke="#D7DADF" stroke-width="2.4" stroke-linecap="round" stroke-linejoin="round"/>
<line x1="24.6401" y1="57.462" x2="65.8502" y2="57.462" stroke="#D7DADF" stroke-width="2.4" stroke-linecap="round" stroke-linejoin="round"/>
<line x1="24.6401" y1="45.6114" x2="65.8502" y2="45.6114" stroke="#D7DADF" stroke-width="2.4" stroke-linecap="round" stroke-linejoin="round"/>
<line x1="24.6401" y1="63.3875" x2="57.5974" y2="63.3875" stroke="#D7DADF" stroke-width="2.4" stroke-linecap="round" stroke-linejoin="round"/>
<rect opacity="0.08" x="6.73743" y="38.9481" width="32.694" height="32.694" rx="4" fill="#2B3242"/>
<rect x="6.73743" y="35.5944" width="32.694" height="32.694" rx="3.15764" fill="#F86161"/>
<path d="M12.9179 54.0426L12.2834 57.6594H10.2177L12.0014 47.3942L15.597 47.4012C16.7063 47.4012 17.5782 47.7091 18.2127 48.3248C18.8472 48.9405 19.1245 49.7443 19.0446 50.736C18.9694 51.7419 18.5488 52.5456 17.7826 53.1472C17.0212 53.7488 16.0483 54.0497 14.8638 54.0497L12.9179 54.0426ZM13.207 52.3294L14.9273 52.3435C15.4819 52.3435 15.9425 52.2001 16.3091 51.9134C16.6757 51.6267 16.8943 51.2389 16.9648 50.7501C17.0353 50.2613 16.9554 49.8712 16.7251 49.5798C16.4995 49.2883 16.1634 49.1332 15.7169 49.1144L13.771 49.1074L13.207 52.3294Z" fill="white"/>
<path d="M19.3266 57.6594L21.1104 47.3942L24.0574 47.4012C24.7483 47.4153 25.3688 47.5728 25.9187 47.8736C26.4733 48.1697 26.9222 48.5974 27.2653 49.1567C27.6084 49.7161 27.8152 50.3459 27.8857 51.0462C27.9233 51.4551 27.9186 51.8735 27.8716 52.3012L27.8223 52.6748C27.6155 54.1789 27.0232 55.3869 26.0456 56.2987C25.0726 57.2058 23.8905 57.6594 22.4993 57.6594H19.3266ZM22.88 49.1074L21.6885 55.9603L22.5486 55.9673C23.4981 55.9673 24.2595 55.6195 24.8329 54.9239C25.4111 54.2283 25.7424 53.1778 25.827 51.7724L25.8411 51.5468C25.8552 50.7713 25.7072 50.1767 25.397 49.7631C25.0867 49.3495 24.6238 49.1332 24.008 49.1144L22.88 49.1074Z" fill="white"/>
<path d="M35.2392 53.4645H31.3051L30.5719 57.6594H28.5061L30.2899 47.3942H36.7903L36.4871 49.1074H32.0595L31.5942 51.7583H35.5423L35.2392 53.4645Z" fill="white"/>
</svg>
