<svg width="81" height="81" viewBox="0 0 81 81" fill="none" xmlns="http://www.w3.org/2000/svg">
<mask id="path-1-inside-1_1141_3631" fill="white">
<path fill-rule="evenodd" clip-rule="evenodd" d="M69.4141 79.8262H21.263C19.0831 79.8262 17.3159 78.0591 17.3159 75.8792V5.72451C17.3159 3.54462 19.0831 1.77747 21.263 1.77747H49.1244L73.3611 26.5647V75.8792C73.3611 78.0591 71.594 79.8262 69.4141 79.8262Z"/>
</mask>
<path fill-rule="evenodd" clip-rule="evenodd" d="M69.4141 79.8262H21.263C19.0831 79.8262 17.3159 78.0591 17.3159 75.8792V5.72451C17.3159 3.54462 19.0831 1.77747 21.263 1.77747H49.1244L73.3611 26.5647V75.8792C73.3611 78.0591 71.594 79.8262 69.4141 79.8262Z" fill="white"/>
<path d="M49.1244 1.77747L51.2694 -0.319901L49.1244 -1.22253V1.77747ZM73.3611 26.5647H76.3611L75.5061 24.4673L73.3611 26.5647ZM21.263 82.8262H69.4141V76.8262H21.263V82.8262ZM14.3159 75.8792C14.3159 79.7159 17.4262 82.8262 21.263 82.8262V76.8262C20.7399 76.8262 20.3159 76.4022 20.3159 75.8792H14.3159ZM14.3159 5.72451V75.8792H20.3159V5.72451H14.3159ZM21.263 -1.22253C17.4262 -1.22253 14.3159 1.88776 14.3159 5.72451H20.3159C20.3159 5.20148 20.7399 4.77747 21.263 4.77747V-1.22253ZM49.1244 -1.22253H21.263V4.77747H49.1244V-1.22253ZM75.5061 24.4673L51.2694 -0.319901L46.9794 3.87483L71.2161 28.6621L75.5061 24.4673ZM76.3611 75.8792V26.5647H70.3611V75.8792H76.3611ZM69.4141 82.8262C73.2508 82.8262 76.3611 79.716 76.3611 75.8792H70.3611C70.3611 76.4022 69.9371 76.8262 69.4141 76.8262V82.8262Z" fill="#87919F" mask="url(#path-1-inside-1_1141_3631)"/>
<path opacity="0.08" d="M49.0071 1.79382L49.0071 1.82751L73.3612 26.6892V30.1523H54.3964C50.3544 30.1523 49.0071 27.3984 49.0071 24.9505L49.0071 1.82751L48.9741 1.79382H49.0071Z" fill="#2B3242"/>
<path d="M50.5723 22.1635V5.47011L69.7934 25.103H53.6743C52.3191 25.103 51.615 24.6592 51.2234 24.1971C50.7939 23.6901 50.5723 22.9584 50.5723 22.1635Z" fill="white" stroke="#87919F" stroke-width="3" stroke-linejoin="round"/>
<line x1="24.0735" y1="51.5367" x2="65.2836" y2="51.5367" stroke="#D7DADF" stroke-width="2.4" stroke-linecap="round" stroke-linejoin="round"/>
<line x1="24.0735" y1="39.6861" x2="65.2836" y2="39.6861" stroke="#D7DADF" stroke-width="2.4" stroke-linecap="round" stroke-linejoin="round"/>
<line x1="24.0735" y1="57.462" x2="65.2836" y2="57.462" stroke="#D7DADF" stroke-width="2.4" stroke-linecap="round" stroke-linejoin="round"/>
<line x1="24.0735" y1="45.6114" x2="65.2836" y2="45.6114" stroke="#D7DADF" stroke-width="2.4" stroke-linecap="round" stroke-linejoin="round"/>
<line x1="24.0735" y1="63.3875" x2="57.0308" y2="63.3875" stroke="#D7DADF" stroke-width="2.4" stroke-linecap="round" stroke-linejoin="round"/>
<rect opacity="0.08" x="6.17041" y="38.9481" width="32.694" height="32.694" rx="4" fill="#2B3242"/>
<rect x="6.17041" y="35.5944" width="32.694" height="32.694" rx="3.15764" fill="#41CC84"/>
<path d="M22.8606 49.5346L26.4814 44.2565H30.1972L24.5496 52.0259L27.7376 59.6264H24.3174L22.3012 54.2638L18.5959 59.6264H14.8379L20.6122 51.7303L17.5192 44.2565H20.8972L22.8606 49.5346Z" fill="white"/>
</svg>
