<svg width="81" height="81" viewBox="0 0 81 81" fill="none" xmlns="http://www.w3.org/2000/svg">
<mask id="path-1-inside-1_1141_3632" fill="white">
<path fill-rule="evenodd" clip-rule="evenodd" d="M63.7774 79.8262H15.6263C13.4464 79.8262 11.6792 78.0591 11.6792 75.8792V5.72451C11.6792 3.54462 13.4464 1.77747 15.6263 1.77747H43.4877L67.7244 26.5647V75.8792C67.7244 78.0591 65.9572 79.8262 63.7774 79.8262Z"/>
</mask>
<path fill-rule="evenodd" clip-rule="evenodd" d="M63.7774 79.8262H15.6263C13.4464 79.8262 11.6792 78.0591 11.6792 75.8792V5.72451C11.6792 3.54462 13.4464 1.77747 15.6263 1.77747H43.4877L67.7244 26.5647V75.8792C67.7244 78.0591 65.9572 79.8262 63.7774 79.8262Z" fill="white"/>
<path d="M43.4877 1.77747L45.6327 -0.319902L43.4877 -1.22253V1.77747ZM67.7244 26.5647H70.7244L69.8694 24.4673L67.7244 26.5647ZM15.6263 82.8262H63.7774V76.8262H15.6263V82.8262ZM8.6792 75.8792C8.6792 79.7159 11.7895 82.8262 15.6263 82.8262V76.8262C15.1032 76.8262 14.6792 76.4022 14.6792 75.8792H8.6792ZM8.6792 5.72451V75.8792H14.6792V5.72451H8.6792ZM15.6263 -1.22253C11.7895 -1.22253 8.6792 1.88776 8.6792 5.72451H14.6792C14.6792 5.20148 15.1032 4.77747 15.6263 4.77747V-1.22253ZM43.4877 -1.22253H15.6263V4.77747H43.4877V-1.22253ZM69.8694 24.4673L45.6327 -0.319902L41.3427 3.87483L65.5794 28.6621L69.8694 24.4673ZM70.7244 75.8792V26.5647H64.7244V75.8792H70.7244ZM63.7774 82.8262C67.6141 82.8262 70.7244 79.716 70.7244 75.8792H64.7244C64.7244 76.4022 64.3004 76.8262 63.7774 76.8262V82.8262Z" fill="#87919F" mask="url(#path-1-inside-1_1141_3632)"/>
<path opacity="0.08" d="M43.3704 1.79382L43.3704 1.82751L67.7245 26.6892V30.1523H48.7597C44.7177 30.1523 43.3704 27.3984 43.3704 24.9505L43.3704 1.82751L43.3374 1.79382H43.3704Z" fill="#2B3242"/>
<path d="M44.9355 22.1635V5.47011L64.1567 25.103H48.0376C46.6824 25.103 45.9783 24.6592 45.5867 24.1971C45.1572 23.6901 44.9355 22.9584 44.9355 22.1635Z" fill="white" stroke="#87919F" stroke-width="3" stroke-linejoin="round"/>
<line x1="18.4358" y1="51.5367" x2="59.646" y2="51.5367" stroke="#D7DADF" stroke-width="2.4" stroke-linecap="round" stroke-linejoin="round"/>
<line x1="18.4358" y1="39.6861" x2="59.646" y2="39.6861" stroke="#D7DADF" stroke-width="2.4" stroke-linecap="round" stroke-linejoin="round"/>
<line x1="18.4358" y1="57.462" x2="59.646" y2="57.462" stroke="#D7DADF" stroke-width="2.4" stroke-linecap="round" stroke-linejoin="round"/>
<line x1="18.4358" y1="45.6114" x2="59.646" y2="45.6114" stroke="#D7DADF" stroke-width="2.4" stroke-linecap="round" stroke-linejoin="round"/>
<line x1="18.4358" y1="63.3875" x2="51.3931" y2="63.3875" stroke="#D7DADF" stroke-width="2.4" stroke-linecap="round" stroke-linejoin="round"/>
</svg>
