<svg width="81" height="81" viewBox="0 0 81 81" fill="none" xmlns="http://www.w3.org/2000/svg">
<mask id="path-1-inside-1_1141_3644" fill="white">
<path fill-rule="evenodd" clip-rule="evenodd" d="M69.5024 79.7252H21.3514C19.1715 79.7252 17.4043 77.958 17.4043 75.7781V5.62344C17.4043 3.44354 19.1715 1.67639 21.3513 1.67639H49.2128L73.4495 26.4636V75.7781C73.4495 77.958 71.6823 79.7252 69.5024 79.7252Z"/>
</mask>
<path fill-rule="evenodd" clip-rule="evenodd" d="M69.5024 79.7252H21.3514C19.1715 79.7252 17.4043 77.958 17.4043 75.7781V5.62344C17.4043 3.44354 19.1715 1.67639 21.3513 1.67639H49.2128L73.4495 26.4636V75.7781C73.4495 77.958 71.6823 79.7252 69.5024 79.7252Z" fill="white"/>
<path d="M49.2128 1.67639L51.3578 -0.420976L49.2128 -1.32361V1.67639ZM73.4495 26.4636H76.4495L75.5945 24.3663L73.4495 26.4636ZM21.3514 82.7252H69.5024V76.7252H21.3514V82.7252ZM14.4043 75.7781C14.4043 79.6149 17.5146 82.7252 21.3514 82.7252V76.7252C20.8283 76.7252 20.4043 76.3012 20.4043 75.7781H14.4043ZM14.4043 5.62344V75.7781H20.4043V5.62344H14.4043ZM21.3513 -1.32361C17.5146 -1.32361 14.4043 1.78669 14.4043 5.62344H20.4043C20.4043 5.1004 20.8283 4.67639 21.3513 4.67639V-1.32361ZM49.2128 -1.32361H21.3513V4.67639H49.2128V-1.32361ZM75.5945 24.3663L51.3578 -0.420976L47.0678 3.77376L71.3045 28.561L75.5945 24.3663ZM76.4495 75.7781V26.4636H70.4495V75.7781H76.4495ZM69.5024 82.7252C73.3392 82.7252 76.4495 79.6149 76.4495 75.7781H70.4495C70.4495 76.3012 70.0255 76.7252 69.5024 76.7252V82.7252Z" fill="#87919F" mask="url(#path-1-inside-1_1141_3644)"/>
<path opacity="0.08" d="M49.0955 1.69275L49.0955 1.72643L73.4496 26.5881V30.0512H54.4848C50.4428 30.0512 49.0955 27.2973 49.0955 24.8495L49.0955 1.72643L49.0625 1.69275H49.0955Z" fill="#485674"/>
<path d="M50.6606 22.0624V5.36904L69.8818 25.0019H53.7627C52.4075 25.0019 51.7033 24.5582 51.3118 24.096C50.8823 23.5891 50.6606 22.8574 50.6606 22.0624Z" fill="white" stroke="#87919F" stroke-width="3" stroke-linejoin="round"/>
<line x1="24.1619" y1="51.4356" x2="65.372" y2="51.4356" stroke="#D7DADF" stroke-width="2.4" stroke-linecap="round" stroke-linejoin="round"/>
<line x1="24.1619" y1="39.585" x2="65.372" y2="39.585" stroke="#D7DADF" stroke-width="2.4" stroke-linecap="round" stroke-linejoin="round"/>
<line x1="24.1619" y1="57.3609" x2="65.372" y2="57.3609" stroke="#D7DADF" stroke-width="2.4" stroke-linecap="round" stroke-linejoin="round"/>
<line x1="24.1619" y1="45.5103" x2="65.372" y2="45.5103" stroke="#D7DADF" stroke-width="2.4" stroke-linecap="round" stroke-linejoin="round"/>
<line x1="24.1619" y1="63.2865" x2="57.1192" y2="63.2864" stroke="#D7DADF" stroke-width="2.4" stroke-linecap="round" stroke-linejoin="round"/>
<rect opacity="0.08" x="6.25879" y="38.8468" width="32.694" height="32.694" rx="4" fill="#485674"/>
<rect x="6.25879" y="35.4933" width="32.694" height="32.694" rx="3.15764" fill="#485674"/>
<path d="M14.5154 50.8855L14.2872 52.1881H10.1736L10.4019 50.8855H14.5154ZM11.465 47.5846L10.0567 55.6893H8.42578L9.82852 47.5846H11.465ZM16.241 47.5846L14.8327 55.6893H13.2129L14.6156 47.5846H16.241ZM21.0059 47.5846L19.6031 55.6893H17.9722L19.3805 47.5846H21.0059ZM23.4217 47.5846L23.1935 48.8927H16.7754L17.0036 47.5846H23.4217ZM25.1083 47.5846H26.4331L27.4184 53.5184L30.4632 47.5846H31.8993L27.6577 55.6893H26.5444L25.1083 47.5846ZM24.3346 47.5846H25.715L24.9524 53.4572L24.5572 55.6893H22.9318L24.3346 47.5846ZM31.2313 47.5846H32.6174L31.2146 55.6893H29.5781L29.9956 53.318L31.2313 47.5846ZM37.911 54.3868L37.6828 55.6893H33.714L33.9422 54.3868H37.911ZM35.6566 47.5846L34.2483 55.6893H32.6174L34.0201 47.5846H35.6566Z" fill="white"/>
</svg>
