<svg width="82" height="81" viewBox="0 0 82 81" fill="none" xmlns="http://www.w3.org/2000/svg">
<path d="M33.2742 68.8568L31.9023 71.8158H50.517L49.3065 69.3141C47.8001 66.1937 47.1814 62.7774 47.3697 59.3881H35.0765C35.2379 62.616 34.6461 65.8709 33.2473 68.8568H33.2742Z" fill="white"/>
<path d="M30.8267 67.727L28.7823 72.1385C28.5403 72.6496 28.594 73.2683 28.8899 73.7525C29.2127 74.2367 29.7238 74.5326 30.3156 74.5326H52.1045C52.6963 74.5326 53.2074 74.2367 53.5302 73.7525C53.853 73.2683 53.8799 72.6496 53.6109 72.1385L51.701 68.1843C50.3829 65.4136 49.818 62.4008 50.0332 59.4149H47.3432C47.128 62.8043 47.7736 66.2206 49.28 69.3409L50.4905 71.8426H31.8758L33.2477 68.8836C34.6465 65.8709 35.2383 62.6429 35.0769 59.4149H32.3869C32.5483 62.2663 32.0372 65.1177 30.7998 67.7539L30.8267 67.727Z" fill="#87919F"/>
<path d="M47.3966 59.3881H35.1034C35.211 61.271 34.9958 63.1271 34.5654 64.9832H47.827C47.4235 63.154 47.2621 61.271 47.3697 59.3881H47.3966Z" fill="#EDEDED"/>
<path d="M34.1083 54.035L31.6604 46.6644H50.8131L48.3114 54.3847C47.7734 56.0256 47.4775 57.6933 47.3699 59.388H50.0599C50.1675 57.9892 50.4096 56.5904 50.84 55.2186L53.772 46.2071C53.9334 45.696 53.8527 45.1311 53.53 44.7007C53.2072 44.2703 52.6961 44.0013 52.1581 44.0013H30.2347C29.6967 44.0013 29.1856 44.2703 28.8628 44.7007C28.54 45.1311 28.4593 45.696 28.6207 46.2071L31.499 54.8958C31.9832 56.3752 32.2522 57.8816 32.3598 59.388H35.0498C34.9691 57.5857 34.6463 55.7835 34.0545 54.035H34.1083Z" fill="#87919F"/>
<path d="M75.8571 7.92871H6.617C4.38855 7.92871 2.58203 9.73523 2.58203 11.9637V55.4338C2.58203 57.6622 4.38855 59.4687 6.617 59.4687H75.8571C78.0855 59.4687 79.8921 57.6622 79.8921 55.4338V11.9637C79.8921 9.73523 78.0855 7.92871 75.8571 7.92871Z" fill="white"/>
<path d="M75.83 60.8137H6.61678C3.6578 60.8137 1.23682 58.3928 1.23682 55.4338V11.9637C1.23682 9.00472 3.6578 6.58374 6.61678 6.58374H75.83C78.7889 6.58374 81.2099 9.00472 81.2099 11.9637V55.4069C81.2099 58.3659 78.7889 60.7868 75.83 60.7868V60.8137ZM6.61678 9.27372C5.13729 9.27372 3.9268 10.4842 3.9268 11.9637V55.4069C3.9268 56.8864 5.13729 58.0969 6.61678 58.0969H75.83C77.3095 58.0969 78.5199 56.8864 78.5199 55.4069V11.9637C78.5199 10.4842 77.3095 9.27372 75.83 9.27372H6.61678Z" fill="#87919F"/>
<path d="M78.6545 55.111V54.573C75.9914 54.6806 48.2846 55.7297 38.7352 55.3262C30.8267 54.9765 9.22615 52.2866 3.84619 51.5872V55.111C3.84619 56.994 5.37948 58.5273 7.26247 58.5273H75.1306C75.1306 58.5273 75.2382 58.5273 75.292 58.5273C77.175 58.5273 78.6814 56.994 78.6814 55.1379L78.6545 55.111Z" fill="#EDEDED"/>
<path d="M50.9482 35.6086H61.6006V47.0142C61.6006 47.0142 61.4661 47.2025 61.3585 47.1218L56.2744 42.5757L51.1903 47.1218C51.1903 47.1218 50.9482 47.1218 50.9482 47.0142V35.6086Z" fill="#B1C8FF"/>
<path d="M61.4659 48.2784C61.17 48.2784 60.8741 48.1708 60.632 47.9556L56.2743 44.0552L51.9165 47.9556C51.5399 48.2784 51.0288 48.3591 50.5715 48.1708C50.1142 47.9556 49.8452 47.5252 49.8452 47.0141V34.5057H62.7302V47.0141C62.7302 47.4983 62.4343 47.9556 62.0039 48.1708C61.8425 48.2515 61.6542 48.2784 61.4928 48.2784H61.4659ZM56.2743 41.1231L60.4975 44.916V36.7384H52.051V44.916L56.2743 41.1231Z" fill="#6391FF"/>
<path d="M54.7139 20.8407C55.5747 19.9799 56.9735 19.9799 57.8343 20.8407L57.915 20.9214C58.4261 21.4325 59.1255 21.6477 59.8518 21.5401H59.9594C61.1699 21.3249 62.2997 22.1588 62.488 23.3692V23.4768C62.6225 24.1762 63.0529 24.7949 63.6985 25.1177L63.8061 25.1715C64.8821 25.7364 65.3394 27.0545 64.7745 28.1574L64.7207 28.265C64.3979 28.9106 64.3979 29.6369 64.7207 30.2825L64.7745 30.3901C65.3394 31.4661 64.909 32.8111 63.8061 33.376L63.6985 33.4298C63.0529 33.7526 62.6225 34.3444 62.5149 35.0707V35.1783C62.2997 36.3887 61.1699 37.2226 59.9594 37.0074H59.8518C59.1524 36.8729 58.453 37.115 57.915 37.5992L57.8343 37.6799C56.9735 38.5407 55.5747 38.5407 54.7139 37.6799L54.6332 37.5992C54.1221 37.0881 53.4227 36.8729 52.6965 36.9805H52.5889C51.3784 37.1957 50.2486 36.3618 50.0603 35.1514V35.0438C49.9258 34.3444 49.4954 33.7257 48.8498 33.4029L48.7422 33.3491C47.6662 32.7842 47.2089 31.4661 47.7738 30.3632L47.8276 30.2556C48.1504 29.61 48.1504 28.8837 47.8276 28.2381L47.7738 28.1305C47.2089 27.0545 47.6393 25.7095 48.7422 25.1446L48.8498 25.0908C49.4954 24.768 49.9258 24.1762 50.0334 23.4499V23.3423C50.2486 22.1319 51.3784 21.298 52.5889 21.5132H52.6965C53.3958 21.6477 54.0952 21.4056 54.6332 20.9214L54.7139 20.8407Z" fill="#D8E4FF"/>
<path d="M56.274 39.4284C55.3863 39.4284 54.5524 39.0787 53.9337 38.4331C53.6109 38.0834 53.2343 38.0027 52.8847 38.0296C51.8894 38.191 51.0286 37.9758 50.3023 37.4647C49.576 36.9267 49.1187 36.1736 48.9842 35.2859C48.9035 34.8286 48.6883 34.5327 48.3655 34.3713C47.4778 33.914 46.886 33.2415 46.5901 32.3807C46.2942 31.5199 46.3749 30.6322 46.8053 29.8521C47.0205 29.4486 47.0205 29.0451 46.8591 28.7223C46.4018 27.8346 46.3211 26.92 46.617 26.0861C46.9129 25.2522 47.4778 24.5528 48.2848 24.1493C48.7152 23.9341 48.9304 23.6382 48.9842 23.2885C49.1187 22.2933 49.6029 21.5132 50.3292 21.0021C51.0555 20.491 51.9432 20.2758 52.8039 20.4103C53.2612 20.491 53.6378 20.3565 53.8799 20.1144L54.7407 20.8138L53.9606 20.0337C55.198 18.7694 57.4038 18.7694 58.6412 20.0337C58.9909 20.3834 59.3406 20.4641 59.6903 20.4372C60.6856 20.2758 61.5464 20.491 62.2727 21.0021C62.999 21.5401 63.4563 22.2933 63.5908 23.1809C63.6715 23.6382 63.8867 23.9341 64.1826 24.0955C65.0703 24.5528 65.6621 25.2253 65.9579 26.0861C66.2538 26.9469 66.1731 27.8346 65.7428 28.6416C65.5276 29.0451 65.5276 29.4486 65.689 29.7445C66.1462 30.6322 66.2269 31.5468 65.931 32.3807C65.6352 33.2146 65.0703 33.914 64.2633 34.3175C63.8329 34.5327 63.6177 34.8286 63.5639 35.1783C63.4294 36.1736 62.9452 36.9536 62.2189 37.4647C61.4926 38.0027 60.6049 38.191 59.7441 38.0565C59.2868 37.9758 58.9102 38.1103 58.6681 38.3524C57.9687 39.0518 57.1348 39.4015 56.2471 39.4015L56.274 39.4284ZM53.046 35.8508C53.9606 35.8508 54.7945 36.2004 55.4132 36.8191C55.9781 37.4109 56.6506 37.3302 57.0541 36.8998C57.888 36.066 58.964 35.7163 60.0131 35.8777C60.4166 35.9315 60.7125 35.8777 60.9546 35.6894C61.1967 35.5011 61.3581 35.259 61.385 34.9631C61.5733 33.8064 62.2189 32.8649 63.1873 32.4076C63.5639 32.2193 63.7522 32.0041 63.8598 31.7082C63.9674 31.4123 63.9405 31.1164 63.7791 30.8743C63.2411 29.8252 63.2411 28.6954 63.7253 27.7539C63.9136 27.3773 63.9405 27.0814 63.8329 26.8124C63.7522 26.5434 63.537 26.3013 63.268 26.1668C62.2189 25.6288 61.5464 24.7142 61.385 23.6651C61.3312 23.2616 61.1698 22.9926 60.9277 22.8312C60.6856 22.6429 60.3897 22.5891 60.0938 22.6429C58.9371 22.8312 57.8611 22.4815 57.081 21.7284C56.5161 21.1366 55.8705 21.2173 55.4401 21.6477L55.3594 21.7284C54.6062 22.4815 53.5302 22.8312 52.4811 22.6698C52.0777 22.5891 51.7818 22.6698 51.5397 22.8581C51.2976 23.0464 51.1362 23.2885 51.1093 23.5844C50.921 24.7411 50.2754 25.6826 49.307 26.1399C48.9304 26.3282 48.7421 26.5434 48.6614 26.8393C48.5807 27.1083 48.5807 27.4311 48.7421 27.7001C49.2801 28.7492 49.2801 29.879 48.7959 30.8205C48.6076 31.1971 48.5807 31.493 48.6883 31.762C48.769 32.031 48.9842 32.2731 49.2532 32.4076C50.3023 32.9456 50.9748 33.8602 51.1362 34.9093C51.19 35.3128 51.3514 35.5818 51.5935 35.7432C51.8356 35.9315 52.1315 35.9853 52.4274 35.9315C52.6426 35.9046 52.8308 35.8777 53.046 35.8777V35.8508Z" fill="#6391FF"/>
<path d="M56.2742 32.9994C58.3393 32.9994 60.0133 31.3253 60.0133 29.2603C60.0133 27.1953 58.3393 25.5212 56.2742 25.5212C54.2092 25.5212 52.5352 27.1953 52.5352 29.2603C52.5352 31.3253 54.2092 32.9994 56.2742 32.9994Z" fill="white"/>
<path d="M56.2741 34.1023C53.5841 34.1023 51.4321 31.9234 51.4321 29.2603C51.4321 26.5972 53.611 24.4183 56.2741 24.4183C58.9372 24.4183 61.1161 26.5972 61.1161 29.2603C61.1161 31.9234 58.9372 34.1023 56.2741 34.1023ZM56.2741 26.6241C54.8215 26.6241 53.6379 27.8077 53.6379 29.2603C53.6379 30.7129 54.8215 31.8965 56.2741 31.8965C57.7267 31.8965 58.9103 30.7129 58.9103 29.2603C58.9103 27.8077 57.7267 26.6241 56.2741 26.6241Z" fill="#6391FF"/>
<path d="M32.1448 51.5872C31.3916 51.5872 30.7998 50.9954 30.7998 50.2422V24.7143C30.7998 23.9611 31.3916 23.3693 32.1448 23.3693C32.898 23.3693 33.4898 23.9611 33.4898 24.7143V50.2422C33.4898 50.9954 32.898 51.5872 32.1448 51.5872Z" fill="#DADADA"/>
<path d="M24.4785 26.1668H8.9304C8.3655 26.1668 7.9082 25.7095 7.9082 25.1446C7.9082 24.5797 8.3655 24.1224 8.9304 24.1224H24.4785C25.0434 24.1224 25.5007 24.5797 25.5007 25.1446C25.5007 25.7095 25.0434 26.1668 24.4785 26.1668Z" fill="#DADADA"/>
<path d="M8.92995 16.9671C8.58025 16.9671 8.23056 16.8326 7.98846 16.5905C7.85396 16.456 7.74636 16.2946 7.69256 16.1332C7.61186 15.9718 7.58496 15.8104 7.58496 15.6221C7.58496 15.4607 7.58496 15.2724 7.69256 15.111C7.74636 14.9496 7.85396 14.7882 7.98846 14.6806C8.36506 14.304 8.95685 14.1964 9.44105 14.3847C9.60245 14.4654 9.76384 14.5461 9.87144 14.6806C10.0059 14.7882 10.1135 14.9496 10.1673 15.111C10.248 15.2724 10.2749 15.4607 10.2749 15.6221C10.2749 15.8104 10.248 15.9718 10.1673 16.1332C10.1135 16.2946 10.0059 16.456 9.87144 16.5905C9.76384 16.6981 9.60245 16.8057 9.44105 16.8864C9.27965 16.9402 9.11825 16.9671 8.92995 16.9671Z" fill="#FF3549"/>
<path d="M12.7498 16.967C12.4001 16.967 12.0504 16.8325 11.8083 16.5904C11.6738 16.456 11.5662 16.3215 11.5124 16.1332C11.4317 15.9718 11.4048 15.8104 11.4048 15.6221C11.4048 15.4607 11.4048 15.2724 11.5124 15.111C11.5662 14.9496 11.6738 14.8151 11.8083 14.6806C12.3194 14.1695 13.1802 14.1695 13.6913 14.6806C13.8258 14.8151 13.9334 14.9496 13.9872 15.111C14.0679 15.2724 14.0948 15.4607 14.0948 15.6221C14.0948 15.8104 14.0679 15.9718 13.9872 16.1332C13.9334 16.3215 13.8258 16.456 13.6913 16.5904C13.5837 16.698 13.4223 16.8056 13.2609 16.8594C13.0995 16.9401 12.9381 16.967 12.7498 16.967Z" fill="#F2C949"/>
<path d="M16.489 16.9671C16.3007 16.9671 16.1393 16.9402 15.9779 16.8595C15.8165 16.8057 15.6551 16.6981 15.5206 16.5905C15.413 16.456 15.3054 16.2946 15.2516 16.1332C15.1709 15.9718 15.144 15.8104 15.144 15.6221C15.144 15.4607 15.144 15.2724 15.2516 15.111C15.3054 14.9496 15.413 14.8151 15.5206 14.6806C15.6551 14.5461 15.8165 14.4654 15.9779 14.3847C16.3007 14.2502 16.6773 14.2502 17.0001 14.3847C17.1615 14.4654 17.296 14.5461 17.4305 14.6806C17.565 14.8151 17.6457 14.9496 17.7264 15.111C17.7802 15.2724 17.834 15.4607 17.834 15.6221C17.834 15.8104 17.7802 15.9718 17.7264 16.1332C17.6457 16.2946 17.565 16.456 17.4305 16.5905C17.296 16.6981 17.1615 16.8057 17.0001 16.8595C16.8387 16.9402 16.6504 16.9671 16.489 16.9671Z" fill="#41CC84"/>
<path d="M22.9183 31.5198H8.93039C8.3655 31.5198 7.9082 31.0626 7.9082 30.4977C7.9082 29.9328 8.3655 29.4755 8.93039 29.4755H22.9183C23.4832 29.4755 23.9405 29.9328 23.9405 30.4977C23.9405 31.0626 23.4832 31.5198 22.9183 31.5198Z" fill="#DADADA"/>
<path d="M17.619 36.8999H8.9304C8.3655 36.8999 7.9082 36.4426 7.9082 35.8777C7.9082 35.3128 8.3655 34.8555 8.9304 34.8555H17.619C18.1839 34.8555 18.6412 35.3128 18.6412 35.8777C18.6412 36.4426 18.1839 36.8999 17.619 36.8999Z" fill="#DADADA"/>
<path d="M20.9543 47.1217H10.0598C9.14524 47.1217 8.41895 46.3954 8.41895 45.4808C8.41895 44.5662 9.17214 43.7861 10.0598 43.7861H20.9543C21.8688 43.7861 22.5951 44.5124 22.5951 45.427C22.5951 46.3416 21.8419 47.1217 20.9543 47.1217ZM10.0598 45.1311C9.89843 45.1311 9.76394 45.2656 9.76394 45.427C9.76394 45.6422 9.89843 45.7767 10.0598 45.7767H20.9543C21.1157 45.7767 21.2502 45.6422 21.2502 45.4808C21.2502 45.2656 21.1157 45.1311 20.9543 45.1311H10.0598Z" fill="#41CC84"/>
<path d="M78.6546 54.573V12.2865C78.6546 10.4035 77.1213 8.87024 75.2383 8.87024H7.23561C5.35262 8.87024 3.81934 10.4035 3.81934 12.2865V51.5871C9.19929 52.2596 30.7998 54.9765 38.7084 55.3262C48.2578 55.7566 75.9915 54.6806 78.6277 54.573H78.6546Z" fill="white"/>
<path d="M54.2832 34.8016H65.7157V47.041C65.7157 47.1755 65.5543 47.2562 65.4467 47.1486L59.986 42.2798L54.5253 47.1486C54.5253 47.1486 54.2563 47.1486 54.2563 47.041V34.8016H54.2832Z" fill="#B1C8FF"/>
<path d="M65.5811 48.3861C65.2583 48.3861 64.9355 48.2785 64.6934 48.0364L60.0128 43.8669L55.3322 48.0364C54.9288 48.3861 54.3639 48.4668 53.9066 48.2516C53.4224 48.0364 53.1265 47.5522 53.1265 47.0142V33.5912H66.9261V47.0142C66.9261 47.5253 66.6033 48.0364 66.146 48.2516C65.9846 48.3323 65.7963 48.3592 65.5811 48.3592V48.3861ZM60.0128 40.7196L64.5589 44.7815V36.0122H55.4936V44.7815L60.0397 40.7196H60.0128Z" fill="#6391FF"/>
<path d="M58.3452 18.9577C59.2867 18.0162 60.7661 18.0162 61.7076 18.9577L61.7883 19.0653C62.3263 19.6033 63.1064 19.8454 63.8596 19.7378H63.9941C65.2853 19.4957 66.5227 20.4103 66.711 21.7015V21.836C66.8455 22.5892 67.3297 23.2348 68.0022 23.5845L68.1098 23.6383C69.2665 24.2301 69.7507 25.6558 69.1589 26.8393L69.1051 26.9469C68.7554 27.6194 68.7554 28.4264 69.1051 29.0989L69.1589 29.2065C69.7507 30.3632 69.2934 31.8158 68.1098 32.4076L68.0022 32.4614C67.3297 32.8111 66.8455 33.4567 66.711 34.2099V34.3444C66.4958 35.6356 65.2853 36.5502 63.9672 36.3081H63.8327C63.0795 36.1736 62.3263 36.4157 61.7614 36.9537L61.6807 37.0613C60.7392 38.0028 59.2598 38.0028 58.3183 37.0613L58.2376 36.9537C57.6996 36.4157 56.9195 36.1736 56.1663 36.2812H56.0318C54.7406 36.5233 53.5032 35.6087 53.3149 34.3175V34.183C53.1804 33.4298 52.6962 32.7842 52.0237 32.4345L51.9161 32.3807C50.7594 31.7889 50.2752 30.3632 50.867 29.1796L50.9208 29.072C51.2705 28.3995 51.2705 27.5925 50.9208 26.92L50.867 26.8124C50.2752 25.6558 50.7325 24.2032 51.9161 23.6114L52.0237 23.5576C52.6962 23.2079 53.1804 22.5623 53.3149 21.8091V21.6746C53.5301 20.3834 54.7406 19.4688 56.0318 19.7109H56.1663C56.9195 19.8454 57.6727 19.6033 58.2376 19.0653L58.3183 18.9577H58.3452Z" fill="#D8E4FF"/>
<path d="M60.013 38.8904C59.0715 38.8904 58.1569 38.5138 57.4844 37.8413C57.1347 37.4916 56.7312 37.3571 56.3546 37.4109C55.2786 37.5723 54.3641 37.3571 53.584 36.7922C52.8039 36.2273 52.2928 35.3935 52.1583 34.452C52.0776 33.9409 51.8355 33.6181 51.4858 33.4567C50.5174 32.9725 49.8987 32.2462 49.6028 31.3316C49.3069 30.417 49.3876 29.4486 49.818 28.6147C50.0601 28.1843 50.0601 27.7539 49.8718 27.4042C49.3876 26.4358 49.3069 25.4674 49.6028 24.5797C49.8987 23.692 50.5443 22.9388 51.3782 22.5084C51.8355 22.2932 52.0776 21.9435 52.1314 21.567C52.2928 20.5179 52.8039 19.684 53.5571 19.1191C54.3372 18.5542 55.2787 18.339 56.2201 18.5004C56.7043 18.5811 57.1078 18.4466 57.3768 18.1776L58.3183 18.9308L57.4844 18.0969C58.8294 16.7519 61.1697 16.7519 62.5147 18.0969C62.8644 18.4466 63.2679 18.5811 63.6445 18.5273C64.6936 18.3659 65.6351 18.5811 66.4152 19.146C67.1953 19.7109 67.7064 20.5448 67.8409 21.4863C67.9216 21.9973 68.1637 22.3201 68.4865 22.4815C69.4548 22.9657 70.0735 23.692 70.3694 24.6066C70.6653 25.5212 70.5846 26.4896 70.1542 27.3235C69.9121 27.7539 69.9121 28.1843 70.1004 28.5071C70.5846 29.4755 70.6653 30.4439 70.3694 31.3316C70.0735 32.2193 69.4279 32.9725 68.5941 33.4029C68.1368 33.6181 67.8947 33.9678 67.8409 34.3444C67.6795 35.3935 67.1684 36.2273 66.4152 36.7922C65.6351 37.3571 64.6936 37.5723 63.7521 37.4109C63.241 37.3302 62.8644 37.4647 62.5954 37.7337C61.8422 38.4869 60.9276 38.8635 59.9861 38.8635L60.013 38.8904ZM56.5429 35.0438C57.5382 35.0438 58.4259 35.4204 59.0715 36.0928C59.6902 36.7115 60.3896 36.6308 60.8469 36.2004C61.7346 35.3128 62.8913 34.9093 64.0211 35.1245C64.4515 35.1783 64.7743 35.1245 65.0433 34.9362C65.2854 34.7479 65.4737 34.4789 65.5275 34.1561C65.7158 32.9187 66.4152 31.9234 67.4643 31.4123C67.8678 31.1971 68.0561 30.9819 68.1637 30.6591C68.2713 30.3363 68.2444 30.0404 68.083 29.7714C67.4912 28.6416 67.4912 27.4311 68.0292 26.4089C68.2444 26.0054 68.2444 25.7095 68.1637 25.3867C68.0561 25.0908 67.8409 24.8218 67.5719 24.6873C66.4421 24.1224 65.7158 23.154 65.5544 21.9973C65.5006 21.567 65.3123 21.298 65.0702 21.1097C64.8281 20.9214 64.5053 20.8407 64.1825 20.8945C62.9451 21.1097 61.7884 20.7331 60.9545 19.9261C60.3358 19.3074 59.6364 19.3881 59.1791 19.8185L59.0984 19.8992C58.2914 20.7331 57.1347 21.0828 56.0049 20.9214C55.5745 20.8407 55.2517 20.9214 54.9828 21.1097C54.7407 21.298 54.5524 21.567 54.4986 21.8897C54.3103 23.1271 53.6109 24.1224 52.5618 24.6335C52.1583 24.8487 51.97 25.0639 51.8624 25.3867C51.7548 25.6826 51.7817 26.0054 51.9431 26.3013C52.5349 27.4311 52.5349 28.6416 51.9969 29.6638C51.7817 30.0673 51.7817 30.3632 51.8624 30.686C51.97 30.9819 52.1852 31.2509 52.4542 31.3854C53.584 31.9503 54.3103 32.9187 54.4717 34.0754C54.5255 34.5058 54.7138 34.7748 54.9559 34.9631C55.1979 35.1514 55.5207 35.2321 55.8435 35.1783C56.0587 35.1514 56.2739 35.1245 56.516 35.1245L56.5429 35.0438Z" fill="#6391FF"/>
<path d="M60.013 32.0309C62.2414 32.0309 64.048 30.2244 64.048 27.9959C64.048 25.7675 62.2414 23.9609 60.013 23.9609C57.7845 23.9609 55.978 25.7675 55.978 27.9959C55.978 30.2244 57.7845 32.0309 60.013 32.0309Z" fill="white"/>
<path d="M60.013 33.1876C57.1347 33.1876 54.7944 30.8473 54.7944 27.969C54.7944 25.0908 57.1347 22.7505 60.013 22.7505C62.8913 22.7505 65.2316 25.0908 65.2316 27.969C65.2316 30.8473 62.8913 33.1876 60.013 33.1876ZM60.013 25.1446C58.4528 25.1446 57.1616 26.4358 57.1616 27.9959C57.1616 29.5561 58.4528 30.8473 60.013 30.8473C61.5732 30.8473 62.8644 29.5561 62.8644 27.9959C62.8644 26.4358 61.5732 25.1446 60.013 25.1446Z" fill="#6391FF"/>
<path d="M34.1352 51.9099C33.3282 51.9099 32.6826 51.2643 32.6826 50.4573V23.1002C32.6826 22.2932 33.3282 21.6476 34.1352 21.6476C34.9422 21.6476 35.5878 22.2932 35.5878 23.1002V50.4842C35.5878 51.2912 34.9422 51.9368 34.1352 51.9368V51.9099Z" fill="#DADADA"/>
<path d="M25.9038 24.6604H9.19904C8.60724 24.6604 8.12305 24.1762 8.12305 23.5844C8.12305 22.9926 8.60724 22.5084 9.19904 22.5084H25.8769C26.4687 22.5084 26.9529 22.9926 26.9529 23.5844C26.9529 24.1762 26.4687 24.6604 25.8769 24.6604H25.9038Z" fill="#DADADA"/>
<path d="M9.19913 14.7882C9.03773 14.7882 8.82253 14.7613 8.66113 14.6806C8.49973 14.6268 8.33833 14.5192 8.20383 14.3578C7.93484 14.0888 7.77344 13.7122 7.77344 13.3356C7.77344 12.959 7.93484 12.5824 8.20383 12.3134C8.33833 12.1789 8.49973 12.0444 8.66113 11.9906C9.19913 11.7754 9.84472 11.9099 10.2482 12.3134C10.5172 12.5824 10.6786 12.959 10.6786 13.3356C10.6786 13.7122 10.5172 14.0888 10.2482 14.3578C10.1137 14.4923 9.95232 14.6268 9.79092 14.6806C9.60262 14.7613 9.41433 14.7882 9.22603 14.7882H9.19913Z" fill="#FF3549"/>
<path d="M13.2879 14.7881C13.1266 14.7881 12.9114 14.7612 12.75 14.6805C12.5886 14.6267 12.4272 14.5191 12.2927 14.3577C12.1582 14.2501 12.0506 14.0618 11.9699 13.9004C11.9161 13.739 11.8892 13.5507 11.8892 13.3624C11.8892 13.1741 11.9161 12.9858 11.9699 12.8244C12.0506 12.6631 12.1313 12.4748 12.2927 12.3672C12.4272 12.2327 12.5886 12.0982 12.75 12.0444C13.0997 11.9099 13.5031 11.9099 13.8797 12.0444C14.0411 12.0982 14.2025 12.2058 14.337 12.3672C14.4715 12.4748 14.5791 12.6631 14.6598 12.8244C14.7136 12.9858 14.7405 13.1741 14.7405 13.3624C14.7405 13.5507 14.7136 13.739 14.6598 13.9004C14.5791 14.0618 14.4984 14.2501 14.337 14.3577C14.2025 14.4922 14.0411 14.6267 13.8797 14.6805C13.7183 14.7612 13.5031 14.7881 13.3148 14.7881H13.2879Z" fill="#F2C949"/>
<path d="M17.3227 14.7882C16.9461 14.7882 16.5695 14.6537 16.3005 14.3847C16.0046 14.0888 15.8701 13.7122 15.8701 13.3356C15.8701 12.959 16.0046 12.5824 16.3005 12.3134C16.4081 12.1789 16.5964 12.0444 16.7578 11.9906C17.1075 11.8561 17.511 11.8561 17.8607 11.9906C18.0221 12.0444 18.2104 12.152 18.318 12.3134C18.6139 12.5824 18.7484 12.959 18.7484 13.3356C18.7484 13.5508 18.7215 13.7122 18.6408 13.8736C18.587 14.035 18.4794 14.2233 18.318 14.3578C18.2104 14.4654 18.0221 14.573 17.8607 14.6537C17.6993 14.7344 17.511 14.7613 17.3227 14.7613V14.7882Z" fill="#41CC84"/>
<path d="M24.2091 30.417H9.19904C8.60724 30.417 8.12305 29.9328 8.12305 29.341C8.12305 28.7492 8.60724 28.265 9.19904 28.265H24.2091C24.8009 28.265 25.2851 28.7492 25.2851 29.341C25.2851 29.9328 24.8009 30.417 24.2091 30.417Z" fill="#DADADA"/>
<path d="M18.5333 36.1735H9.19904C8.60724 36.1735 8.12305 35.6893 8.12305 35.0975C8.12305 34.5057 8.60724 34.0215 9.19904 34.0215H18.5333C19.1251 34.0215 19.6093 34.5057 19.6093 35.0975C19.6093 35.6893 19.1251 36.1735 18.5333 36.1735Z" fill="#DADADA"/>
<path d="M22.1379 47.1486H10.4365C9.46813 47.1486 8.66113 46.3416 8.66113 45.3732C8.66113 44.4048 9.46813 43.5709 10.4365 43.5709H22.1379C23.1063 43.5709 23.9133 44.3779 23.9133 45.3463C23.9133 46.3147 23.1063 47.1486 22.1379 47.1486ZM10.4365 45.0235C10.2482 45.0235 10.1137 45.158 10.1137 45.3463C10.1137 45.5615 10.2482 45.7229 10.4365 45.7229H22.1379C22.3262 45.7229 22.4607 45.5884 22.4607 45.4001C22.4607 45.1849 22.3262 45.0235 22.1379 45.0235H10.4365Z" fill="#41CC84"/>
</svg>
