<svg width="81" height="81" viewBox="0 0 81 81" fill="none" xmlns="http://www.w3.org/2000/svg">
<path d="M51.321 73.8723L78.2586 43.9516C77.8134 43.658 76.6909 43.2419 76.2947 41.7375C75.9248 40.3329 76.5478 38.0246 76.7899 36.8723L50.6411 64.8151L7.74735 56.492C7.74735 56.492 2.72003 55.5761 1.90914 59.6795C1.21255 63.2044 5.46497 64.1794 5.46497 64.1794L51.321 73.8723Z" fill="#D7DADF"/>
<path fill-rule="evenodd" clip-rule="evenodd" d="M51.3691 63.6488L50.7404 64.3418L7.7593 55.739C7.7593 55.739 2.72174 54.7923 1.90919 59.0336C1.21119 62.677 5.50855 64.8723 5.50855 64.8723L51.3209 73.7473L51.3691 73.6922V63.6488Z" fill="white"/>
<path d="M78.7624 44.3414L51.9463 74.8099L5.44612 65.1849C5.44612 65.1849 1.18314 63.9803 2.0336 59.5419C2.8463 55.3007 7.9462 55.5599 7.9462 55.5599" stroke="#87919F" stroke-width="3" stroke-linecap="round"/>
<path d="M51.2317 63.6809L78.1692 33.7602C77.7241 33.4666 76.6015 33.0505 76.2053 31.5461C75.8354 30.1415 76.4584 27.8332 76.7006 26.6809L50.5517 54.6237L7.65799 46.3006C7.65799 46.3006 2.63067 45.3847 1.81978 49.4881C1.1232 53.013 5.37562 53.988 5.37562 53.988L51.2317 63.6809Z" fill="#D7DADF"/>
<path fill-rule="evenodd" clip-rule="evenodd" d="M51.2798 53.4573L50.6511 54.1504L7.66995 45.5476C7.66995 45.5476 2.63238 44.6009 1.81984 48.8422C1.12184 52.4856 5.41919 54.6809 5.41919 54.6809L51.2316 63.5559L51.2798 63.5008V53.4573Z" fill="white"/>
<path d="M78.673 34.15L51.8569 64.6185L5.35677 54.9935C5.35677 54.9935 1.09378 53.7889 1.94424 49.3505C2.75694 45.1093 7.85685 45.3685 7.85685 45.3685" stroke="#87919F" stroke-width="3" stroke-linecap="round"/>
<path d="M51.2317 53.3678L78.1692 23.4471C77.7241 23.1534 76.6015 22.7373 76.2053 21.233C75.8354 19.8284 76.4584 17.5201 76.7006 16.3678L50.5517 44.3106L7.65799 35.9875C7.65799 35.9875 2.63067 35.0716 1.81978 39.1749C1.1232 42.6999 5.37562 43.6749 5.37562 43.6749L51.2317 53.3678Z" fill="#D7DADF"/>
<path fill-rule="evenodd" clip-rule="evenodd" d="M51.2798 43.1442L50.6511 43.8373L7.66995 35.2345C7.66995 35.2345 2.63238 34.2877 1.81984 38.529C1.12184 42.1725 5.41919 44.3678 5.41919 44.3678L51.2316 53.2428L51.2798 53.1877V43.1442Z" fill="white"/>
<path d="M78.673 23.8368L51.8569 54.3052L5.35677 44.6802C5.35677 44.6802 1.09378 43.4757 1.94424 39.0373C2.75694 34.796 7.85685 35.0552 7.85685 35.0552" stroke="#87919F" stroke-width="3" stroke-linecap="round"/>
<path d="M32.8597 5.66341L76.0128 14.0202C76.3943 14.0941 76.5494 14.5559 76.2899 14.845L50.6906 43.3666L5.21255 34.484L30.5288 6.44252C31.1157 5.79246 31.9999 5.4969 32.8597 5.66341Z" fill="#D8E4FF" stroke="#87919F" stroke-width="3"/>
<path d="M35.4767 13.9654C35.7134 13.7149 36.0623 13.604 36.4002 13.6718L56.9539 17.7945C57.7243 17.949 58.0237 18.8908 57.4841 19.4618L54.7697 22.3338C54.5331 22.5843 54.1841 22.6952 53.8463 22.6274L33.2925 18.5047C32.5222 18.3502 32.2227 17.4084 32.7624 16.8374L35.4767 13.9654Z" fill="#6391FF"/>
</svg>
