<svg width="81" height="81" viewBox="0 0 81 81" fill="none" xmlns="http://www.w3.org/2000/svg">
<g clip-path="url(#clip0_1141_3626)">
<path d="M66.0184 6.43201H14.2384C11.7531 6.43201 9.7384 8.44673 9.7384 10.932V74.912C9.7384 77.3973 11.7531 79.412 14.2384 79.412H66.0184C68.5037 79.412 70.5184 77.3973 70.5184 74.912V10.932C70.5184 8.44673 68.5037 6.43201 66.0184 6.43201Z" fill="white"/>
<path d="M66.0184 80.912H14.2384C10.9384 80.912 8.2384 78.212 8.2384 74.912V10.932C8.2384 7.63201 10.9384 4.93201 14.2384 4.93201H66.0184C69.3184 4.93201 72.0184 7.63201 72.0184 10.932V74.912C72.0184 78.212 69.3184 80.912 66.0184 80.912ZM14.2384 7.93201C12.5784 7.93201 11.2384 9.27201 11.2384 10.932V74.912C11.2384 76.572 12.5784 77.912 14.2384 77.912H66.0184C67.6784 77.912 69.0184 76.572 69.0184 74.912V10.932C69.0184 9.27201 67.6784 7.93201 66.0184 7.93201H14.2384Z" fill="#87919F"/>
<g opacity="0.08">
<path d="M50.8584 8.07202H29.3984C28.2939 8.07202 27.3984 8.96745 27.3984 10.072V12.532C27.3984 13.6366 28.2939 14.532 29.3984 14.532H50.8584C51.963 14.532 52.8584 13.6366 52.8584 12.532V10.072C52.8584 8.96745 51.963 8.07202 50.8584 8.07202Z" fill="#2B3242"/>
</g>
<path d="M27.3984 3.43201C27.3984 2.33201 28.2984 1.43201 29.3984 1.43201H50.8584C51.9584 1.43201 52.8584 2.33201 52.8584 3.43201V10.132C52.8584 11.232 51.9584 12.132 50.8584 12.132H29.3984C28.2984 12.132 27.3984 11.232 27.3984 10.132V3.43201Z" fill="#87919F"/>
<path d="M30.6986 70.252C30.3186 70.252 29.9386 70.112 29.6386 69.812L19.5786 59.752C18.9986 59.172 18.9986 58.212 19.5786 57.632C20.1586 57.052 21.1186 57.052 21.6986 57.632L31.7586 67.692C32.3386 68.272 32.3386 69.232 31.7586 69.812C31.4586 70.112 31.0786 70.252 30.6986 70.252Z" fill="#F86161"/>
<path d="M20.6386 70.252C20.2586 70.252 19.8786 70.112 19.5786 69.812C18.9986 69.232 18.9986 68.272 19.5786 67.692L29.6386 57.632C30.2186 57.052 31.1786 57.052 31.7586 57.632C32.3386 58.212 32.3386 59.172 31.7586 59.752L21.6986 69.812C21.3986 70.112 21.0186 70.252 20.6386 70.252Z" fill="#F86161"/>
<path d="M47.3382 68.012H41.6582C40.8382 68.012 40.1582 67.332 40.1582 66.512C40.1582 65.692 40.8382 65.012 41.6582 65.012H47.3382C48.1582 65.012 48.8382 65.692 48.8382 66.512C48.8382 67.332 48.1582 68.012 47.3382 68.012Z" fill="#D7DADF"/>
<path d="M59.1382 62.272H40.6582C39.8382 62.272 39.1582 61.592 39.1582 60.772C39.1582 59.952 39.8382 59.272 40.6582 59.272H59.1382C59.9582 59.272 60.6382 59.952 60.6382 60.772C60.6382 61.592 59.9582 62.272 59.1382 62.272Z" fill="#D7DADF"/>
<path d="M47.3382 31.212H41.6582C40.8382 31.212 40.1582 30.532 40.1582 29.712C40.1582 28.892 40.8382 28.212 41.6582 28.212H47.3382C48.1582 28.212 48.8382 28.892 48.8382 29.712C48.8382 30.532 48.1582 31.212 47.3382 31.212Z" fill="#D7DADF"/>
<path d="M59.1382 25.652H40.6582C39.8382 25.652 39.1582 24.972 39.1582 24.152C39.1582 23.332 39.8382 22.652 40.6582 22.652H59.1382C59.9582 22.652 60.6382 23.332 60.6382 24.152C60.6382 24.972 59.9582 25.652 59.1382 25.652Z" fill="#D7DADF"/>
<path d="M23.6785 32.112C23.2785 32.112 22.8985 31.952 22.6185 31.672L18.5385 27.592C17.9585 27.012 17.9585 26.052 18.5385 25.472C19.1185 24.892 20.0785 24.892 20.6585 25.472L23.6785 28.492L31.4785 20.692C32.0585 20.112 33.0185 20.112 33.5985 20.692C34.1785 21.272 34.1785 22.232 33.5985 22.812L24.7385 31.672C24.4585 31.952 24.0785 32.112 23.6785 32.112Z" fill="#41CC84"/>
<path d="M47.3382 50.192H41.6582C40.8382 50.192 40.1582 49.512 40.1582 48.692C40.1582 47.872 40.8382 47.192 41.6582 47.192H47.3382C48.1582 47.192 48.8382 47.872 48.8382 48.692C48.8382 49.512 48.1582 50.192 47.3382 50.192Z" fill="#D7DADF"/>
<path d="M59.1382 44.652H40.6582C39.8382 44.652 39.1582 43.972 39.1582 43.152C39.1582 42.332 39.8382 41.652 40.6582 41.652H59.1382C59.9582 41.652 60.6382 42.332 60.6382 43.152C60.6382 43.972 59.9582 44.652 59.1382 44.652Z" fill="#D7DADF"/>
<path d="M23.6785 51.0921C23.2785 51.0921 22.8985 50.9321 22.6185 50.6521L18.5385 46.5721C17.9585 45.9921 17.9585 45.0321 18.5385 44.4521C19.1185 43.8721 20.0785 43.8721 20.6585 44.4521L23.6785 47.4721L31.4785 39.6721C32.0585 39.0921 33.0185 39.0921 33.5985 39.6721C34.1785 40.2521 34.1785 41.2121 33.5985 41.7921L24.7385 50.6521C24.4585 50.9321 24.0785 51.0921 23.6785 51.0921Z" fill="#41CC84"/>
</g>
<defs>
<clipPath id="clip0_1141_3626">
<rect width="63.78" height="79.48" fill="white" transform="translate(8.2384 1.43201)"/>
</clipPath>
</defs>
</svg>
