<svg width="81" height="81" viewBox="0 0 81 81" fill="none" xmlns="http://www.w3.org/2000/svg">
<g clip-path="url(#clip0_1141_3642)">
<path d="M17.9818 64.4179H8.60653V42.8579H17.9818C18.8099 42.8579 19.4605 42.2072 19.4605 41.3791C19.4605 40.551 18.8099 39.9004 17.9818 39.9004H8.60653V29.0168C8.60653 28.1887 7.95589 27.5381 7.12779 27.5381C6.2997 27.5381 5.64905 28.1887 5.64905 29.0168V65.8967C5.64905 66.7248 6.2997 67.3754 7.12779 67.3754H17.9818C18.8099 67.3754 19.4605 66.7248 19.4605 65.8967C19.4605 65.0686 18.8099 64.4179 17.9818 64.4179Z" fill="#87919F"/>
<path d="M50.8098 6.95398H5.41242C2.84802 6.95398 0.769165 9.03284 0.769165 11.5972V18.7839C0.769165 21.3483 2.84802 23.4272 5.41242 23.4272H50.8098C53.3742 23.4272 55.4531 21.3483 55.4531 18.7839V11.5972C55.4531 9.03284 53.3742 6.95398 50.8098 6.95398Z" fill="#6391FF"/>
<path d="M76.126 33.1572H30.7286C28.1642 33.1572 26.0853 35.2361 26.0853 37.8005V44.9872C26.0853 47.5516 28.1642 49.6304 30.7286 49.6304H76.126C78.6904 49.6304 80.7692 47.5516 80.7692 44.9872V37.8005C80.7692 35.2361 78.6904 33.1572 76.126 33.1572Z" fill="#D8E4FF"/>
<path d="M76.126 57.6749H30.7286C28.1642 57.6749 26.0853 59.7538 26.0853 62.3182V69.5049C26.0853 72.0693 28.1642 74.1481 30.7286 74.1481H76.126C78.6904 74.1481 80.7692 72.0693 80.7692 69.5049V62.3182C80.7692 59.7538 78.6904 57.6749 76.126 57.6749Z" fill="#D8E4FF"/>
</g>
<defs>
<clipPath id="clip0_1141_3642">
<rect width="80" height="80" fill="white" transform="translate(0.769165 0.551025)"/>
</clipPath>
</defs>
</svg>
