<svg width="81" height="81" viewBox="0 0 81 81" fill="none" xmlns="http://www.w3.org/2000/svg">
<rect x="1.6405" y="14.1458" width="77" height="53.2042" rx="12.5" fill="white" stroke="#87919F" stroke-width="3"/>
<path opacity="0.08" fill-rule="evenodd" clip-rule="evenodd" d="M3.23645 51.7968V55.7968C3.23645 61.3196 7.7136 65.7968 13.2365 65.7968H67.0446C72.5674 65.7968 77.0446 61.3196 77.0446 55.7968V51.7968C77.0446 57.3196 72.5674 61.7968 67.0446 61.7968H13.2365C7.7136 61.7968 3.23645 57.3196 3.23645 51.7968Z" fill="#2B3242"/>
<path d="M50.9111 42.0828L33.5407 50.9838C32.5425 51.4952 31.3566 50.7704 31.3566 49.6488V31.847C31.3566 30.7254 32.5425 30.0005 33.5407 30.512L50.9111 39.4129C51.9991 39.9704 51.9991 41.5254 50.9111 42.0828Z" fill="#8AACFF" stroke="#6391FF" stroke-width="3"/>
</svg>
