<svg width="81" height="82" viewBox="0 0 81 82" fill="none" xmlns="http://www.w3.org/2000/svg">
<path d="M39.0979 34.5709H22.4979V37.0709H39.0979V34.5709Z" fill="#87919F"/>
<path d="M32.1979 54.9709H15.2379V31.5709H17.7379V52.4709H32.1979V54.9709Z" fill="#87919F"/>
<path d="M49.9579 41.0909H47.4579V50.1309H49.9579V41.0909Z" fill="#87919F"/>
<path d="M49.9579 59.3109H47.4579V70.6109H49.9579V59.3109Z" fill="#87919F"/>
<path d="M57.898 29.0909H39.538V40.0509H57.898V29.0909Z" fill="#D8E4FF"/>
<path d="M59.138 41.311H38.278V27.851H59.138V41.311ZM40.778 38.811H56.638V30.351H40.778V38.811Z" fill="#6391FF"/>
<path d="M21.9579 29.0909H10.9979V40.0509H21.9579V29.0909Z" fill="#D8E4FF"/>
<path d="M23.2179 41.311H9.75793V27.851H23.2179V41.311ZM12.2579 38.811H20.7179V30.351H12.2579V38.811Z" fill="#6391FF"/>
<path d="M54.2179 69.351H43.2179V80.311H54.2179V69.351Z" fill="#E0F8EB"/>
<path d="M55.4579 81.5509H41.9579V68.0909H55.4579V81.5509ZM44.4579 79.0509H52.9579V70.5909H44.4579V79.0509Z" fill="#41CC84"/>
<path d="M56.4179 53.591C56.4179 57.191 53.1179 60.331 48.7179 60.331C44.3179 60.331 41.0179 57.191 41.0179 53.591C41.0179 49.991 44.3179 46.851 48.7179 46.851C53.1179 46.851 56.4179 49.991 56.4179 53.591Z" fill="#D8E4FF"/>
<path d="M48.718 61.571C43.778 61.571 39.778 57.991 39.778 53.591C39.778 49.191 43.798 45.611 48.718 45.611C53.638 45.611 57.658 49.191 57.658 53.591C57.658 57.991 53.638 61.571 48.718 61.571ZM48.718 48.111C45.158 48.111 42.278 50.571 42.278 53.591C42.278 56.611 45.178 59.071 48.718 59.071C52.258 59.071 55.158 56.611 55.158 53.591C55.158 50.571 52.258 48.111 48.718 48.111Z" fill="#6391FF"/>
<path d="M49.9579 18.8109H47.4579V27.8509H49.9579V18.8109Z" fill="#87919F"/>
<path d="M70.4179 76.6709H60.8779V74.1709H67.9179L67.9579 12.3708H56.0179V9.87085H70.4579L70.4179 76.6709Z" fill="#87919F"/>
<path d="M36.798 53.5909L31.538 56.3108V50.8708L36.798 53.5909Z" fill="#87919F"/>
<path d="M56.9779 75.2309L62.2379 72.5109V77.9509L56.9779 75.2309Z" fill="#87919F"/>
<path d="M48.7185 3.32384L40.9686 11.0737L48.7185 18.8236L56.4684 11.0737L48.7185 3.32384Z" fill="#E0F8EB"/>
<path d="M48.7179 20.5909L39.1979 11.0709L48.7179 1.5509L58.2379 11.0709L48.7179 20.5909ZM42.7379 11.0709L48.7179 17.0509L54.6979 11.0709L48.7179 5.0909L42.7379 11.0709Z" fill="#41CC84"/>
</svg>
