<svg width="81" height="81" viewBox="0 0 81 81" fill="none" xmlns="http://www.w3.org/2000/svg">
<g clip-path="url(#clip0_1141_3641)">
<path d="M48.3971 80.551H45.2713C45.1257 80.5041 44.9851 80.4338 44.836 80.4154C40.5267 79.8596 36.9673 77.9091 34.3187 74.4837C33.1886 73.0238 32.3699 71.3228 31.3437 69.6201C31.4558 69.6201 31.3487 69.6001 31.2533 69.6235C29.4568 70.042 27.6554 70.4472 25.8707 70.916C25.6681 70.9696 25.4521 71.3814 25.427 71.6443C25.0252 75.7913 21.5144 78.48 17.334 77.7015C13.0698 76.9079 10.8431 72.1499 12.822 68.2908C13.9973 65.9988 15.9075 64.7047 18.5444 64.6009C21.1695 64.4971 23.1535 65.6674 24.5012 67.8957C24.7557 68.3159 24.9784 68.3913 25.4337 68.2657C26.46 67.9828 27.5081 67.7752 28.5444 67.5274C29.343 67.3365 30.1382 67.1323 30.967 66.9264C30.6305 64.4569 30.8062 62.1164 31.5161 59.8211C32.231 57.504 33.4766 55.4865 35.0771 53.6566C33.3041 51.7079 31.5898 49.8261 29.8553 47.9192C24.7624 51.5455 19.338 52.1666 13.5369 49.8194C12.8237 51.0985 12.1557 52.3591 11.4224 53.5796C11.1344 54.0585 11.2114 54.3464 11.5831 54.7164C11.9464 55.0797 12.2511 55.5133 12.5206 55.952C14.2802 58.8182 13.4331 62.6086 10.5869 64.6746C7.95843 66.5798 3.97383 66.1077 1.85094 63.6834C0.893302 62.5902 0.401087 61.3128 0.11145 59.9265V58.5202C0.156654 58.3511 0.210228 58.182 0.245386 58.0112C0.672307 55.9252 1.80742 54.3615 3.68587 53.3503C5.2998 52.4814 6.99576 52.3725 8.77879 52.8798C9.59412 51.4099 10.3944 49.9667 11.1913 48.5319C1.7957 42.2219 1.55294 27.519 12.0368 21.3529C10.818 18.7931 9.5958 16.2265 8.39037 13.6968C5.49903 14.2008 3.83487 13.4139 1.67013 11.5689C0.309006 10.4104 -0.101173 7.54582 0.257106 5.89505C1.01719 2.21684 4.78917 -0.195686 8.34182 0.761956C11.1294 1.51367 12.8806 3.39045 13.3627 6.37053C13.706 8.50011 12.8672 10.6196 11.2733 12.0729C10.8682 12.4429 10.8464 12.7074 11.0691 13.146C11.6534 14.3062 12.1958 15.4882 12.7567 16.6618C13.3242 17.8522 13.8935 19.0409 14.4342 20.176C23.0061 17.7333 29.5573 20.3267 34.3422 27.73C39.1605 25.6891 44.0123 23.6332 48.9261 21.5522C47.9333 18.465 47.8546 15.3928 48.7269 12.3089C47.2402 11.7598 45.854 11.2491 44.4577 10.7335C44.3489 10.8674 44.2651 10.9645 44.1881 11.0667C41.3822 14.765 36.3579 14.8319 33.4749 11.209C31.8543 9.17314 31.7019 6.23157 33.0882 3.80063C34.3237 1.63254 37.0359 0.291506 39.5037 0.624672C43.1501 1.11856 45.5509 3.97642 45.4237 7.64794C45.4153 7.87061 45.4957 8.24563 45.6346 8.30088C46.9506 8.82658 48.2882 9.29703 49.6075 9.7792C54.0391 1.17883 63.0932 -1.17342 70.2755 1.78824C77.4763 4.75827 81.4659 12.7693 79.6728 20.3534C78.0103 27.3801 70.232 34.554 59.939 32.0377C57.786 38.0079 55.6313 43.9865 53.4515 50.0303C55.8088 51.1738 57.7793 52.7157 59.3966 54.7633C61.9464 53.1092 64.4577 51.4902 66.9455 49.8361C67.0962 49.7357 67.1582 49.3221 67.0912 49.1078C65.8707 45.1852 68.6482 41.0667 72.7266 40.6146C75.2412 40.335 77.9266 41.6359 79.1823 43.8642C80.5534 46.2985 80.371 49.215 78.7185 51.2609C76.2524 54.3129 72.2377 54.7432 69.1655 52.262C68.8257 51.9875 68.5946 51.9289 68.2263 52.1967C67.5968 52.6555 66.9254 53.059 66.2708 53.4842C64.4861 54.6444 62.6998 55.8046 60.89 56.9816C61.0507 57.3365 61.1863 57.6412 61.3252 57.9443C65.1927 66.3019 61.0339 76.3588 52.3716 79.5046C51.0909 79.9701 49.7264 80.2095 48.4021 80.5527L48.3971 80.551ZM49.9691 24.0032C45.0336 26.096 40.1885 28.1519 35.335 30.2095C37.0226 36.1864 35.8657 41.4517 31.8258 46.116C32.7014 47.0837 33.5703 48.0464 34.4443 49.0057C35.3132 49.9583 36.1855 50.9076 37.0694 51.872C39.1103 50.3401 41.2934 49.3489 43.7009 48.8567C46.1135 48.3628 48.5059 48.5386 50.9419 49.1196C53.1217 43.0774 55.2831 37.0854 57.4495 31.0767C54.1647 29.4946 51.7086 27.1741 49.9691 24.0032ZM56.8752 73.1795C61.7723 67.7082 60.982 58.8919 55.2228 54.2443C49.1655 49.354 40.5116 50.5091 35.9209 56.8544C31.7689 62.5935 33.4314 70.0019 36.6291 72.9635C37.354 71.9774 37.9852 70.8758 38.8525 70.0102C39.7331 69.1313 40.8481 68.4884 41.8576 67.7434C39.0282 64.4686 39.9474 60.4556 42.2059 58.3796C44.8143 55.9821 48.5327 55.9587 51.2148 58.2942C53.3628 60.1659 54.6569 64.2342 51.5965 67.8254C55.1022 69.9115 55.2345 70.3283 56.8752 73.1778V73.1795ZM74.1764 25.2103C79.1187 19.7239 78.3067 10.8607 72.539 6.22152C66.4784 1.34625 57.8111 2.52656 53.2405 8.88183C49.0634 14.6913 50.8314 22.0862 54.1145 25.1082C55.1441 22.6739 56.9003 20.9511 59.3129 19.883C56.2809 16.2717 57.4679 12.3843 59.4886 10.4489C61.8576 8.18034 65.5878 7.9493 68.0756 9.87965C69.4267 10.9277 70.3191 12.2671 70.6388 13.9446C71.0674 16.1847 70.4111 18.1452 68.8893 19.8763C71.3805 20.9612 73.1083 22.7174 74.1747 25.2103H74.1764ZM15.2981 38.547C12.4788 35.2722 13.1836 31.4199 15.3718 29.1966C17.6353 26.8962 21.409 26.5982 23.9554 28.4834C25.3316 29.503 26.2457 30.839 26.5839 32.5065C27.0426 34.7599 26.4332 36.7673 24.8561 38.5403C27.3775 39.6419 29.0969 41.4283 30.15 43.8827C34.6084 38.9572 34.7038 30.6699 29.2643 25.5552C23.7964 20.4137 15.3634 20.7268 10.2906 26.2282C5.27971 31.6627 6.06658 39.6503 10.0562 43.819C11.0875 41.3797 12.817 39.6319 15.2965 38.547H15.2981ZM27.8781 45.9553C27.4076 43.4574 25.6363 41.4718 23.2037 40.8457C21.2348 40.3384 19.204 40.3451 17.2435 40.777C14.7356 41.3295 13.1217 42.9886 12.3984 45.4598C12.3365 45.6724 12.4687 46.0725 12.6462 46.2081C16.8568 49.4142 23.6842 49.2903 27.8781 45.957V45.9553ZM46.6392 69.9265C46.1386 69.9265 45.5375 69.8981 44.9415 69.9315C42.3147 70.0739 39.9038 72.0109 39.117 74.5222C38.9395 75.0881 39.0215 75.3928 39.5305 75.7293C43.9504 78.6424 49.9825 78.5905 54.2166 75.5418C54.3907 75.4162 54.5046 75.0127 54.4476 74.7901C54.0793 73.3603 53.2723 72.2085 52.1138 71.291C50.5233 70.0303 48.6783 69.7775 46.6375 69.9265H46.6392ZM64.1362 21.9523C63.4599 21.9523 62.7818 21.9155 62.1088 21.959C59.5322 22.1248 56.9941 24.2711 56.4249 26.7924C56.3713 27.0318 56.5354 27.4521 56.7363 27.5977C60.9452 30.6263 67.426 30.6146 71.5446 27.5709C71.7254 27.437 71.8677 27.0486 71.8158 26.8293C71.4659 25.361 70.6271 24.1941 69.4468 23.2666C67.8781 22.0327 66.0498 21.7949 64.1362 21.9523ZM38.7872 11.2006C40.9787 11.1972 42.7634 9.41925 42.7701 7.23107C42.7768 5.05628 40.9871 3.24145 38.8123 3.21968C36.6124 3.19792 34.7841 5.02949 34.7959 7.24446C34.8059 9.43431 36.5923 11.2023 38.7872 11.2006ZM68.0991 15.2003C68.0907 13.0171 66.2976 11.2224 64.1195 11.2173C61.9564 11.214 60.1366 13.0255 60.1215 15.1969C60.1064 17.4069 61.9363 19.2217 64.1546 19.1966C66.3629 19.1715 68.1058 17.4035 68.0991 15.2003ZM10.7577 59.1966C10.7476 57.0034 8.96797 55.2321 6.77477 55.2337C4.59329 55.2337 2.79017 57.0251 2.77678 59.1999C2.76338 61.3965 4.6117 63.2297 6.81662 63.2063C9.0048 63.1845 10.7677 61.3915 10.7577 59.1966ZM14.7925 71.2157C14.7925 73.3938 16.5806 75.2019 18.7553 75.2203C20.9134 75.2388 22.7466 73.4306 22.7684 71.2592C22.7918 69.0375 20.9887 67.2294 18.7604 67.2378C16.5621 67.2461 14.7942 69.0174 14.7925 71.214V71.2157ZM6.75468 11.2006C8.95458 11.2106 10.7376 9.45441 10.756 7.2612C10.7744 5.04121 8.96127 3.20964 6.75803 3.22136C4.59496 3.2314 2.7751 5.05796 2.7751 7.21935C2.7751 9.39413 4.57319 11.1939 6.753 11.2023L6.75468 11.2006ZM73.4414 51.1989C75.6279 51.2039 77.4294 49.4326 77.4528 47.2512C77.4779 45.063 75.6179 43.1996 73.428 43.2197C71.2466 43.2398 69.4702 45.0395 69.4736 47.2244C69.4769 49.4226 71.2449 51.1922 73.4414 51.1989ZM42.7684 63.2481C42.7818 65.4263 44.595 67.226 46.7647 67.2177C48.9445 67.2093 50.7376 65.4112 50.7426 63.228C50.7476 61.0064 48.9177 59.1966 46.7061 59.2351C44.4995 59.2736 42.7533 61.0533 42.7684 63.2481ZM24.0626 33.8659C24.0492 31.6627 22.2829 29.9064 20.0813 29.9064C17.8998 29.9064 16.0984 31.6895 16.0783 33.8676C16.0582 36.0424 17.94 37.9125 20.1215 37.884C22.3047 37.8572 24.0743 36.0524 24.0609 33.8659H24.0626Z" fill="#87919F"/>
<path d="M27.8781 45.9553C23.6842 49.2886 16.8568 49.4125 12.6462 46.2064C12.4687 46.0708 12.3365 45.6707 12.3984 45.458C13.1217 42.9886 14.7356 41.3278 17.2436 40.7753C19.204 40.3434 21.2332 40.3367 23.2037 40.8439C25.6363 41.4701 27.4076 43.4557 27.8781 45.9536V45.9553Z" fill="#DADADA"/>
<path d="M46.6391 69.9265C48.6799 69.7775 50.5249 70.0303 52.1154 71.291C53.2739 72.2085 54.0809 73.3603 54.4492 74.7901C54.5061 75.0127 54.3923 75.4162 54.2182 75.5418C49.9841 78.5905 43.952 78.6424 39.5321 75.7293C39.0231 75.3945 38.9411 75.0898 39.1186 74.5222C39.9038 72.0109 42.3163 70.0755 44.9431 69.9315C45.5391 69.8997 46.1385 69.9265 46.6408 69.9265H46.6391Z" fill="#DADADA"/>
<path d="M64.1363 21.9523C66.0499 21.7949 67.8781 22.0326 69.4469 23.2665C70.6272 24.194 71.466 25.361 71.8159 26.8292C71.8678 27.0485 71.7271 27.437 71.5446 27.5709C67.4261 30.6146 60.9453 30.6263 56.7363 27.5977C56.5354 27.4537 56.3697 27.0318 56.4249 26.7924C56.9942 24.271 59.5323 22.1247 62.1088 21.959C62.7819 21.9154 63.4599 21.9523 64.1363 21.9523Z" fill="#DADADA"/>
<path d="M38.7871 11.2006C36.5922 11.204 34.8059 9.43434 34.7958 7.24448C34.7841 5.02952 36.614 3.19627 38.8122 3.2197C40.9887 3.24147 42.7784 5.0563 42.7701 7.23109C42.7617 9.41927 40.977 11.1973 38.7871 11.2006Z" fill="#FDD8D8"/>
<path d="M68.0991 15.2019C68.1075 17.4068 66.363 19.1731 64.1547 19.1982C61.9364 19.2234 60.1065 17.4085 60.1216 15.1986C60.1366 13.0271 61.9565 11.2157 64.1195 11.219C66.296 11.2223 68.0907 13.0188 68.0991 15.2019Z" fill="white"/>
<path d="M10.7577 59.1966C10.7678 61.3915 9.00483 63.1845 6.81665 63.2063C4.61173 63.2297 2.76341 61.3965 2.77681 59.1999C2.7902 57.0235 4.59331 55.2338 6.7748 55.2338C8.968 55.2338 10.7493 57.0034 10.7577 59.1966Z" fill="#E0F8EB"/>
<path d="M14.7926 71.2156C14.7926 69.0191 16.5622 67.2478 18.7605 67.2394C20.9888 67.231 22.7903 69.0392 22.7685 71.2608C22.7467 73.4306 20.9135 75.2404 18.7554 75.222C16.5806 75.2036 14.7909 73.3954 14.7926 71.2173V71.2156Z" fill="#6391FF"/>
<path d="M6.75463 11.2006C4.57315 11.1905 2.77673 9.39244 2.77673 7.21765C2.77673 5.05793 4.59659 3.23138 6.75966 3.21966C8.9629 3.20794 10.7761 5.04119 10.7576 7.25951C10.7392 9.45438 8.95621 11.2089 6.75631 11.1989L6.75463 11.2006Z" fill="#41CC84"/>
<path d="M73.4414 51.1989C71.2448 51.1922 69.4769 49.4226 69.4735 47.2243C69.4702 45.0395 71.2482 43.2397 73.428 43.2196C75.6178 43.1996 77.4779 45.0613 77.4528 47.2511C77.4276 49.4326 75.6279 51.2039 73.4414 51.1989Z" fill="#D8E4FF"/>
<path d="M42.7683 63.2482C42.7532 61.0533 44.5011 59.2736 46.706 59.2351C48.9193 59.1966 50.7492 61.0064 50.7425 63.2281C50.7375 65.4096 48.9427 67.2093 46.7646 67.2177C44.5948 67.2261 42.7817 65.4263 42.7683 63.2482Z" fill="white"/>
<path d="M24.0642 33.866C24.0776 36.0525 22.308 37.8573 20.1248 37.8841C17.9433 37.9108 16.0598 36.0408 16.0816 33.8677C16.1017 31.6895 17.9031 29.9082 20.0846 29.9065C22.2862 29.9065 24.0508 31.6627 24.0659 33.866H24.0642Z" fill="white"/>
</g>
<defs>
<clipPath id="clip0_1141_3641">
<rect width="79.9916" height="80" fill="white" transform="translate(0.108032 0.551025)"/>
</clipPath>
</defs>
</svg>
