<svg width="21" height="20" viewBox="0 0 21 20" fill="none" xmlns="http://www.w3.org/2000/svg">
<path fill-rule="evenodd" clip-rule="evenodd" d="M10.1914 6C11.296 6 12.1914 5.10457 12.1914 4C12.1914 2.89543 11.296 2 10.1914 2C9.08684 2 8.19141 2.89543 8.19141 4C8.19141 5.10457 9.08684 6 10.1914 6ZM12.1914 10C12.1914 11.1046 11.296 12 10.1914 12C9.08684 12 8.19141 11.1046 8.19141 10C8.19141 8.89543 9.08684 8 10.1914 8C11.296 8 12.1914 8.89543 12.1914 10ZM12.1914 16C12.1914 17.1046 11.296 18 10.1914 18C9.08684 18 8.19141 17.1046 8.19141 16C8.19141 14.8954 9.08684 14 10.1914 14C11.296 14 12.1914 14.8954 12.1914 16Z" fill="#2B3242"/>
</svg>
