<svg width="226" height="44" viewBox="0 0 226 44" fill="none" xmlns="http://www.w3.org/2000/svg">
<g clip-path="url(#clip0_10911_89331)">
<path d="M12.5391 5.00714C12.5391 7.43146 10.6622 8.714 7.8469 8.714H2.8575V12.2488H0.35498V1.30029H7.8469C10.6622 1.30029 12.5391 2.61411 12.5391 5.00714ZM9.98968 5.02278C9.98968 3.77153 9.05124 3.39615 7.64357 3.39615H2.8575V6.64942H7.64357C9.05124 6.64942 9.98968 6.27404 9.98968 5.02278Z" fill="white"/>
<path d="M15.2997 12.2488V1.30029H17.8022V12.2488H15.2997Z" fill="white"/>
<path d="M34.0217 1.30029V12.2488H31.832L23.9803 4.33459V12.2488H21.556V1.30029H24.215L31.5974 8.80784V1.30029H34.0217Z" fill="white"/>
<path d="M50.249 1.30029V12.2488H48.0593L40.2076 4.33459V12.2488H37.7833V1.30029H40.4422L47.8247 8.80784V1.30029H50.249Z" fill="white"/>
<path d="M63.0275 9.93397H56.4114L55.2384 12.2488H52.5638L58.3665 1.30029H61.1037L66.9064 12.2488H64.2005L63.0275 9.93397ZM61.9795 7.90068L59.7116 3.44307L57.4437 7.90068H61.9795Z" fill="white"/>
<path d="M78.3789 8.65129L80.6624 9.79306C79.6301 11.3415 77.5186 12.5928 74.6564 12.5928C70.5429 12.5928 67.8683 10.4187 67.8683 6.7744C67.8683 3.13012 70.5429 0.956055 74.7659 0.956055C77.5186 0.956055 79.6301 2.22295 80.6311 3.7401L78.3319 4.88188C77.5499 3.6619 76.3612 3.11447 74.7346 3.11447C72.1382 3.11447 70.4177 4.36573 70.4177 6.7744C70.4177 9.18307 72.1382 10.4343 74.7346 10.4343C76.3612 10.4343 77.5655 9.90255 78.3789 8.65129Z" fill="white"/>
<path d="M93.6051 10.0904V12.2488H83.3604V1.30029H85.863V10.0904H93.6051Z" fill="white"/>
<path d="M107.447 10.1529V12.2488H96.1702V1.30029H107.291V3.39615H98.6571V5.64841H105.867V7.74427H98.6571V10.1529H107.447Z" fill="white"/>
<path d="M127.194 8.93282C127.194 11.0912 125.145 12.5928 121.266 12.5928C118.497 12.5928 116.245 11.8107 114.572 10.3874L116.011 8.68257C117.356 9.91819 119.092 10.4969 121.328 10.4969C123.565 10.4969 124.675 10.0746 124.675 9.16743C124.675 8.26027 123.549 8.01002 121.031 7.79105C117.903 7.52516 114.994 6.83697 114.994 4.49086C114.994 2.14475 117.434 0.956055 120.812 0.956055C123.205 0.956055 125.27 1.5504 126.662 2.62961L125.285 4.36573C124.081 3.44293 122.595 3.06755 120.812 3.05191C119.326 3.03627 117.512 3.30216 117.512 4.30317C117.512 5.24161 119.076 5.33546 121.25 5.5075C124.738 5.78904 127.194 6.52415 127.194 8.93282Z" fill="white"/>
<path d="M141.325 10.1529V12.2488H130.048V1.30029H141.169V3.39615H132.535V5.64841H139.745V7.74427H132.535V10.1529H141.325Z" fill="white"/>
<path d="M153.885 12.2488L150.741 8.52631H146.784V12.2488H144.297V1.30029H151.851C154.526 1.30029 156.544 2.53591 156.544 4.9133C156.544 6.77455 155.308 7.93196 153.494 8.35426L156.872 12.2488H153.885ZM151.711 6.46173C153.024 6.46173 153.994 6.14892 153.994 4.92894C153.994 3.70896 153.024 3.39615 151.711 3.39615H146.768V6.46173H151.711Z" fill="white"/>
<path d="M159.687 12.2488V1.30029H162.19V12.2488H159.687Z" fill="white"/>
<path d="M177.228 10.1529V12.2488H165.951V1.30029H177.072V3.39615H168.438V5.64841H175.649V7.74427H168.438V10.1529H177.228Z" fill="white"/>
<path d="M191.821 8.93282C191.821 11.0912 189.772 12.5928 185.893 12.5928C183.125 12.5928 180.873 11.8107 179.199 10.3874L180.638 8.68257C181.983 9.91819 183.719 10.4969 185.956 10.4969C188.193 10.4969 189.303 10.0746 189.303 9.16743C189.303 8.26027 188.177 8.01002 185.659 7.79105C182.531 7.52516 179.621 6.83697 179.621 4.49086C179.621 2.14475 182.061 0.956055 185.44 0.956055C187.833 0.956055 189.897 1.5504 191.289 2.62961L189.913 4.36573C188.709 3.44293 187.223 3.06755 185.44 3.05191C183.954 3.03627 182.14 3.30216 182.14 4.30317C182.14 5.24161 183.704 5.33546 185.878 5.5075C189.366 5.78904 191.821 6.52415 191.821 8.93282Z" fill="white"/>
<path d="M87.9354 32.1513C87.9354 33.6059 86.9656 34.56 85.4954 34.56C84.5335 34.56 83.8062 34.1533 83.423 33.5981V34.3958H82.4611V28.3037H83.423V30.6889C83.8062 30.118 84.5335 29.7192 85.4954 29.7192C86.9656 29.7192 87.9354 30.6811 87.9354 32.1513ZM86.9969 32.1513C86.9969 31.1112 86.3713 30.5482 85.253 30.5482C84.5022 30.5482 83.8531 30.8062 83.423 31.471V32.8239C83.8531 33.4886 84.5022 33.7545 85.253 33.7545C86.3713 33.7545 86.9969 33.1758 86.9969 32.1591V32.1513Z" fill="white"/>
<path d="M94.4028 29.8911L90.9931 36.0536H89.9921L91.1182 34.1141L88.7643 29.8989H89.8044L91.6187 33.1913L93.4018 29.8989H94.4184L94.4028 29.8911Z" fill="white"/>
<path d="M99.8849 38.1183C99.8849 35.0371 101.629 32.214 104.389 30.8298L130.947 17.5352L128.515 28.163L99.8849 38.1183Z" fill="white"/>
<path d="M100.002 39.573L127.983 33.9814L127.655 35.4595C126.466 40.8164 121.367 44.3591 115.932 43.5927L100.002 41.3639V39.573Z" fill="white"/>
<path d="M143.851 29.9458V30.9781H136.985V24.0806H143.749V25.1129H138.15V26.9585H142.858V27.9907H138.15V29.938H143.843L143.851 29.9458Z" fill="white"/>
<path d="M151.531 29.3124H147.104L146.228 30.9781H144.946L148.676 24.0806H149.974L153.697 30.9781H152.406L151.523 29.3124H151.531ZM151.007 28.3114L149.325 25.1207L147.644 28.3114H151.014H151.007Z" fill="white"/>
<path d="M162.722 29.4377C162.088 30.4544 160.72 31.1895 158.827 31.1895C156.106 31.1895 154.479 29.8131 154.479 27.5374C154.479 25.2616 156.106 23.8853 158.804 23.8853C160.501 23.8853 161.658 24.5187 162.346 25.2538L161.384 25.942C160.774 25.2538 159.969 24.9175 158.811 24.9175C156.872 24.9175 155.675 25.8012 155.675 27.5374C155.675 29.2735 156.888 30.1572 158.866 30.1572C160.078 30.1572 161.064 29.8444 161.564 29.0545V28.2647H158.686V27.248H162.706V29.4377H162.722Z" fill="white"/>
<path d="M171.097 29.938V30.9859H164.833V24.0884H166.014V29.938H171.097Z" fill="white"/>
<path d="M179.723 29.9458V30.9781H172.857V24.0806H179.621V25.1129H174.022V26.9585H178.73V27.9907H174.022V29.938H179.715L179.723 29.9458Z" fill="white"/>
<path d="M192.689 26.3407C192.689 27.7874 191.579 28.5929 189.905 28.5929H186.425V30.9781H185.244V24.0806H189.905C191.579 24.0806 192.689 24.9017 192.689 26.3328V26.3407ZM191.477 26.3485C191.477 25.4648 190.82 25.1207 189.804 25.1207H186.425V27.5841H189.804C190.82 27.5841 191.477 27.2322 191.477 26.3563V26.3485Z" fill="white"/>
<path d="M194.128 27.5295C194.128 25.2538 195.763 23.8774 198.414 23.8774C201.065 23.8774 202.699 25.2538 202.699 27.5295C202.699 29.8053 201.065 31.1817 198.414 31.1817C195.763 31.1817 194.128 29.8053 194.128 27.5295ZM201.487 27.5295C201.487 25.856 200.283 24.9175 198.414 24.9175C196.545 24.9175 195.333 25.856 195.333 27.5295C195.333 29.2031 196.537 30.1416 198.414 30.1416C200.291 30.1416 201.487 29.2031 201.487 27.5295Z" fill="white"/>
<path d="M204.819 30.9781V24.0806H206V30.9781H204.819Z" fill="white"/>
<path d="M216.166 24.0884V30.9859H215.118L209.73 25.5508V30.9859H208.588V24.0884H209.847L215.009 29.3202V24.0884H216.158H216.166Z" fill="white"/>
<path d="M225.355 25.1207H222.211V30.9859H221.03V25.1207H217.91V24.0884H225.355V25.1207Z" fill="white"/>
<path d="M141.474 36.9688C141.474 37.7352 140.715 38.2826 139.339 38.2826C138.392 38.2826 137.556 38.0089 136.922 37.4615L137.352 36.9688C137.9 37.4615 138.549 37.6805 139.362 37.6805C140.261 37.6805 140.762 37.4458 140.762 37.0235C140.762 36.6012 140.254 36.4996 139.237 36.4136C138.119 36.3197 137.071 36.0695 137.071 35.2483C137.071 34.4272 138.001 33.9971 139.159 33.9971C140.035 33.9971 140.785 34.2551 141.27 34.6696L140.832 35.1467C140.418 34.7791 139.847 34.6071 139.174 34.6071C138.533 34.6071 137.767 34.7556 137.767 35.2092C137.767 35.6628 138.439 35.7097 139.323 35.7801C140.582 35.8818 141.458 36.132 141.458 36.9766L141.474 36.9688Z" fill="white"/>
<path d="M146.322 36.1399C146.322 34.8026 147.284 33.9971 148.833 33.9971C150.381 33.9971 151.343 34.8026 151.343 36.1399C151.343 37.4771 150.381 38.2826 148.833 38.2826C147.284 38.2826 146.322 37.4771 146.322 36.1399ZM150.639 36.1399C150.639 35.1545 149.935 34.6071 148.833 34.6071C147.73 34.6071 147.026 35.1545 147.026 36.1399C147.026 37.1252 147.73 37.6726 148.833 37.6726C149.935 37.6726 150.639 37.1252 150.639 36.1399Z" fill="white"/>
<path d="M157.255 34.7321V35.9208H160.016V36.5386H157.255V38.1652H156.559V34.1221H160.516V34.7321H157.247H157.255Z" fill="white"/>
<path d="M169.463 34.7242H167.617V38.1652H166.921V34.7242H165.091V34.1143H169.463V34.7242Z" fill="white"/>
<path d="M180.763 34.1143L179.285 38.1574H178.566L177.377 34.8885L176.18 38.1574H175.469L173.983 34.1143H174.726L175.844 37.3519L177.049 34.1143H177.729L178.925 37.3519L180.044 34.1143H180.763Z" fill="white"/>
<path d="M188.826 37.1877H186.23L185.713 38.1652H184.963L187.152 34.1221H187.919L190.101 38.1652H189.342L188.826 37.1877ZM188.521 36.6011L187.536 34.7321L186.55 36.6011H188.529H188.521Z" fill="white"/>
<path d="M198.695 38.1652L197.444 36.695H195.739V38.1652H195.043V34.1221H197.796C198.734 34.1221 199.43 34.5757 199.43 35.4124C199.43 36.1084 198.946 36.5386 198.242 36.6637L199.556 38.1652H198.703H198.695ZM197.749 36.1006C198.328 36.1006 198.719 35.9129 198.719 35.4124C198.719 34.9119 198.328 34.7242 197.749 34.7242H195.731V36.1006H197.749Z" fill="white"/>
<path d="M208.705 37.5552V38.1652H204.678V34.1221H208.651V34.7321H205.366V35.8113H208.127V36.4213H205.366V37.563H208.705V37.5552Z" fill="white"/>
</g>
<defs>
<clipPath id="clip0_10911_89331">
<rect width="225" height="42.7383" fill="white" transform="translate(0.35498 0.956055)"/>
</clipPath>
</defs>
</svg>
