<svg width="201" height="38" viewBox="0 0 201 38" fill="none" xmlns="http://www.w3.org/2000/svg">
<path d="M39.1517 11.7712L0 37.1212L45.4422 18.4373L63.9383 34.6801L45.2075 12.1937L42.5317 15.3859L39.1517 11.7712Z" fill="#FDD62B"/>
<mask id="mask0" style="mask-type:alpha" maskUnits="userSpaceOnUse" x="40" y="0" width="37" height="18">
<rect width="36.1696" height="16.8231" transform="matrix(1 0 0 -1 40.3937 17.8106)" fill="#C4C4C4"/>
</mask>
<g mask="url(#mask0)">
<path d="M51.4508 17.5923L48.3055 13.9776L60.558 4.30702L86.6122 31.6756L60.9805 12.8979L51.4508 17.5923Z" fill="#09589D"/>
</g>
<path d="M155.557 31.0222C155.557 33.558 153.792 34.8259 150.263 34.8259C148.974 34.8259 147.83 34.6785 146.829 34.3839L147.189 32.7699C148.34 33.1674 149.433 33.3661 150.468 33.3661C152.798 33.3661 153.963 32.7082 153.963 31.3923C153.963 30.7275 153.662 30.1587 153.059 29.6858C152.654 29.3705 151.859 28.949 150.674 28.4213C149.426 27.8662 148.553 27.3556 148.052 26.8896C147.36 26.2454 147.014 25.4366 147.014 24.4635C147.014 23.4491 147.367 22.6233 148.073 21.9859C148.861 21.2732 149.975 20.9168 151.414 20.9168C153.045 20.9168 154.162 21.023 154.765 21.2355L154.519 22.87C153.477 22.5411 152.37 22.3766 151.198 22.3766C149.437 22.3766 148.556 22.966 148.556 24.1448C148.556 24.7136 148.81 25.1899 149.317 25.5737C149.646 25.8136 150.372 26.1768 151.496 26.6634C152.778 27.2185 153.703 27.7463 154.272 28.2466C155.129 29.0005 155.557 29.9257 155.557 31.0222ZM166.372 28.4522C166.372 28.74 166.358 29.1375 166.331 29.6447L159.268 29.768C159.337 30.7686 159.724 31.6082 160.43 32.2867C161.136 32.9583 162.071 33.2941 163.236 33.2941C164.278 33.2941 165.255 33.1674 166.166 32.9138L165.991 34.3633C165.32 34.6306 164.35 34.7642 163.082 34.7642C161.3 34.7642 159.94 34.2776 159.001 33.3044C158.069 32.3312 157.603 31.1456 157.603 29.7475C157.603 28.2534 158.028 26.9684 158.877 25.8924C159.734 24.8096 160.882 24.2681 162.321 24.2681C163.644 24.2681 164.648 24.6588 165.333 25.4401C166.026 26.2214 166.372 27.2254 166.372 28.4522ZM164.655 28.4727C164.655 26.5469 163.85 25.584 162.239 25.584C160.594 25.584 159.624 26.5846 159.33 28.5858L164.655 28.4727ZM174.966 24.7205L174.503 26.355C173.969 26.1426 173.472 26.0363 173.013 26.0363C171.724 26.0363 170.888 26.6497 170.504 27.8765C170.504 31.0291 170.525 33.2325 170.566 34.4867H168.746C168.856 32.3141 168.911 30.6281 168.911 29.4288C168.911 27.8045 168.75 26.2488 168.428 24.7616L170.227 24.5046C170.357 25.2585 170.422 25.7622 170.422 26.0158H170.504C171.245 24.9261 172.108 24.3812 173.095 24.3812C173.616 24.3812 174.239 24.4943 174.966 24.7205ZM178.081 34.4867H176.22C176.316 33.116 176.364 31.5499 176.364 29.7886C176.364 27.8079 176.244 26.146 176.004 24.8027L178.06 24.5251C177.978 25.9575 177.937 27.712 177.937 29.7886C177.937 31.4334 177.985 32.9994 178.081 34.4867ZM178.513 21.6364C178.513 21.9859 178.4 22.2909 178.173 22.5513C177.947 22.8049 177.629 22.9317 177.217 22.9317C176.868 22.9317 176.594 22.822 176.395 22.6027C176.203 22.3766 176.107 22.1059 176.107 21.7906C176.107 21.4479 176.224 21.1498 176.457 20.8962C176.69 20.6426 177.012 20.5159 177.423 20.5159C177.759 20.5159 178.023 20.6289 178.214 20.8551C178.413 21.0744 178.513 21.3348 178.513 21.6364ZM189.235 28.4522C189.235 28.74 189.221 29.1375 189.194 29.6447L182.131 29.768C182.2 30.7686 182.587 31.6082 183.293 32.2867C183.999 32.9583 184.934 33.2941 186.099 33.2941C187.141 33.2941 188.118 33.1674 189.029 32.9138L188.854 34.3633C188.183 34.6306 187.213 34.7642 185.945 34.7642C184.163 34.7642 182.803 34.2776 181.864 33.3044C180.932 32.3312 180.466 31.1456 180.466 29.7475C180.466 28.2534 180.891 26.9684 181.741 25.8924C182.597 24.8096 183.745 24.2681 185.184 24.2681C186.507 24.2681 187.511 24.6588 188.197 25.4401C188.889 26.2214 189.235 27.2254 189.235 28.4522ZM187.518 28.4727C187.518 26.5469 186.713 25.584 185.102 25.584C183.457 25.584 182.488 26.5846 182.193 28.5858L187.518 28.4727ZM198.148 31.7007C198.148 33.7019 196.87 34.7025 194.313 34.7025C193.182 34.7025 192.127 34.5895 191.147 34.3633L191.466 32.8521C192.357 33.1948 193.323 33.3661 194.365 33.3661C195.859 33.3661 196.606 32.9412 196.606 32.0914C196.606 31.6802 196.438 31.3546 196.102 31.1147C195.773 30.868 195.225 30.5939 194.457 30.2923C193.484 29.9085 192.778 29.5384 192.339 29.1821C191.695 28.6544 191.373 28.017 191.373 27.2699C191.373 26.4887 191.668 25.8204 192.257 25.2653C192.847 24.7033 193.744 24.4223 194.951 24.4223C196.129 24.4223 197.075 24.5217 197.788 24.7205L197.469 26.2008C196.729 25.9061 195.872 25.7588 194.899 25.7588C193.583 25.7588 192.925 26.1391 192.925 26.8999C192.925 27.2837 193.073 27.5955 193.367 27.8354C193.662 28.0684 194.238 28.3528 195.095 28.6886C196.02 29.0519 196.705 29.4082 197.151 29.7578C197.815 30.2992 198.148 30.9468 198.148 31.7007Z" fill="white"/>
<path d="M78.5042 24.4223C78.5042 25.9849 77.9114 27.1534 76.7258 27.9279C75.5401 28.7023 73.9467 29.0895 71.9455 29.0895C71.6919 29.0895 71.4726 29.0827 71.2875 29.069C71.2875 30.563 71.3424 32.3689 71.452 34.4866H69.4782C69.581 32.5403 69.6324 30.1964 69.6324 27.455C69.6324 25.0974 69.581 22.9797 69.4782 21.1018H70.9483C71.1059 21.1018 71.5548 21.0915 72.295 21.071C73.042 21.0504 73.676 21.0401 74.1968 21.0401C75.5127 21.0401 76.5578 21.3417 77.3323 21.9448C78.1136 22.5411 78.5042 23.3669 78.5042 24.4223ZM76.7874 25.0186C76.7874 23.2572 75.5847 22.3766 73.1791 22.3766C72.5897 22.3766 71.9283 22.428 71.195 22.5308C71.243 23.6479 71.267 25.3887 71.267 27.7531C71.5068 27.7668 71.8015 27.7737 72.1511 27.7737C75.242 27.7737 76.7874 26.8553 76.7874 25.0186ZM82.4004 34.4866H80.5397C80.6357 33.116 80.6836 31.5499 80.6836 29.7886C80.6836 27.8079 80.5637 26.146 80.3238 24.8027L82.3799 24.5251C82.2976 25.9575 82.2565 27.712 82.2565 29.7886C82.2565 31.4334 82.3045 32.9994 82.4004 34.4866ZM82.8322 21.6364C82.8322 21.9859 82.7191 22.2909 82.4929 22.5513C82.2668 22.8049 81.9481 22.9317 81.5369 22.9317C81.1874 22.9317 80.9132 22.822 80.7145 22.6027C80.5226 22.3766 80.4266 22.1059 80.4266 21.7906C80.4266 21.4479 80.5431 21.1498 80.7762 20.8962C81.0092 20.6426 81.3313 20.5159 81.7425 20.5159C82.0783 20.5159 82.3422 20.6289 82.5341 20.8551C82.7328 21.0744 82.8322 21.3348 82.8322 21.6364ZM93.832 34.4866H91.961C92.1118 32.6842 92.1872 30.7172 92.1872 28.5858C92.1872 27.5304 91.9713 26.8108 91.5395 26.427C91.1146 26.0363 90.5047 25.841 89.7096 25.841C88.7365 25.841 87.8387 26.194 87.0162 26.8999C87.0162 29.2369 87.0299 31.7658 87.0574 34.4866H85.1864C85.3029 32.1565 85.3611 30.4705 85.3611 29.4288C85.3611 27.8251 85.2103 26.2693 84.9088 24.7616L86.7181 24.5046L86.9134 25.7588H86.9957C88.01 24.8404 89.0963 24.3812 90.2545 24.3812C91.3922 24.3812 92.2728 24.6348 92.8965 25.1419C93.5202 25.6422 93.832 26.5366 93.832 27.8251C93.832 27.9553 93.8252 28.2123 93.8115 28.5961C93.7977 28.9799 93.7909 29.2369 93.7909 29.3671C93.7909 30.5116 93.8046 32.2182 93.832 34.4866ZM105.243 34.4866H103.372C103.523 32.6842 103.598 30.7172 103.598 28.5858C103.598 27.5304 103.382 26.8108 102.951 26.427C102.526 26.0363 101.916 25.841 101.121 25.841C100.147 25.841 99.2497 26.194 98.4273 26.8999C98.4273 29.2369 98.441 31.7658 98.4684 34.4866H96.5974C96.7139 32.1565 96.7722 30.4705 96.7722 29.4288C96.7722 27.8251 96.6214 26.2693 96.3198 24.7616L98.1291 24.5046L98.3245 25.7588H98.4067C99.421 24.8404 100.507 24.3812 101.666 24.3812C102.803 24.3812 103.684 24.6348 104.308 25.1419C104.931 25.6422 105.243 26.5366 105.243 27.8251C105.243 27.9553 105.236 28.2123 105.222 28.5961C105.209 28.9799 105.202 29.2369 105.202 29.3671C105.202 30.5116 105.216 32.2182 105.243 34.4866ZM115.667 34.4866L114.053 34.5483C113.971 34.2125 113.93 33.8938 113.93 33.5923H113.827C112.984 34.3599 111.836 34.7437 110.383 34.7437C109.595 34.7437 108.916 34.5141 108.348 34.0549C107.779 33.5888 107.494 32.9275 107.494 32.0708C107.494 31.0154 107.94 30.169 108.831 29.5316C109.722 28.8874 111.377 28.5481 113.796 28.5139C113.817 28.3494 113.827 28.1609 113.827 27.9484C113.827 27.1055 113.601 26.5435 113.149 26.2625C112.703 25.9815 112.025 25.841 111.113 25.841C110.037 25.841 108.978 25.9746 107.936 26.2419L108.111 24.8233C109.139 24.5286 110.321 24.3812 111.658 24.3812C112.878 24.3812 113.82 24.6348 114.485 25.1419C115.15 25.6422 115.482 26.4989 115.482 27.712C115.482 28.0341 115.465 28.6201 115.431 29.4699C115.403 30.3129 115.39 30.8749 115.39 31.1559C115.39 32.4032 115.482 33.5135 115.667 34.4866ZM113.848 32.4923C113.813 31.4506 113.796 30.5151 113.796 29.6858C112.508 29.6858 111.528 29.7817 110.856 29.9736C109.732 30.3163 109.17 30.9708 109.17 31.9372C109.17 32.8692 109.828 33.3353 111.144 33.3353C112.275 33.3353 113.176 33.0543 113.848 32.4923ZM125.762 32.9138L125.66 34.2913C125.104 34.6066 124.361 34.7642 123.429 34.7642C121.654 34.7642 120.297 34.2742 119.358 33.2941C118.419 32.3141 117.949 31.1319 117.949 29.7475C117.949 28.2808 118.443 27.0198 119.43 25.9644C120.417 24.9089 121.722 24.3812 123.346 24.3812C124.162 24.3812 124.827 24.4635 125.341 24.6279L125.063 26.2419C124.344 25.9746 123.614 25.841 122.874 25.841C121.9 25.841 121.126 26.1802 120.55 26.8587C119.975 27.5372 119.687 28.3871 119.687 29.4082C119.687 30.5185 120.029 31.4437 120.715 32.1839C121.4 32.9241 122.37 33.2941 123.624 33.2941C124.138 33.2941 124.851 33.1674 125.762 32.9138ZM129.792 34.4866H127.818C127.942 32.225 128.003 29.6687 128.003 26.8176C128.003 24.0488 127.904 21.7837 127.705 20.0224L129.792 19.9196C129.662 21.7837 129.597 24.0831 129.597 26.8176C129.597 29.6344 129.662 32.1907 129.792 34.4866ZM141.07 28.4522C141.07 28.74 141.056 29.1375 141.028 29.6447L133.966 29.768C134.034 30.7686 134.422 31.6082 135.128 32.2867C135.833 32.9583 136.769 33.2941 137.934 33.2941C138.976 33.2941 139.952 33.1674 140.864 32.9138L140.689 34.3633C140.018 34.6306 139.048 34.7642 137.78 34.7642C135.998 34.7642 134.638 34.2776 133.699 33.3044C132.767 32.3312 132.301 31.1456 132.301 29.7475C132.301 28.2534 132.725 26.9684 133.575 25.8924C134.432 24.8096 135.58 24.2681 137.019 24.2681C138.342 24.2681 139.346 24.6588 140.031 25.4401C140.723 26.2214 141.07 27.2254 141.07 28.4522ZM139.353 28.4727C139.353 26.5469 138.547 25.584 136.937 25.584C135.292 25.584 134.322 26.5846 134.028 28.5858L139.353 28.4727Z" fill="white"/>
</svg>
