<svg width="21" height="21" viewBox="0 0 21 21" fill="none" xmlns="http://www.w3.org/2000/svg">
<mask id="path-1-outside-1" maskUnits="userSpaceOnUse" x="0.0279541" y="1.0752" width="17" height="19" fill="black">
<rect fill="white" x="0.0279541" y="1.0752" width="17" height="19"/>
<path fill-rule="evenodd" clip-rule="evenodd" d="M11.8192 12.7861C10.6894 12.6117 10.4941 11.0704 10.4941 11.0704C10.4941 11.0704 11.4286 10.4218 11.3728 9.27802C11.3728 9.27802 11.6309 9.29894 11.6937 8.97116C11.7564 8.64337 11.9029 8.05753 11.9029 8.05753C11.9698 7.64466 11.7634 7.42985 11.6518 7.37406V6.02803C11.6518 5.2693 11.5205 4.68201 11.0393 4.34027C10.8301 3.1686 9.63351 3.0752 8.9085 3.0752L8.90834 3.08404C7.81083 3.0916 5.94126 3.7945 5.94126 6.02802V7.37405C5.82968 7.42984 5.62325 7.64465 5.69019 8.05752C5.69019 8.05752 5.83664 8.64336 5.89941 8.97115C5.96219 9.29893 6.22023 9.27801 6.22023 9.27801C6.16443 10.4218 7.09897 11.0704 7.09897 11.0704C7.09897 11.0704 6.90371 12.6117 5.77387 12.786C5.77387 12.786 4.57435 13.2533 3.82113 13.4625C3.06791 13.6718 2.36313 14.1041 2.03569 16.1476C2.00079 16.3654 2.09001 16.4889 2.18314 16.5572H2.16789C3.15868 17.4913 5.92192 18.5377 8.62065 18.5377C11.3194 18.5377 14.2661 17.4913 15.4142 16.5572H15.4099C15.5031 16.4889 15.5923 16.3654 15.5574 16.1476C15.2299 14.1041 14.5252 13.6718 13.7719 13.4626C13.0187 13.2533 11.8192 12.7861 11.8192 12.7861Z"/>
</mask>
<path d="M10.4941 11.0704L9.8099 10.0846C9.44254 10.3395 9.24741 10.7776 9.30362 11.2212L10.4941 11.0704ZM11.8192 12.7861L12.2548 11.6679C12.1733 11.6362 12.0886 11.6134 12.0022 11.6001L11.8192 12.7861ZM11.3728 9.27802L11.4698 8.08195C11.1257 8.05404 10.7861 8.17575 10.5381 8.41596C10.29 8.65617 10.1574 8.99159 10.1743 9.33649L11.3728 9.27802ZM11.6937 8.97116L12.8722 9.19687L12.8722 9.19686L11.6937 8.97116ZM11.9029 8.05753L13.0671 8.34855C13.0752 8.31587 13.082 8.28285 13.0874 8.24959L11.9029 8.05753ZM11.6518 7.37406H10.4518C10.4518 7.82858 10.7086 8.24409 11.1151 8.44736L11.6518 7.37406ZM11.0393 4.34027L9.85797 4.55122C9.91327 4.86092 10.088 5.13651 10.3445 5.31866L11.0393 4.34027ZM8.9085 3.0752V1.8752C8.2541 1.8752 7.72036 2.39949 7.70869 3.05379L8.9085 3.0752ZM8.90834 3.08404L8.9166 4.28401C9.56777 4.27953 10.0965 3.75653 10.1081 3.10545L8.90834 3.08404ZM5.94126 7.37405L6.47793 8.44735C6.88447 8.24408 7.14126 7.82857 7.14126 7.37405H5.94126ZM5.69019 8.05752L4.50566 8.24958C4.51105 8.28284 4.51784 8.31586 4.52601 8.34854L5.69019 8.05752ZM5.89941 8.97115L4.72083 9.19685V9.19685L5.89941 8.97115ZM6.22023 9.27801L7.4188 9.33648C7.43563 8.99159 7.30306 8.65616 7.055 8.41595C6.80694 8.17574 6.46742 8.05403 6.12325 8.08194L6.22023 9.27801ZM7.09897 11.0704L8.28946 11.2212C8.34566 10.7776 8.15053 10.3395 7.78317 10.0846L7.09897 11.0704ZM5.77387 12.786L5.59085 11.6001C5.50445 11.6134 5.41976 11.6362 5.33829 11.6679L5.77387 12.786ZM2.03569 16.1476L3.22057 16.3375H3.22057L2.03569 16.1476ZM2.18314 16.5572V17.7572C2.70207 17.7572 3.1622 17.4236 3.32362 16.9304C3.48503 16.4372 3.31114 15.8962 2.89263 15.5894L2.18314 16.5572ZM2.16789 16.5572V15.3572C1.6761 15.3572 1.23409 15.6572 1.0526 16.1143C0.871102 16.5714 0.986859 17.0929 1.34468 17.4303L2.16789 16.5572ZM15.4142 16.5572L16.1715 17.488C16.5654 17.1675 16.7149 16.6337 16.5449 16.1553C16.3748 15.6768 15.922 15.3572 15.4142 15.3572V16.5572ZM15.4099 16.5572L14.7004 15.5894C14.2819 15.8962 14.1081 16.4373 14.2695 16.9304C14.4309 17.4236 14.891 17.7572 15.4099 17.7572V16.5572ZM15.5574 16.1476L14.3725 16.3375V16.3375L15.5574 16.1476ZM13.7719 13.4626L14.0931 12.3063L13.7719 13.4626ZM10.4941 11.0704C9.30362 11.2212 9.30367 11.2216 9.30372 11.2221C9.30374 11.2222 9.3038 11.2226 9.30383 11.2229C9.30391 11.2235 9.30399 11.2242 9.30408 11.2248C9.30424 11.2261 9.30443 11.2275 9.30463 11.229C9.30502 11.232 9.30548 11.2354 9.306 11.2392C9.30705 11.2467 9.30835 11.2558 9.30994 11.2664C9.31312 11.2875 9.31746 11.3146 9.32319 11.3468C9.3346 11.4111 9.35174 11.4972 9.37653 11.5987C9.4252 11.7979 9.50793 12.0755 9.6456 12.3704C9.90452 12.9251 10.4875 13.7948 11.6362 13.972L12.0022 11.6001C11.9957 11.5991 11.9896 11.6007 11.9638 11.5761C11.927 11.541 11.8743 11.4709 11.8203 11.3553C11.7679 11.243 11.7312 11.1244 11.708 11.0292C11.6968 10.9835 11.6899 10.9478 11.6862 10.9271C11.6844 10.9169 11.6834 10.9106 11.6832 10.9091C11.6831 10.9083 11.6832 10.9088 11.6834 10.9105C11.6835 10.9113 11.6837 10.9125 11.6839 10.914C11.684 10.9148 11.6841 10.9156 11.6842 10.9165C11.6843 10.917 11.6843 10.9175 11.6844 10.918C11.6844 10.9182 11.6845 10.9186 11.6845 10.9188C11.6845 10.9192 11.6846 10.9196 10.4941 11.0704ZM10.1743 9.33649C10.1848 9.55146 10.1067 9.73191 9.9911 9.88754C9.93363 9.9649 9.87467 10.0246 9.83304 10.0623C9.81285 10.0807 9.7986 10.0921 9.79329 10.0963C9.7907 10.0983 9.7905 10.0984 9.79309 10.0965C9.79438 10.0956 9.7964 10.0941 9.79918 10.0921C9.80057 10.0911 9.80215 10.09 9.80394 10.0887C9.80483 10.0881 9.80577 10.0874 9.80676 10.0867C9.80726 10.0864 9.80777 10.086 9.80829 10.0857C9.80855 10.0855 9.80896 10.0852 9.80909 10.0851C9.80949 10.0848 9.8099 10.0846 10.4941 11.0704C11.1783 12.0562 11.1787 12.0559 11.1791 12.0557C11.1793 12.0556 11.1797 12.0553 11.18 12.0551C11.1806 12.0547 11.1812 12.0542 11.1818 12.0538C11.183 12.053 11.1843 12.0521 11.1856 12.0511C11.1883 12.0492 11.1912 12.0472 11.1944 12.0449C11.2007 12.0404 11.2079 12.0351 11.2161 12.0292C11.2323 12.0172 11.2521 12.0022 11.275 11.9843C11.3206 11.9485 11.3789 11.9004 11.4455 11.84C11.5773 11.7204 11.7485 11.5465 11.9177 11.3187C12.2554 10.8641 12.6167 10.1484 12.5714 9.21955L10.1743 9.33649ZM10.5151 8.74545C10.529 8.67292 10.5663 8.55873 10.6562 8.43852C10.747 8.31714 10.8621 8.22899 10.9782 8.17162C11.0885 8.11717 11.1897 8.09493 11.2647 8.08552C11.3034 8.08065 11.3396 8.07865 11.3727 8.07833C11.3894 8.07818 11.4058 8.07844 11.4218 8.07906C11.4299 8.07937 11.4379 8.07977 11.4459 8.08025C11.4499 8.08049 11.4539 8.08075 11.4579 8.08104C11.4599 8.08118 11.4618 8.08132 11.4638 8.08148C11.4648 8.08155 11.4658 8.08163 11.4668 8.08171C11.4673 8.08175 11.4681 8.08181 11.4683 8.08183C11.4691 8.08189 11.4698 8.08195 11.3728 9.27802C11.2759 10.4741 11.2766 10.4742 11.2774 10.4742C11.2776 10.4742 11.2784 10.4743 11.2789 10.4743C11.2799 10.4744 11.2809 10.4745 11.2819 10.4746C11.284 10.4747 11.2861 10.4749 11.2882 10.475C11.2924 10.4753 11.2968 10.4756 11.3013 10.4759C11.3103 10.4764 11.3197 10.4769 11.3297 10.4773C11.3496 10.4781 11.3716 10.4785 11.3954 10.4782C11.4429 10.4778 11.4997 10.4748 11.5636 10.4668C11.6889 10.4511 11.8586 10.4136 12.0412 10.3234C12.4636 10.1147 12.773 9.7152 12.8722 9.19687L10.5151 8.74545ZM11.9029 8.05753C10.7387 7.76651 10.7387 7.76653 10.7387 7.76655C10.7387 7.76656 10.7387 7.76659 10.7387 7.76661C10.7387 7.76665 10.7387 7.7667 10.7386 7.76676C10.7386 7.76688 10.7386 7.76703 10.7385 7.76722C10.7384 7.7676 10.7383 7.76812 10.7381 7.76877C10.7378 7.77009 10.7373 7.77195 10.7368 7.77434C10.7356 7.77912 10.7339 7.78601 10.7317 7.79479C10.7273 7.81234 10.7211 7.83752 10.7135 7.86864C10.6983 7.93079 10.6773 8.01722 10.6542 8.11447C10.6095 8.30279 10.5518 8.5535 10.5151 8.74545L12.8722 9.19686C12.8983 9.06102 12.9452 8.85492 12.9894 8.66838C13.0108 8.57819 13.0304 8.49767 13.0445 8.43974C13.0516 8.41082 13.0574 8.38767 13.0613 8.3719C13.0632 8.36402 13.0647 8.358 13.0657 8.35404C13.0662 8.35206 13.0665 8.35059 13.0668 8.34967C13.0669 8.34921 13.067 8.34888 13.067 8.3487C13.067 8.3486 13.0671 8.34854 13.0671 8.34852C13.0671 8.34851 13.0671 8.3485 13.0671 8.34851C13.0671 8.34851 13.0671 8.34852 13.0671 8.34852C13.0671 8.34854 13.0671 8.34855 11.9029 8.05753ZM11.1151 8.44736C10.9265 8.35302 10.8264 8.22749 10.775 8.1265C10.7101 7.99914 10.7133 7.89633 10.7184 7.86548L13.0874 8.24959C13.2377 7.32281 12.7733 6.59316 12.1885 6.30075L11.1151 8.44736ZM10.4518 6.02803V7.37406H12.8518V6.02803H10.4518ZM10.3445 5.31866C10.3503 5.32278 10.351 5.32393 10.3529 5.32675C10.3563 5.33156 10.3695 5.35197 10.3854 5.40069C10.4215 5.51097 10.4518 5.70265 10.4518 6.02803H12.8518C12.8518 5.21355 12.7305 4.06945 11.7341 3.36188L10.3445 5.31866ZM8.9085 4.2752C9.24977 4.2752 9.52851 4.30371 9.71372 4.37933C9.79084 4.41081 9.81524 4.43659 9.81976 4.44172C9.82241 4.44472 9.82668 4.45004 9.83229 4.46192C9.83812 4.47427 9.84912 4.50168 9.85797 4.55122L12.2206 4.12932C12.0306 3.06523 11.3431 2.45224 10.6209 2.15739C9.97428 1.89338 9.29224 1.8752 8.9085 1.8752V4.2752ZM10.1081 3.10545L10.1083 3.0966L7.70869 3.05379L7.70853 3.06263L10.1081 3.10545ZM7.14126 6.02802C7.14126 5.299 7.42285 4.91533 7.73569 4.67945C8.09983 4.40488 8.5788 4.28634 8.9166 4.28401L8.90008 1.88407C8.14037 1.8893 7.1358 2.12599 6.29078 2.76314C5.39446 3.43898 4.74126 4.52353 4.74126 6.02802H7.14126ZM7.14126 7.37405V6.02802H4.74126V7.37405H7.14126ZM6.87472 7.86546C6.87972 7.89632 6.88294 7.99913 6.81808 8.12649C6.76665 8.22748 6.66661 8.35301 6.47793 8.44735L5.40459 6.30074C4.8198 6.59315 4.35539 7.32281 4.50566 8.24958L6.87472 7.86546ZM7.07799 8.74544C7.04123 8.55349 6.98353 8.30278 6.93886 8.11446C6.9158 8.01721 6.89481 7.93079 6.87959 7.86864C6.87196 7.83751 6.86574 7.81233 6.8614 7.79478C6.85922 7.786 6.85751 7.77912 6.85632 7.77434C6.85573 7.77195 6.85526 7.77008 6.85493 7.76877C6.85477 7.76811 6.85464 7.76759 6.85454 7.76721C6.8545 7.76702 6.85446 7.76687 6.85443 7.76675C6.85441 7.76669 6.8544 7.76664 6.85439 7.7666C6.85439 7.76658 6.85438 7.76655 6.85438 7.76654C6.85437 7.76652 6.85437 7.7665 5.69019 8.05752C4.52601 8.34854 4.52601 8.34853 4.52601 8.34852C4.52601 8.34851 4.526 8.3485 4.526 8.3485C4.526 8.34849 4.526 8.3485 4.52601 8.34851C4.52601 8.34853 4.52603 8.34859 4.52605 8.34869C4.5261 8.34887 4.52618 8.3492 4.52629 8.34966C4.52652 8.35058 4.52689 8.35205 4.52738 8.35403C4.52837 8.35799 4.52986 8.36401 4.53182 8.37189C4.53572 8.38766 4.54144 8.41081 4.54852 8.43973C4.56272 8.49766 4.58227 8.57819 4.60366 8.66837C4.64791 8.85491 4.69481 9.06101 4.72083 9.19685L7.07799 8.74544ZM6.22023 9.27801C6.12325 8.08194 6.124 8.08188 6.12474 8.08182C6.12499 8.0818 6.12574 8.08174 6.12624 8.0817C6.12724 8.08162 6.12824 8.08154 6.12923 8.08147C6.13123 8.08132 6.13322 8.08117 6.13522 8.08103C6.1392 8.08075 6.1432 8.08048 6.14719 8.08024C6.15517 8.07976 6.16319 8.07936 6.17124 8.07905C6.1873 8.07844 6.20369 8.07817 6.2204 8.07833C6.25349 8.07864 6.28967 8.08064 6.32841 8.08551C6.40338 8.09492 6.50461 8.11716 6.61483 8.17161C6.73097 8.22898 6.84606 8.31714 6.93687 8.43852C7.0268 8.55872 7.06411 8.67292 7.07799 8.74544L4.72083 9.19685C4.82009 9.71519 5.12946 10.1147 5.55189 10.3234C5.73446 10.4136 5.90413 10.4511 6.02945 10.4668C6.09335 10.4748 6.15018 10.4778 6.19763 10.4782C6.22152 10.4784 6.24352 10.478 6.26339 10.4773C6.27334 10.4769 6.28282 10.4764 6.29178 10.4759C6.29626 10.4756 6.30062 10.4753 6.30486 10.475C6.30698 10.4749 6.30907 10.4747 6.31113 10.4746C6.31215 10.4745 6.31317 10.4744 6.31419 10.4743C6.31469 10.4743 6.31545 10.4742 6.3157 10.4742C6.31645 10.4741 6.3172 10.4741 6.22023 9.27801ZM7.09897 11.0704C7.78317 10.0846 7.78358 10.0848 7.78399 10.0851C7.78412 10.0852 7.78452 10.0855 7.78478 10.0857C7.7853 10.086 7.78581 10.0864 7.78631 10.0867C7.7873 10.0874 7.78824 10.0881 7.78914 10.0887C7.79092 10.09 7.7925 10.0911 7.79389 10.0921C7.79667 10.0941 7.79869 10.0955 7.79999 10.0965C7.80258 10.0984 7.80237 10.0983 7.79978 10.0963C7.79448 10.0921 7.78023 10.0807 7.76003 10.0623C7.7184 10.0246 7.65944 9.9649 7.60197 9.88753C7.48636 9.7319 7.40831 9.55145 7.4188 9.33648L5.02165 9.21955C4.97634 10.1483 5.33767 10.8641 5.67538 11.3187C5.84457 11.5465 6.01576 11.7204 6.14761 11.84C6.21416 11.9004 6.27249 11.9485 6.31807 11.9843C6.34092 12.0022 6.36074 12.0172 6.37699 12.0291C6.38513 12.0351 6.39238 12.0404 6.39869 12.0449C6.40185 12.0471 6.40477 12.0492 6.40746 12.0511C6.4088 12.0521 6.41008 12.0529 6.4113 12.0538C6.41191 12.0542 6.4125 12.0546 6.41308 12.055C6.41337 12.0552 6.41379 12.0555 6.41394 12.0556C6.41436 12.0559 6.41477 12.0562 7.09897 11.0704ZM5.95689 13.972C7.10554 13.7947 7.68856 12.9251 7.94747 12.3704C8.08514 12.0755 8.16787 11.7979 8.21654 11.5987C8.24133 11.4972 8.25847 11.411 8.26988 11.3468C8.27561 11.3146 8.27995 11.2875 8.28313 11.2664C8.28472 11.2558 8.28603 11.2467 8.28707 11.2392C8.28759 11.2354 8.28805 11.232 8.28845 11.229C8.28865 11.2275 8.28883 11.2261 8.289 11.2248C8.28908 11.2242 8.28916 11.2235 8.28924 11.2229C8.28928 11.2226 8.28933 11.2222 8.28935 11.2221C8.2894 11.2216 8.28946 11.2212 7.09897 11.0704C5.90849 10.9196 5.90854 10.9192 5.90859 10.9188C5.90861 10.9186 5.90866 10.9182 5.90869 10.918C5.90875 10.9175 5.90882 10.917 5.90888 10.9165C5.909 10.9156 5.90911 10.9148 5.90921 10.914C5.90941 10.9125 5.90957 10.9113 5.90969 10.9105C5.90992 10.9088 5.90999 10.9083 5.90988 10.9091C5.90964 10.9106 5.90869 10.9169 5.90687 10.9271C5.90318 10.9478 5.89624 10.9835 5.88508 11.0292C5.86182 11.1244 5.82513 11.243 5.77275 11.3552C5.71875 11.4709 5.66611 11.541 5.6293 11.5761C5.60349 11.6007 5.59737 11.5991 5.59085 11.6001L5.95689 13.972ZM4.1423 14.6188C4.56636 14.501 5.09121 14.3183 5.48926 14.1739C5.69278 14.1 5.87172 14.033 5.99992 13.9845C6.0641 13.9601 6.1158 13.9403 6.15176 13.9265C6.16975 13.9196 6.18382 13.9141 6.19356 13.9104C6.19844 13.9085 6.20223 13.907 6.20489 13.906C6.20623 13.9055 6.20728 13.905 6.20804 13.9048C6.20842 13.9046 6.20872 13.9045 6.20896 13.9044C6.20908 13.9043 6.20918 13.9043 6.20926 13.9043C6.2093 13.9043 6.20935 13.9042 6.20937 13.9042C6.20941 13.9042 6.20945 13.9042 5.77387 12.786C5.33829 11.6679 5.33832 11.6679 5.33835 11.6679C5.33835 11.6679 5.33837 11.6679 5.33837 11.6679C5.33838 11.6679 5.33837 11.6679 5.33834 11.6679C5.33829 11.6679 5.33816 11.6679 5.33796 11.668C5.33756 11.6682 5.33688 11.6684 5.33592 11.6688C5.334 11.6696 5.33096 11.6707 5.32686 11.6723C5.31867 11.6755 5.30623 11.6803 5.28995 11.6866C5.25737 11.6991 5.20947 11.7174 5.14943 11.7402C5.02918 11.7858 4.86116 11.8487 4.67066 11.9178C4.28064 12.0593 3.82912 12.2149 3.49996 12.3063L4.1423 14.6188ZM3.22057 16.3375C3.36851 15.4143 3.57802 15.0268 3.70633 14.8662C3.80142 14.7471 3.89918 14.6863 4.1423 14.6188L3.49996 12.3063C2.98986 12.448 2.35862 12.708 1.83116 13.3683C1.33691 13.987 1.03031 14.8375 0.850801 15.9578L3.22057 16.3375ZM2.89263 15.5894C2.97703 15.6512 3.08559 15.7581 3.15815 15.9215C3.23367 16.0916 3.23542 16.2448 3.22057 16.3375L0.850801 15.9578C0.801059 16.2682 0.829967 16.5921 0.964656 16.8954C1.09639 17.1921 1.29612 17.3948 1.47366 17.525L2.89263 15.5894ZM2.18314 15.3572H2.16789V17.7572H2.18314V15.3572ZM1.34468 17.4303C2.02705 18.0736 3.15902 18.637 4.37935 19.0378C5.63311 19.4496 7.12544 19.7377 8.62065 19.7377V17.3377C7.41713 17.3377 6.17848 17.1026 5.12823 16.7576C4.04456 16.4017 3.29952 15.9748 2.99109 15.6841L1.34468 17.4303ZM8.62065 19.7377C10.114 19.7377 11.6467 19.4502 12.955 19.0437C14.2385 18.6448 15.4274 18.0935 16.1715 17.488L14.6568 15.6264C14.2529 15.955 13.3944 16.3939 12.2428 16.7518C11.1161 17.1019 9.82607 17.3377 8.62065 17.3377V19.7377ZM15.4142 15.3572H15.4099V17.7572H15.4142V15.3572ZM14.3725 16.3375C14.3577 16.2449 14.3594 16.0916 14.4349 15.9215C14.5075 15.7581 14.616 15.6513 14.7004 15.5894L16.1195 17.5249C16.297 17.3948 16.4967 17.1921 16.6284 16.8954C16.7631 16.5921 16.792 16.2682 16.7423 15.9578L14.3725 16.3375ZM13.4508 14.6188C13.6939 14.6863 13.7917 14.7472 13.8867 14.8662C14.0151 15.0268 14.2246 15.4143 14.3725 16.3375L16.7423 15.9578C16.5628 14.8375 16.2562 13.987 15.7619 13.3683C15.2345 12.708 14.6032 12.448 14.0931 12.3063L13.4508 14.6188ZM11.8192 12.7861C11.3836 13.9042 11.3837 13.9042 11.3837 13.9042C11.3837 13.9043 11.3838 13.9043 11.3838 13.9043C11.3839 13.9043 11.384 13.9044 11.3841 13.9044C11.3843 13.9045 11.3847 13.9046 11.385 13.9048C11.3858 13.9051 11.3868 13.9055 11.3882 13.906C11.3908 13.907 11.3946 13.9085 11.3995 13.9104C11.4093 13.9141 11.4233 13.9196 11.4413 13.9265C11.4773 13.9403 11.529 13.9601 11.5932 13.9845C11.7214 14.033 11.9003 14.1 12.1038 14.1739C12.5019 14.3183 13.0267 14.501 13.4508 14.6188L14.0931 12.3063C13.764 12.2149 13.3124 12.0593 12.9224 11.9178C12.7319 11.8487 12.5639 11.7858 12.4436 11.7402C12.3836 11.7175 12.3357 11.6991 12.3031 11.6866C12.2868 11.6803 12.2744 11.6755 12.2662 11.6723C12.2621 11.6707 12.2591 11.6696 12.2572 11.6688C12.2562 11.6684 12.2555 11.6682 12.2551 11.668C12.2549 11.668 12.2548 11.6679 12.2547 11.6679C12.2547 11.6679 12.2547 11.6679 12.2547 11.6679C12.2547 11.6679 12.2547 11.6679 12.2547 11.6679C12.2548 11.6679 12.2548 11.6679 11.8192 12.7861Z" fill="#2B3242" mask="url(#path-1-outside-1)"/>
<mask id="mask0" style="mask-type:alpha" maskUnits="userSpaceOnUse" x="9" y="0" width="12" height="21">
<path d="M9.80664 0.197266H20.6816V20.1035H12.7285L16.1973 16.791L14.6348 13.166L11.3066 11.8535L12.4004 7.83789L11.3066 3.43164L9.80664 0.197266Z" fill="#C4C4C4"/>
</mask>
<g mask="url(#mask0)">
<mask id="path-4-outside-2" maskUnits="userSpaceOnUse" x="7.32007" y="0.257812" width="13" height="15" fill="black">
<rect fill="white" x="7.32007" y="0.257812" width="13" height="15"/>
<path fill-rule="evenodd" clip-rule="evenodd" d="M16.3737 9.25346C15.5598 9.12786 15.4191 8.01751 15.4191 8.01751C15.4191 8.01751 16.0924 7.55026 16.0522 6.72629C16.0522 6.72629 16.238 6.74137 16.2833 6.50523C16.3285 6.26909 16.434 5.84706 16.434 5.84706C16.4822 5.54963 16.3335 5.39488 16.2531 5.35469V4.38502C16.2531 3.83844 16.1585 3.41535 15.8119 3.16917C15.6611 2.3251 14.7991 2.25781 14.2769 2.25781L14.2767 2.2646C13.4861 2.27001 12.1392 2.77636 12.1392 4.38543V5.3551C12.0588 5.39529 11.9101 5.55003 11.9583 5.84747C11.9583 5.84747 12.0638 6.2695 12.109 6.50564C12.1543 6.74177 12.3402 6.7267 12.3402 6.7267C12.3 7.55067 12.9732 8.01792 12.9732 8.01792C12.9732 8.01792 12.8325 9.12826 12.0186 9.25387C12.0186 9.25387 11.1545 9.59049 10.6119 9.74122C10.0692 9.89194 9.56152 10.2034 9.32564 11.6755C9.30057 11.832 9.36442 11.9209 9.4313 11.9701H9.42101C10.1348 12.6431 12.1254 13.3969 14.0695 13.3969C16.0137 13.3969 18.1365 12.6431 18.9636 11.9701H18.9605C19.0275 11.921 19.0918 11.832 19.0667 11.6751C18.8308 10.203 18.3231 9.89154 17.7805 9.74081C17.2378 9.59008 16.3737 9.25346 16.3737 9.25346Z"/>
</mask>
<path d="M15.4191 8.01751L14.7349 7.03168C14.3676 7.28664 14.1724 7.72471 14.2286 8.16833L15.4191 8.01751ZM16.3737 9.25346L16.8093 8.13531C16.7278 8.10357 16.6431 8.08084 16.5567 8.0675L16.3737 9.25346ZM16.0522 6.72629L16.1491 5.53022C15.805 5.50231 15.4654 5.62402 15.2174 5.86423C14.9693 6.10444 14.8368 6.43987 14.8536 6.78476L16.0522 6.72629ZM16.2833 6.50523L15.1047 6.27952L15.1047 6.27952L16.2833 6.50523ZM16.434 5.84706L17.5982 6.13808C17.6063 6.10539 17.6131 6.07238 17.6185 6.03912L16.434 5.84706ZM16.2531 5.35469H15.0531C15.0531 5.80921 15.3099 6.22472 15.7164 6.42799L16.2531 5.35469ZM15.8119 3.16917L14.6305 3.38011C14.6858 3.68981 14.8606 3.96541 15.1171 4.14756L15.8119 3.16917ZM14.2769 2.25781V1.05781C13.6225 1.05781 13.0887 1.58211 13.077 2.23639L14.2769 2.25781ZM14.2767 2.2646L14.285 3.46457C14.9361 3.46011 15.4649 2.93711 15.4765 2.28602L14.2767 2.2646ZM12.1392 5.3551L12.6759 6.4284C13.0824 6.22513 13.3392 5.80962 13.3392 5.3551H12.1392ZM11.9583 5.84747L10.7738 6.03953C10.7792 6.07278 10.786 6.1058 10.7941 6.13849L11.9583 5.84747ZM12.109 6.50564L13.2876 6.27993L13.2876 6.27993L12.109 6.50564ZM12.3402 6.7267L13.5387 6.78517C13.5556 6.44027 13.423 6.10485 13.1749 5.86464C12.9269 5.62443 12.5874 5.50272 12.2432 5.53063L12.3402 6.7267ZM12.9732 8.01792L14.1637 8.16874C14.2199 7.72512 14.0248 7.28705 13.6574 7.03208L12.9732 8.01792ZM12.0186 9.25387L11.8356 8.06791C11.7492 8.08124 11.6645 8.10398 11.583 8.13571L12.0186 9.25387ZM10.6119 9.74122L10.2907 8.585H10.2907L10.6119 9.74122ZM9.32564 11.6755L10.5105 11.8654L9.32564 11.6755ZM9.4313 11.9701V13.1701C9.94973 13.1701 10.4095 12.8372 10.5714 12.3447C10.7332 11.8522 10.5604 11.3114 10.143 11.004L9.4313 11.9701ZM9.42101 11.9701V10.7702C8.92922 10.7702 8.48722 11.0702 8.30572 11.5273C8.12423 11.9844 8.23998 12.5059 8.5978 12.8433L9.42101 11.9701ZM18.9636 11.9701L19.7209 12.9009C20.1148 12.5805 20.2643 12.0467 20.0943 11.5683C19.9242 11.0898 19.4714 10.7702 18.9636 10.7702V11.9701ZM18.9605 11.9701L18.2509 11.0024C17.8324 11.3092 17.6586 11.8503 17.82 12.3434C17.9814 12.8366 18.4415 13.1701 18.9605 13.1701V11.9701ZM19.0667 11.6751L17.8818 11.865V11.865L19.0667 11.6751ZM15.4191 8.01751C14.2286 8.16833 14.2287 8.16875 14.2287 8.16917C14.2288 8.16932 14.2288 8.16974 14.2288 8.17003C14.2289 8.17062 14.229 8.17122 14.2291 8.17185C14.2292 8.17309 14.2294 8.17441 14.2296 8.17581C14.23 8.1786 14.2304 8.18168 14.2308 8.18505C14.2318 8.19179 14.2329 8.19968 14.2343 8.20867C14.237 8.22661 14.2406 8.24902 14.2452 8.27532C14.2545 8.32768 14.2683 8.39677 14.2881 8.4777C14.3267 8.63577 14.3927 8.85798 14.5038 9.09597C14.7096 9.53679 15.2 10.2865 16.1907 10.4394L16.5567 8.0675C16.7335 8.09478 16.7466 8.22655 16.6786 8.0808C16.6527 8.02551 16.6327 7.96228 16.6195 7.90823C16.6134 7.8831 16.6098 7.86447 16.6083 7.85562C16.6075 7.85131 16.6073 7.84974 16.6075 7.85136C16.6076 7.85218 16.6079 7.85382 16.6082 7.85635C16.6084 7.85762 16.6086 7.85911 16.6088 7.86083C16.609 7.86169 16.6091 7.8626 16.6092 7.86358C16.6093 7.86407 16.6093 7.86457 16.6094 7.86509C16.6094 7.86535 16.6095 7.86575 16.6095 7.86588C16.6095 7.86628 16.6096 7.86669 15.4191 8.01751ZM14.8536 6.78476C14.8563 6.83983 14.8396 6.89499 14.7874 6.96531C14.7616 7.00001 14.7348 7.02703 14.7175 7.0428C14.7094 7.05011 14.7053 7.05325 14.7071 7.05183C14.7081 7.05107 14.7107 7.04906 14.7152 7.04574C14.7174 7.04408 14.7202 7.04209 14.7234 7.03975C14.7251 7.03858 14.7269 7.03732 14.7288 7.03598C14.7297 7.0353 14.7307 7.03461 14.7317 7.03389C14.7322 7.03354 14.7328 7.03317 14.7333 7.0328C14.7336 7.03262 14.734 7.03234 14.7341 7.03224C14.7345 7.03196 14.7349 7.03168 15.4191 8.01751C16.1033 9.00335 16.1037 9.00306 16.1041 9.00277C16.1043 9.00267 16.1047 9.00238 16.105 9.00218C16.1056 9.00178 16.1061 9.00137 16.1067 9.00096C16.1079 9.00013 16.1092 8.99926 16.1104 8.99836C16.113 8.99656 16.1157 8.99462 16.1186 8.99254C16.1245 8.98839 16.131 8.98367 16.1382 8.97838C16.1525 8.96782 16.1695 8.95497 16.1888 8.93983C16.2273 8.90963 16.2755 8.86982 16.3299 8.82046C16.4375 8.72287 16.5765 8.58158 16.714 8.39648C16.9883 8.02717 17.2882 7.43673 17.2507 6.66783L14.8536 6.78476ZM15.1047 6.27952C15.123 6.18409 15.1681 6.05307 15.2672 5.92053C15.3673 5.78681 15.493 5.69079 15.6193 5.62842C15.7396 5.56898 15.8504 5.5446 15.9324 5.53431C15.9747 5.529 16.0138 5.52687 16.0488 5.52653C16.0666 5.52637 16.0837 5.52665 16.1003 5.52729C16.1087 5.52761 16.1169 5.52802 16.125 5.52851C16.1291 5.52876 16.1331 5.52902 16.1371 5.52931C16.1391 5.52945 16.1411 5.5296 16.1431 5.52975C16.1441 5.52982 16.1451 5.5299 16.1461 5.52998C16.1466 5.53002 16.1474 5.53008 16.1476 5.5301C16.1484 5.53016 16.1491 5.53022 16.0522 6.72629C15.9552 7.92237 15.9559 7.92243 15.9567 7.92249C15.9569 7.92251 15.9577 7.92257 15.9582 7.92261C15.9592 7.92269 15.9602 7.92277 15.9612 7.92285C15.9633 7.923 15.9654 7.92315 15.9675 7.9233C15.9717 7.9236 15.976 7.92388 15.9804 7.92415C15.9892 7.92468 15.9985 7.92515 16.0082 7.92552C16.0275 7.92626 16.0487 7.92664 16.0716 7.92643C16.1171 7.926 16.171 7.92319 16.2314 7.91561C16.3497 7.90076 16.5098 7.8654 16.6822 7.7802C17.0844 7.58152 17.3714 7.20344 17.4619 6.73094L15.1047 6.27952ZM16.434 5.84706C15.2698 5.55604 15.2698 5.55606 15.2698 5.55608C15.2698 5.55609 15.2698 5.55611 15.2698 5.55613C15.2698 5.55617 15.2698 5.55621 15.2698 5.55626C15.2697 5.55636 15.2697 5.55648 15.2697 5.55663C15.2696 5.55693 15.2695 5.55733 15.2694 5.55783C15.2691 5.55883 15.2688 5.56023 15.2683 5.56201C15.2674 5.56557 15.2662 5.57065 15.2646 5.5771C15.2614 5.59 15.2568 5.60841 15.2513 5.63115C15.2402 5.67651 15.2248 5.73959 15.208 5.81064C15.1757 5.94655 15.1327 6.1334 15.1047 6.27952L17.4619 6.73094C17.4791 6.64092 17.5114 6.49868 17.5432 6.36455C17.5584 6.30057 17.5723 6.24339 17.5823 6.20224C17.5874 6.18172 17.5914 6.16532 17.5942 6.15421C17.5955 6.14866 17.5966 6.14444 17.5973 6.1417C17.5976 6.14033 17.5979 6.13934 17.598 6.13873C17.5981 6.13842 17.5981 6.13821 17.5982 6.1381C17.5982 6.13805 17.5982 6.13802 17.5982 6.13802C17.5982 6.13801 17.5982 6.13802 17.5982 6.13803C17.5982 6.13803 17.5982 6.13805 17.5982 6.13805C17.5982 6.13806 17.5982 6.13808 16.434 5.84706ZM15.7164 6.42799C15.5122 6.32585 15.3899 6.1814 15.3225 6.04902C15.2416 5.89027 15.2351 5.74358 15.2495 5.655L17.6185 6.03912C17.7501 5.22779 17.3434 4.55819 16.7898 4.28138L15.7164 6.42799ZM15.0531 4.38502V5.35469H17.4531V4.38502H15.0531ZM15.1171 4.14756C15.0892 4.12779 15.0624 4.10076 15.042 4.07143C15.023 4.0441 15.019 4.02839 15.0219 4.03736C15.0254 4.04796 15.034 4.07937 15.0413 4.14048C15.0485 4.20152 15.0531 4.28123 15.0531 4.38502H17.4531C17.4531 3.78268 17.3685 2.8028 16.5067 2.19077L15.1171 4.14756ZM14.2769 3.45781C14.3843 3.45781 14.4808 3.46152 14.5676 3.47232C14.6564 3.48337 14.7075 3.4987 14.7301 3.50794C14.7491 3.51568 14.7198 3.50748 14.6816 3.46409C14.6375 3.41404 14.629 3.37142 14.6305 3.38011L16.9932 2.95822C16.8324 2.05793 16.2432 1.53336 15.6373 1.28599C15.107 1.06947 14.5592 1.05781 14.2769 1.05781V3.45781ZM15.4765 2.28602L15.4767 2.27923L13.077 2.23639L13.0769 2.24318L15.4765 2.28602ZM13.3392 4.38543C13.3392 3.96864 13.4901 3.79024 13.6339 3.68181C13.829 3.53471 14.1006 3.46583 14.285 3.46457L14.2685 1.06463C13.6622 1.06878 12.865 1.25578 12.189 1.76547C11.4617 2.31384 10.9392 3.19314 10.9392 4.38543H13.3392ZM13.3392 5.3551V4.38543H10.9392V5.3551H13.3392ZM13.1429 5.65541C13.1572 5.74399 13.1507 5.89067 13.0698 6.04942C13.0024 6.18181 12.8801 6.32626 12.6759 6.4284L11.6025 4.28179C11.0489 4.5586 10.6422 5.22819 10.7738 6.03953L13.1429 5.65541ZM13.2876 6.27993C13.2596 6.13381 13.2166 5.94696 13.1843 5.81105C13.1675 5.74 13.1522 5.67692 13.141 5.63155C13.1355 5.60882 13.1309 5.5904 13.1277 5.57751C13.1261 5.57106 13.1249 5.56598 13.124 5.56242C13.1235 5.56064 13.1232 5.55924 13.1229 5.55824C13.1228 5.55774 13.1227 5.55734 13.1226 5.55704C13.1226 5.55689 13.1226 5.55676 13.1226 5.55666C13.1225 5.55662 13.1225 5.55657 13.1225 5.55654C13.1225 5.55652 13.1225 5.5565 13.1225 5.55649C13.1225 5.55647 13.1225 5.55645 11.9583 5.84747C10.7941 6.13849 10.7941 6.13847 10.7941 6.13846C10.7941 6.13845 10.7941 6.13844 10.7941 6.13844C10.7941 6.13843 10.7941 6.13842 10.7941 6.13842C10.7941 6.13843 10.7941 6.13846 10.7942 6.13851C10.7942 6.13862 10.7942 6.13883 10.7943 6.13913C10.7945 6.13974 10.7947 6.14074 10.795 6.14211C10.7957 6.14485 10.7968 6.14907 10.7982 6.15462C10.8009 6.16572 10.805 6.18212 10.81 6.20264C10.8201 6.24379 10.8339 6.30097 10.8491 6.36495C10.8809 6.49909 10.9132 6.64133 10.9305 6.73134L13.2876 6.27993ZM12.3402 6.7267C12.2432 5.53063 12.2439 5.53057 12.2447 5.53051C12.2449 5.53049 12.2457 5.53043 12.2462 5.53039C12.2472 5.53031 12.2482 5.53023 12.2492 5.53015C12.2512 5.53 12.2532 5.52986 12.2552 5.52971C12.2592 5.52943 12.2633 5.52916 12.2673 5.52892C12.2754 5.52843 12.2837 5.52802 12.292 5.5277C12.3086 5.52706 12.3258 5.52677 12.3435 5.52694C12.3786 5.52727 12.4176 5.52941 12.4599 5.53471C12.5419 5.54501 12.6527 5.56939 12.773 5.62883C12.8993 5.6912 13.025 5.78721 13.1251 5.92093C13.2243 6.05348 13.2694 6.18449 13.2876 6.27993L10.9305 6.73134C11.021 7.20385 11.3079 7.58193 11.7101 7.78061C11.8826 7.8658 12.0427 7.90117 12.1609 7.91602C12.2213 7.9236 12.2753 7.9264 12.3207 7.92683C12.3436 7.92705 12.3648 7.92667 12.3841 7.92593C12.3938 7.92556 12.4031 7.92509 12.4119 7.92456C12.4163 7.92429 12.4206 7.92401 12.4248 7.92371C12.427 7.92356 12.429 7.92341 12.4311 7.92325C12.4321 7.92317 12.4331 7.9231 12.4341 7.92302C12.4346 7.92298 12.4354 7.92292 12.4356 7.9229C12.4364 7.92284 12.4371 7.92278 12.3402 6.7267ZM12.9732 8.01792C13.6574 7.03208 13.6578 7.03237 13.6582 7.03265C13.6584 7.03274 13.6588 7.03303 13.659 7.03321C13.6596 7.03358 13.6601 7.03394 13.6606 7.0343C13.6616 7.03502 13.6626 7.03571 13.6636 7.03638C13.6655 7.03773 13.6672 7.03898 13.6689 7.04015C13.6721 7.04249 13.6749 7.04449 13.6771 7.04615C13.6816 7.04946 13.6842 7.05148 13.6852 7.05223C13.687 7.05365 13.6829 7.05052 13.6748 7.0432C13.6575 7.02744 13.6307 7.00042 13.6049 6.96571C13.5527 6.8954 13.536 6.84024 13.5387 6.78517L11.1416 6.66823C11.1041 7.43713 11.404 8.02758 11.6783 8.39688C11.8158 8.58198 11.9548 8.72328 12.0624 8.82087C12.1168 8.87023 12.165 8.91004 12.2035 8.94023C12.2228 8.95537 12.2398 8.96823 12.2542 8.97879C12.2613 8.98407 12.2679 8.98879 12.2737 8.99295C12.2766 8.99503 12.2793 8.99697 12.2819 8.99877C12.2832 8.99967 12.2844 9.00054 12.2856 9.00137C12.2862 9.00178 12.2868 9.00219 12.2873 9.00258C12.2876 9.00278 12.288 9.00308 12.2882 9.00317C12.2886 9.00346 12.289 9.00375 12.9732 8.01792ZM12.2016 10.4398C13.1923 10.2869 13.6827 9.5372 13.8885 9.09638C13.9996 8.85838 14.0656 8.63618 14.1042 8.47811C14.124 8.39718 14.1378 8.32808 14.1471 8.27573C14.1517 8.24943 14.1553 8.22702 14.1581 8.20907C14.1594 8.20009 14.1605 8.19219 14.1615 8.18546C14.1619 8.18209 14.1623 8.179 14.1627 8.17622C14.1629 8.17482 14.1631 8.1735 14.1632 8.17225C14.1633 8.17163 14.1634 8.17103 14.1635 8.17044C14.1635 8.17015 14.1636 8.16972 14.1636 8.16958C14.1636 8.16916 14.1637 8.16874 12.9732 8.01792C11.7827 7.8671 11.7828 7.86669 11.7828 7.86629C11.7828 7.86616 11.7829 7.86576 11.7829 7.8655C11.783 7.86498 11.7831 7.86448 11.7831 7.86399C11.7832 7.86301 11.7834 7.86209 11.7835 7.86123C11.7837 7.85951 11.7839 7.85802 11.7841 7.85676C11.7844 7.85423 11.7847 7.85259 11.7848 7.85177C11.785 7.85015 11.7848 7.85171 11.7841 7.85602C11.7825 7.86488 11.7789 7.88351 11.7728 7.90863C11.7596 7.96268 11.7396 8.02591 11.7138 8.08121C11.6457 8.22696 11.6588 8.09519 11.8356 8.06791L12.2016 10.4398ZM10.933 10.8974C11.2518 10.8089 11.6401 10.6735 11.928 10.5691C12.0765 10.5152 12.2069 10.4664 12.3003 10.4309C12.3472 10.4132 12.3849 10.3987 12.4113 10.3886C12.4245 10.3835 12.4349 10.3795 12.4421 10.3767C12.4457 10.3753 12.4486 10.3742 12.4506 10.3734C12.4516 10.373 12.4524 10.3727 12.453 10.3725C12.4533 10.3724 12.4536 10.3723 12.4538 10.3722C12.4539 10.3722 12.4539 10.3721 12.454 10.3721C12.454 10.3721 12.4541 10.3721 12.4541 10.3721C12.4541 10.372 12.4542 10.372 12.0186 9.25387C11.583 8.13571 11.5831 8.1357 11.5831 8.13569C11.5831 8.13569 11.5831 8.13568 11.5831 8.13568C11.5831 8.13567 11.5831 8.13567 11.5831 8.13567C11.5831 8.13568 11.5831 8.1357 11.5829 8.13575C11.5827 8.13584 11.5823 8.13601 11.5816 8.13626C11.5803 8.13676 11.5783 8.13756 11.5754 8.13867C11.5697 8.14087 11.561 8.14424 11.5495 8.14866C11.5265 8.15751 11.4925 8.17052 11.4499 8.18669C11.3643 8.2191 11.2448 8.26385 11.1094 8.31298C10.8296 8.41452 10.5145 8.52281 10.2907 8.585L10.933 10.8974ZM10.5105 11.8654C10.6127 11.2278 10.75 11.0135 10.7913 10.9618C10.7994 10.9517 10.7952 10.9357 10.933 10.8974L10.2907 8.585C9.88589 8.69744 9.35657 8.91254 8.91614 9.46389C8.50893 9.97366 8.27448 10.6511 8.14075 11.4857L10.5105 11.8654ZM10.143 11.004C10.2404 11.0758 10.3612 11.1962 10.4416 11.3779C10.5248 11.5662 10.5302 11.7427 10.5105 11.8654L8.14075 11.4857C8.09603 11.7648 8.12082 12.064 8.24641 12.3481C8.36912 12.6258 8.55528 12.8153 8.71962 12.9363L10.143 11.004ZM9.4313 10.7702H9.42101V13.1701H9.4313V10.7702ZM8.5978 12.8433C9.14166 13.356 10.0112 13.781 10.9094 14.076C11.8411 14.3819 12.9516 14.5969 14.0695 14.5969V12.1969C13.2433 12.1969 12.3865 12.0349 11.6583 11.7958C10.8968 11.5457 10.4141 11.2572 10.2442 11.097L8.5978 12.8433ZM14.0695 14.5969C15.1856 14.5969 16.3236 14.3826 17.2916 14.0818C18.2346 13.7888 19.1373 13.3759 19.7209 12.9009L18.2062 11.0394C17.9628 11.2374 17.3905 11.5379 16.5794 11.7899C15.7931 12.0343 14.8977 12.1969 14.0695 12.1969V14.5969ZM18.9636 10.7702H18.9605V13.1701H18.9636V10.7702ZM17.8818 11.865C17.8621 11.7419 17.8676 11.5648 17.9514 11.3761C18.0322 11.194 18.1535 11.0738 18.2509 11.0024L19.67 12.9379C19.8345 12.8173 20.0215 12.628 20.1449 12.35C20.2713 12.0653 20.2964 11.7652 20.2516 11.4853L17.8818 11.865ZM17.4593 10.897C17.5971 10.9353 17.5929 10.9513 17.601 10.9614C17.6423 11.0131 17.7796 11.2274 17.8818 11.865L20.2516 11.4853C20.1178 10.6507 19.8834 9.97326 19.4762 9.46349C19.0357 8.91213 18.5064 8.69703 18.1016 8.58459L17.4593 10.897ZM16.3737 9.25346C15.9381 10.3716 15.9382 10.3716 15.9382 10.3716C15.9382 10.3717 15.9383 10.3717 15.9383 10.3717C15.9384 10.3717 15.9385 10.3717 15.9386 10.3718C15.9388 10.3719 15.939 10.372 15.9393 10.3721C15.9399 10.3723 15.9407 10.3726 15.9417 10.373C15.9437 10.3738 15.9466 10.3749 15.9502 10.3763C15.9574 10.3791 15.9678 10.3831 15.981 10.3882C16.0074 10.3983 16.0451 10.4128 16.092 10.4305C16.1854 10.466 16.3159 10.5148 16.4643 10.5687C16.7522 10.6731 17.1405 10.8085 17.4593 10.897L18.1016 8.58459C17.8778 8.52241 17.5627 8.41411 17.2829 8.31257C17.1475 8.26344 17.028 8.2187 16.9424 8.18629C16.8998 8.17012 16.8658 8.15711 16.8428 8.14826C16.8313 8.14384 16.8226 8.14046 16.8169 8.13826C16.8141 8.13716 16.812 8.13635 16.8107 8.13585C16.8101 8.13561 16.8096 8.13543 16.8094 8.13534C16.8093 8.1353 16.8092 8.13527 16.8092 8.13526C16.8092 8.13526 16.8092 8.13526 16.8092 8.13527C16.8092 8.13527 16.8092 8.13528 16.8092 8.13528C16.8093 8.1353 16.8093 8.13531 16.3737 9.25346Z" fill="#2B3242" mask="url(#path-4-outside-2)"/>
</g>
</svg>
