<svg width="20" height="20" viewBox="0 0 20 20" fill="none" xmlns="http://www.w3.org/2000/svg">
<path d="M4.49817 0.454348V17.2923C4.49817 17.6572 4.94776 17.8732 5.27968 17.6678L10.1402 14.6588L10.9434 15.1295C10.9706 14.8971 10.953 14.7616 11.0132 14.5343C11.0675 14.329 11.2188 14.027 11.2188 14.027C12.081 12.1672 13.0287 11.5114 15.6758 11.1165V0.454347C15.6758 0.203418 15.452 0 15.1758 0H4.99817C4.72203 0 4.49817 0.203418 4.49817 0.454348Z" fill="white"/>
<mask id="path-2-outside-1_7515_213946" maskUnits="userSpaceOnUse" x="11.3517" y="11.5686" width="9" height="9" fill="black">
<rect fill="white" x="11.3517" y="11.5686" width="9" height="9"/>
<path fill-rule="evenodd" clip-rule="evenodd" d="M15.6759 18.6099C17.5118 18.6099 19.0001 17.2575 19.0001 15.5893C19.0001 13.921 17.5118 12.5686 15.6759 12.5686C13.84 12.5686 12.3517 13.921 12.3517 15.5893C12.3517 17.2575 13.84 18.6099 15.6759 18.6099ZM14.1169 15.1188C13.8407 15.1188 13.6169 15.3427 13.6169 15.6188C13.6169 15.895 13.8407 16.1188 14.1169 16.1188H17.2349C17.511 16.1188 17.7349 15.895 17.7349 15.6188C17.7349 15.3427 17.511 15.1188 17.2349 15.1188H14.1169Z"/>
</mask>
<path d="M18.0001 15.5893C18.0001 16.6173 17.0517 17.6099 15.6759 17.6099V19.6099C17.9718 19.6099 20.0001 17.8978 20.0001 15.5893H18.0001ZM15.6759 13.5686C17.0517 13.5686 18.0001 14.5612 18.0001 15.5893H20.0001C20.0001 13.2808 17.9718 11.5686 15.6759 11.5686V13.5686ZM13.3517 15.5893C13.3517 14.5612 14.3 13.5686 15.6759 13.5686V11.5686C13.3799 11.5686 11.3517 13.2808 11.3517 15.5893H13.3517ZM15.6759 17.6099C14.3 17.6099 13.3517 16.6173 13.3517 15.5893H11.3517C11.3517 17.8978 13.3799 19.6099 15.6759 19.6099V17.6099ZM14.6169 15.6188C14.6169 15.895 14.393 16.1188 14.1169 16.1188V14.1188C13.2885 14.1188 12.6169 14.7904 12.6169 15.6188H14.6169ZM14.1169 15.1188C14.393 15.1188 14.6169 15.3427 14.6169 15.6188H12.6169C12.6169 16.4472 13.2885 17.1188 14.1169 17.1188V15.1188ZM17.2349 15.1188H14.1169V17.1188H17.2349V15.1188ZM16.7349 15.6188C16.7349 15.3427 16.9587 15.1188 17.2349 15.1188V17.1188C18.0633 17.1188 18.7349 16.4472 18.7349 15.6188H16.7349ZM17.2349 16.1188C16.9587 16.1188 16.7349 15.895 16.7349 15.6188H18.7349C18.7349 14.7904 18.0633 14.1188 17.2349 14.1188V16.1188ZM14.1169 16.1188H17.2349V14.1188H14.1169V16.1188Z" fill="white" mask="url(#path-2-outside-1_7515_213946)"/>
</svg>
