<svg width="20" height="20" viewBox="0 0 20 20" fill="none" xmlns="http://www.w3.org/2000/svg">
<path d="M14.4758 1.09035H5.69811V16.0881L10.1466 13.3344L11.2188 14.026C11.2188 14.026 11.0674 14.328 11.0131 14.5332C10.953 14.7605 10.9706 14.896 10.9433 15.1284L10.1402 14.6578L5.27962 17.6665C4.9477 17.8719 4.49811 17.6559 4.49811 17.291V0.454315C4.49811 0.203404 4.72197 0 4.99811 0H15.1758C15.4519 0 15.6758 0.203403 15.6758 0.454314V11.1157C15.2137 11.1062 14.9519 11.1352 14.4758 11.2759V1.09035Z" fill="white"/>
<mask id="path-2-outside-1_7515_213197" maskUnits="userSpaceOnUse" x="11.3516" y="11.5679" width="9" height="9" fill="black">
<rect fill="white" x="11.3516" y="11.5679" width="9" height="9"/>
<path fill-rule="evenodd" clip-rule="evenodd" d="M19 15.5883C19 17.2565 17.5117 18.6088 15.6758 18.6088C13.8399 18.6088 12.3516 17.2565 12.3516 15.5883C12.3516 13.9202 13.8399 12.5679 15.6758 12.5679C17.5117 12.5679 19 13.9202 19 15.5883ZM13.6168 15.618C13.6168 15.3419 13.8407 15.118 14.1168 15.118H15.1758V14.2008C15.1758 13.9247 15.3997 13.7008 15.6758 13.7008C15.952 13.7008 16.1758 13.9247 16.1758 14.2008V15.118H17.2348C17.5109 15.118 17.7348 15.3419 17.7348 15.618C17.7348 15.8941 17.5109 16.118 17.2348 16.118H16.1758V17.0339C16.1758 17.3101 15.952 17.5339 15.6758 17.5339C15.3997 17.5339 15.1758 17.3101 15.1758 17.0339V16.118H14.1168C13.8407 16.118 13.6168 15.8941 13.6168 15.618Z"/>
</mask>
<path d="M15.1758 15.118V16.118H16.1758V15.118H15.1758ZM16.1758 15.118H15.1758V16.118H16.1758V15.118ZM16.1758 16.118V15.118H15.1758V16.118H16.1758ZM15.1758 16.118H16.1758V15.118H15.1758V16.118ZM15.6758 19.6088C17.9717 19.6088 20 17.8968 20 15.5883H18C18 16.6162 17.0517 17.6088 15.6758 17.6088V19.6088ZM11.3516 15.5883C11.3516 17.8968 13.3799 19.6088 15.6758 19.6088V17.6088C14.2999 17.6088 13.3516 16.6162 13.3516 15.5883H11.3516ZM15.6758 11.5679C13.38 11.5679 11.3516 13.2799 11.3516 15.5883H13.3516C13.3516 14.5605 14.2999 13.5679 15.6758 13.5679V11.5679ZM20 15.5883C20 13.2799 17.9717 11.5679 15.6758 11.5679V13.5679C17.0517 13.5679 18 14.5605 18 15.5883H20ZM14.1168 14.118C13.2884 14.118 12.6168 14.7896 12.6168 15.618H14.6168C14.6168 15.8941 14.393 16.118 14.1168 16.118V14.118ZM15.1758 14.118H14.1168V16.118H15.1758V14.118ZM16.1758 15.118V14.2008H14.1758V15.118H16.1758ZM16.1758 14.2008C16.1758 14.477 15.952 14.7008 15.6758 14.7008V12.7008C14.8474 12.7008 14.1758 13.3724 14.1758 14.2008H16.1758ZM15.6758 14.7008C15.3997 14.7008 15.1758 14.477 15.1758 14.2008H17.1758C17.1758 13.3724 16.5043 12.7008 15.6758 12.7008V14.7008ZM15.1758 14.2008V15.118H17.1758V14.2008H15.1758ZM17.2348 14.118H16.1758V16.118H17.2348V14.118ZM18.7348 15.618C18.7348 14.7896 18.0632 14.118 17.2348 14.118V16.118C16.9587 16.118 16.7348 15.8941 16.7348 15.618H18.7348ZM17.2348 17.118C18.0632 17.118 18.7348 16.4464 18.7348 15.618H16.7348C16.7348 15.3419 16.9587 15.118 17.2348 15.118V17.118ZM16.1758 17.118H17.2348V15.118H16.1758V17.118ZM15.1758 16.118V17.0339H17.1758V16.118H15.1758ZM15.1758 17.0339C15.1758 16.7578 15.3997 16.5339 15.6758 16.5339V18.5339C16.5043 18.5339 17.1758 17.8624 17.1758 17.0339H15.1758ZM15.6758 16.5339C15.952 16.5339 16.1758 16.7578 16.1758 17.0339H14.1758C14.1758 17.8624 14.8474 18.5339 15.6758 18.5339V16.5339ZM16.1758 17.0339V16.118H14.1758V17.0339H16.1758ZM14.1168 17.118H15.1758V15.118H14.1168V17.118ZM12.6168 15.618C12.6168 16.4464 13.2884 17.118 14.1168 17.118V15.118C14.393 15.118 14.6168 15.3419 14.6168 15.618H12.6168Z" fill="white" mask="url(#path-2-outside-1_7515_213197)"/>
</svg>
