<svg width="20" height="20" viewBox="0 0 20 20" fill="none" xmlns="http://www.w3.org/2000/svg">
<path d="M6.42654 15.1862H7.02654V14.5862H6.42654V15.1862ZM7.27563 17.5647L7.69454 17.9943L7.27563 17.5647ZM9.71458 15.1862V14.5862H9.47045L9.29567 14.7567L9.71458 15.1862ZM2.57656 4.69043C2.57656 4.46952 2.75565 4.29043 2.97656 4.29043V3.09043C2.09291 3.09043 1.37656 3.80677 1.37656 4.69043H2.57656ZM2.57656 14.1862V4.69043H1.37656V14.1862H2.57656ZM2.97656 14.5862C2.75565 14.5862 2.57656 14.4071 2.57656 14.1862H1.37656C1.37656 15.0699 2.09291 15.7862 2.97656 15.7862V14.5862ZM6.42654 14.5862H2.97656V15.7862H6.42654V14.5862ZM5.82654 15.1862V17.2068H7.02654V15.1862H5.82654ZM5.82654 17.2068C5.82654 18.1801 6.9977 18.6739 7.69454 17.9943L6.85672 17.1352C6.86668 17.1255 6.88678 17.1134 6.91225 17.1093C6.93454 17.1056 6.95251 17.1092 6.96539 17.1146C6.97826 17.1201 6.9934 17.1304 7.00634 17.1489C7.02114 17.1701 7.02654 17.1929 7.02654 17.2068H5.82654ZM7.69454 17.9943L10.1335 15.6158L9.29567 14.7567L6.85672 17.1352L7.69454 17.9943ZM16.9766 14.5862H9.71458V15.7862H16.9766V14.5862ZM17.3766 14.1862C17.3766 14.4071 17.1975 14.5862 16.9766 14.5862V15.7862C17.8602 15.7862 18.5766 15.0699 18.5766 14.1862H17.3766ZM17.3766 4.69043V14.1862H18.5766V4.69043H17.3766ZM16.9766 4.29043C17.1975 4.29043 17.3766 4.46952 17.3766 4.69043H18.5766C18.5766 3.80677 17.8602 3.09043 16.9766 3.09043V4.29043ZM2.97656 4.29043H16.9766V3.09043H2.97656V4.29043Z" fill="white"/>
<line x1="5.06973" y1="7.5958" x2="14.8834" y2="7.5958" stroke="white" stroke-width="1.2" stroke-linecap="round"/>
<path d="M4.96973 10.1992H9.54421" stroke="white" stroke-width="1.2" stroke-linecap="round"/>
<path d="M11.7553 10.1992H14.8767" stroke="white" stroke-width="1.2" stroke-linecap="round"/>
</svg>
