<svg width="20" height="20" viewBox="0 0 20 20" fill="none" xmlns="http://www.w3.org/2000/svg">
<g clip-path="url(#clip0_4872_152924)">
<path d="M7.03358 7.03226C7.99409 -0.0471697 8.63443 3.58153 10.9823 1.98071L12.6899 7.21013L17.9194 8.34851L18.7732 12.7953L18.0973 17.42L16.0695 18.7719L3.36938 18.5584C3.36938 10.5518 3.68957 11.3723 7.03358 7.03226Z" fill="white"/>
<path fill-rule="evenodd" clip-rule="evenodd" d="M19.9997 12.0227C20.0077 12.5575 19.8496 13.0816 19.5472 13.5227C19.6423 13.7607 19.7034 14.0109 19.7288 14.266C19.8076 15.0516 19.5788 15.8372 19.0905 16.4577C19.1253 16.7147 19.1197 16.9757 19.0738 17.231C18.8397 18.556 17.7272 19.4493 16.0972 19.6202L16.0138 19.6293H13.718C12.4742 19.8577 11.214 19.9854 9.94965 20.011C8.63526 20.0167 7.32498 19.8639 6.04715 19.556C5.69776 19.4619 5.3399 19.4027 4.97882 19.3793C4.85204 19.3793 4.72587 19.3967 4.60382 19.431L2.49965 19.1668V17.8268C2.49965 17.0568 2.49965 16.3318 2.49965 15.6243C2.49965 14.2652 2.50549 12.9693 2.49965 11.526C2.49965 10.2268 3.67549 9.81267 4.45382 9.5385L4.70382 9.451C5.52465 8.35517 6.63882 6.52434 6.71465 5.61184C6.74965 5.12934 7.06049 2.8335 7.12215 2.38184L7.22299 1.63184L7.85215 1.21517C8.26212 0.955077 8.73831 0.818527 9.22382 0.821836C10.403 0.821836 11.9563 1.54434 12.6647 4.98434C12.8068 5.63564 12.9076 6.29529 12.9663 6.95934L16.1655 6.626C16.2532 6.61646 16.3414 6.61173 16.4297 6.61184C17.1484 6.65445 17.8269 6.95825 18.3373 7.46609C18.8477 7.97392 19.155 8.65079 19.2013 9.36934C19.226 9.61118 19.2221 9.85508 19.1897 10.096C19.7043 10.6055 19.9956 11.2985 19.9997 12.0227ZM17.1138 10.8968C17.0715 10.8969 17.0292 10.8991 16.9872 10.9035H16.6038C16.909 10.844 17.1787 10.6672 17.3549 10.411C17.5311 10.1548 17.5999 9.83979 17.5463 9.5335C17.5373 9.22619 17.4211 8.9317 17.2177 8.70111C17.0144 8.47051 16.7368 8.31835 16.433 8.271C16.4052 8.27084 16.3773 8.27224 16.3497 8.27517L11.498 8.7835H10.8813C11.1013 8.7485 11.6747 8.38184 11.0363 5.32184C10.5363 2.90517 9.72965 2.4835 9.22632 2.4835C9.06851 2.48227 8.91331 2.52373 8.77715 2.6035C8.77715 2.6035 8.41632 5.28017 8.37632 5.73934C8.21382 7.676 5.85465 10.6843 5.85465 10.6843C5.85465 10.9343 4.16882 11.2785 4.16882 11.5252C4.18299 13.7085 4.16882 15.5735 4.16882 17.826C4.43273 17.7536 4.70516 17.7169 4.97882 17.7168C6.13465 17.7168 7.20048 18.3485 9.94965 18.3485C11.1667 18.3169 12.3793 18.1893 13.5763 17.9668H15.9205C16.2486 17.9807 16.5726 17.8886 16.8444 17.7042C17.1161 17.5198 17.3214 17.2528 17.4297 16.9427C17.4482 16.7049 17.3864 16.4678 17.2542 16.2692C17.122 16.0707 16.927 15.9223 16.7005 15.8477H17.083C17.3968 15.7815 17.6736 15.5981 17.8568 15.3348C18.04 15.0715 18.1158 14.7483 18.0688 14.431C18.0218 14.1401 17.8899 13.8695 17.6896 13.6533C17.4892 13.4372 17.2295 13.285 16.943 13.216C16.943 13.216 18.333 13.0835 18.333 12.0343C18.3189 11.7226 18.183 11.4288 17.9545 11.2162C17.7261 11.0037 17.4233 10.8893 17.1113 10.8977L17.1138 10.8968ZM10.7997 8.78434H10.8772C10.8641 8.78539 10.851 8.78539 10.838 8.78434C10.8252 8.78549 10.8124 8.78549 10.7997 8.78434ZM1.24965 19.1668C1.12171 19.1462 1.00676 19.0768 0.929031 18.9731C0.851303 18.8694 0.816868 18.7396 0.832985 18.611V11.3893C0.816868 11.2608 0.851303 11.1309 0.929031 11.0272C1.00676 10.9236 1.12171 10.8541 1.24965 10.8335C1.37759 10.8541 1.49254 10.9236 1.57027 11.0272C1.648 11.1309 1.68244 11.2608 1.66632 11.3893V18.6118C1.6822 18.7403 1.64766 18.8699 1.56996 18.9734C1.49225 19.0769 1.37743 19.1462 1.24965 19.1668Z" fill="white"/>
</g>
<defs>
<clipPath id="clip0_4872_152924">
<rect width="20" height="20" fill="white"/>
</clipPath>
</defs>
</svg>
