<svg width="82" height="82" viewBox="0 0 82 82" fill="none" xmlns="http://www.w3.org/2000/svg">
<g clip-path="url(#clip0_1141_3638)">
<path d="M75.7114 72.7008V32.2809C75.7114 30.0872 73.9331 28.309 71.7395 28.309L10.1516 28.309C7.95802 28.309 6.17973 30.0872 6.17973 32.2809V72.7008C6.17973 74.8945 7.95802 76.6727 10.1516 76.6727H71.7395C73.9331 76.6727 75.7114 74.8945 75.7114 72.7008Z" fill="white"/>
<path d="M71.7393 78.1213H10.1514C7.16083 78.1213 4.73096 75.6915 4.73096 72.7008V32.2575C4.73096 29.2669 7.16083 26.837 10.1514 26.837H71.7627C74.7533 26.837 77.1832 29.2669 77.1832 32.2575V72.7008C77.1832 75.6915 74.7533 78.1213 71.7627 78.1213H71.7393ZM10.1514 29.7576C8.77295 29.7576 7.65147 30.879 7.65147 32.2575V72.7008C7.65147 74.0793 8.77295 75.2008 10.1514 75.2008H71.7627C73.1412 75.2008 74.2626 74.0793 74.2626 72.7008V32.2575C74.2626 30.879 73.1412 29.7576 71.7627 29.7576H10.1514Z" fill="#87919F"/>
<path d="M63.7717 46.019V73.5887C63.7717 74.4999 62.6502 75.2475 61.2717 75.2475H15.9453C14.5668 75.2475 13.4453 74.4999 13.4453 73.5887V34.5238C13.4453 33.6126 14.5668 32.865 15.9453 32.865H43.8421L63.7717 46.019Z" fill="#DBDADA"/>
<path d="M66.3421 46.6966H48.4451C44.8237 46.6966 41.8564 44.8274 41.8564 42.5144V31.8136H42.8845L45.4078 33.4024V42.491C45.4078 43.5424 46.7629 44.4069 48.4451 44.4069H62.7907L66.3421 46.6498V46.6966Z" fill="#DBDADA"/>
<path d="M63.1642 45.6218H48.4215C45.4309 45.6218 43.001 44.0096 43.001 42.047V32.8883H43.8421L45.9215 34.2668V42.0704C45.9215 42.9816 47.043 43.7293 48.4215 43.7293H60.2437L63.1642 45.6451V45.6218Z" fill="#DBDADA"/>
<path d="M45.0571 30.9491H15.9454C12.9548 30.9491 10.5249 32.5612 10.5249 34.5238V73.5887C10.5249 75.5513 12.9548 77.1634 15.9454 77.1634H61.2718C64.2624 77.1634 66.6923 75.5513 66.6923 73.5887V45.2246L45.0571 30.9491ZM63.7718 73.5887C63.7718 74.4999 62.6503 75.2475 61.2718 75.2475H15.9454C14.5669 75.2475 13.4454 74.4999 13.4454 73.5887V34.5238C13.4454 33.6126 14.5669 32.865 15.9454 32.865H43.8422L63.1643 45.5984H63.7718V73.5653V73.5887Z" fill="#DBDADA"/>
<path d="M63.772 45.6218V46.019L63.1646 45.6218H63.772Z" fill="#DBDADA"/>
<path d="M66.1081 28.0286V69.8271C66.1081 71.2056 64.9866 72.327 63.6081 72.327H18.2817C16.9032 72.327 15.7817 71.2056 15.7817 69.8271V10.599C15.7817 9.22048 16.9032 8.099 18.2817 8.099H46.1785L66.1081 28.0286Z" fill="white"/>
<path d="M65.5007 27.4211H50.7579C47.7673 27.4211 45.3374 24.9913 45.3374 22.0007V8.099H46.1785L48.2579 10.1784V22.0007C48.2579 23.3791 49.3794 24.5006 50.7579 24.5006H62.5801L65.5007 27.4211Z" fill="white"/>
<path d="M47.3935 5.17847H18.2818C15.2912 5.17847 12.8613 7.6317 12.8613 10.5989V69.8271C12.8613 72.8177 15.2912 75.2475 18.2818 75.2475H63.6083C66.5989 75.2475 69.0287 72.8177 69.0287 69.8271V26.8137L47.3935 5.17847ZM66.1082 69.8271C66.1082 71.2055 64.9867 72.327 63.6083 72.327H18.2818C16.9033 72.327 15.7818 71.2055 15.7818 69.8271V10.5989C15.7818 9.22046 16.9033 8.09899 18.2818 8.09899H46.1786L65.5007 27.4211H66.1082V69.8271Z" fill="white"/>
<path d="M66.1084 27.4211V28.0286L65.501 27.4211H66.1084Z" fill="white"/>
<ellipse opacity="0.9" cx="26.5541" cy="34.0922" rx="1.75231" ry="1.75231" fill="#6391FF"/>
<rect x="34.9717" y="31.0688" width="19.1425" height="2.54198" rx="1.27099" fill="#D9D9D9"/>
<rect x="34.9717" y="35.6477" width="12.6638" height="2.54198" rx="1.27099" fill="#D9D9D9"/>
<ellipse opacity="0.9" cx="26.5541" cy="46.9424" rx="1.75231" ry="1.75231" fill="#6391FF"/>
<rect x="34.9717" y="43.9191" width="19.1425" height="2.54198" rx="1.27099" fill="#D9D9D9"/>
<rect x="34.9717" y="48.4979" width="12.6638" height="2.54198" rx="1.27099" fill="#D9D9D9"/>
<ellipse opacity="0.9" cx="26.5541" cy="59.7927" rx="1.75231" ry="1.75231" fill="#6391FF"/>
<rect x="34.9717" y="56.7694" width="19.1425" height="2.54198" rx="1.27099" fill="#D9D9D9"/>
<rect x="34.9717" y="61.3483" width="12.6638" height="2.54198" rx="1.27099" fill="#D9D9D9"/>
<path d="M43.9555 8.099H16.2768C14.7133 8.099 13.4458 9.44666 13.4458 11.1091V15.768C13.4458 17.4304 14.7133 18.7781 16.2768 18.7781H43.9555C45.519 18.7781 46.7865 17.4304 46.7865 15.768V11.1091C46.7865 9.44666 45.519 8.099 43.9555 8.099Z" fill="#D8E4FF"/>
<path d="M68.6785 29.0332H50.7816C47.1601 29.0332 44.1929 26.2062 44.1929 22.7015V6.48682H45.2209L47.7442 8.91669V22.7015C47.7442 24.3137 49.0993 25.622 50.7816 25.622H65.1271L68.6785 29.0332Z" fill="#DBDADA"/>
<path d="M65.5007 27.4211H50.7579C47.7673 27.4211 45.3374 24.9913 45.3374 22.0007V8.099H46.1785L48.2579 10.1784V22.0007C48.2579 23.3791 49.3794 24.5006 50.7579 24.5006H62.5801L65.5007 27.4211Z" fill="#87919F"/>
<path d="M47.3935 5.17847H18.2818C15.2912 5.17847 12.8613 7.6317 12.8613 10.5989V69.8271C12.8613 72.8177 15.2912 75.2475 18.2818 75.2475H63.6083C66.5989 75.2475 69.0287 72.8177 69.0287 69.8271V26.8137L47.3935 5.17847ZM66.1082 69.8271C66.1082 71.2055 64.9867 72.327 63.6083 72.327H18.2818C16.9033 72.327 15.7818 71.2055 15.7818 69.8271V10.5989C15.7818 9.22046 16.9033 8.09899 18.2818 8.09899H46.1786L65.5007 27.4211H66.1082V69.8271Z" fill="#87919F"/>
<path d="M66.1084 27.4211V28.0286L65.501 27.4211H66.1084Z" fill="#87919F"/>
<rect x="44.1924" y="8.099" width="1.14482" height="10.6791" fill="#9EBCFF"/>
<path d="M6.17956 71.1822C5.22163 71.1822 4.42725 70.3878 4.42725 69.4299V31.6267C4.42725 28.9865 6.57675 26.837 9.2169 26.837H12.6748C13.6327 26.837 14.4271 27.6314 14.4271 28.5893C14.4271 29.5473 13.6327 30.3417 12.6748 30.3417H9.2169C8.51597 30.3417 7.93187 30.9258 7.93187 31.6267V69.4299C7.93187 70.3878 7.13749 71.1822 6.17956 71.1822Z" fill="#87919F"/>
<path d="M75.7109 71.1822C74.753 71.1822 73.9586 70.3878 73.9586 69.4299V31.6267C73.9586 30.9258 73.3745 30.3417 72.6736 30.3417H69.2157C68.2578 30.3417 67.4634 29.5473 67.4634 28.5893C67.4634 27.6314 68.2578 26.837 69.2157 26.837H72.6736C75.3137 26.837 77.4632 28.9865 77.4632 31.6267V69.4299C77.4632 70.3878 76.6689 71.1822 75.7109 71.1822Z" fill="#87919F"/>
<path d="M78.5148 68.0046H3.37569C1.86597 68.0046 0.64209 69.2285 0.64209 70.7382V78.6587C0.64209 80.1684 1.86597 81.3923 3.37569 81.3923H78.5148C80.0245 81.3923 81.2484 80.1684 81.2484 78.6587V70.7382C81.2484 69.2285 80.0245 68.0046 78.5148 68.0046Z" fill="#87919F"/>
<path d="M78.024 70.8889H3.86621V78.508H78.024V70.8889Z" fill="#D9E4F3"/>
<path d="M46.7863 76.1587H35.0809C34.2632 76.1587 33.6323 75.5046 33.6323 74.7102C33.6323 73.9158 34.2865 73.2616 35.0809 73.2616H46.7863C47.6041 73.2616 48.2349 73.9158 48.2349 74.7102C48.2349 75.5046 47.5807 76.1587 46.7863 76.1587Z" fill="#87919F"/>
</g>
<defs>
<clipPath id="clip0_1141_3638">
<rect width="80.6063" height="76.1905" fill="white" transform="translate(0.64209 5.17847)"/>
</clipPath>
</defs>
</svg>
