<svg width="81" height="81" viewBox="0 0 81 81" fill="none" xmlns="http://www.w3.org/2000/svg">
<mask id="path-1-inside-1_1141_3643" fill="white">
<path fill-rule="evenodd" clip-rule="evenodd" d="M69.6309 79.8262H21.4798C19.2999 79.8262 17.5327 78.0591 17.5327 75.8792V5.72451C17.5327 3.54462 19.2999 1.77747 21.4798 1.77747H49.3412L73.5779 26.5647V75.8792C73.5779 78.0591 71.8108 79.8262 69.6309 79.8262Z"/>
</mask>
<path fill-rule="evenodd" clip-rule="evenodd" d="M69.6309 79.8262H21.4798C19.2999 79.8262 17.5327 78.0591 17.5327 75.8792V5.72451C17.5327 3.54462 19.2999 1.77747 21.4798 1.77747H49.3412L73.5779 26.5647V75.8792C73.5779 78.0591 71.8108 79.8262 69.6309 79.8262Z" fill="white"/>
<path d="M49.3412 1.77747L51.4862 -0.319901L49.3412 -1.22253V1.77747ZM73.5779 26.5647H76.5779L75.7229 24.4673L73.5779 26.5647ZM21.4798 82.8262H69.6309V76.8262H21.4798V82.8262ZM14.5327 75.8792C14.5327 79.7159 17.643 82.8262 21.4798 82.8262V76.8262C20.9567 76.8262 20.5327 76.4022 20.5327 75.8792H14.5327ZM14.5327 5.72451V75.8792H20.5327V5.72451H14.5327ZM21.4798 -1.22253C17.643 -1.22253 14.5327 1.88776 14.5327 5.72451H20.5327C20.5327 5.20148 20.9567 4.77747 21.4798 4.77747V-1.22253ZM49.3412 -1.22253H21.4798V4.77747H49.3412V-1.22253ZM75.7229 24.4673L51.4862 -0.319901L47.1962 3.87483L71.4329 28.6621L75.7229 24.4673ZM76.5779 75.8792V26.5647H70.5779V75.8792H76.5779ZM69.6309 82.8262C73.4676 82.8262 76.5779 79.716 76.5779 75.8792H70.5779C70.5779 76.4022 70.1539 76.8262 69.6309 76.8262V82.8262Z" fill="#87919F" mask="url(#path-1-inside-1_1141_3643)"/>
<path opacity="0.08" d="M49.2239 1.79382L49.2239 1.82751L73.578 26.6892V30.1523H54.6132C50.5712 30.1523 49.2239 27.3984 49.2239 24.9505L49.2239 1.82751L49.1909 1.79382H49.2239Z" fill="#485674"/>
<path d="M50.7891 22.1635V5.47011L70.0102 25.103H53.8911C52.5359 25.103 51.8318 24.6592 51.4402 24.1971C51.0107 23.6901 50.7891 22.9584 50.7891 22.1635Z" fill="white" stroke="#87919F" stroke-width="3" stroke-linejoin="round"/>
<line x1="24.2903" y1="51.5367" x2="65.5004" y2="51.5367" stroke="#D7DADF" stroke-width="2.4" stroke-linecap="round" stroke-linejoin="round"/>
<line x1="24.2903" y1="39.6861" x2="65.5004" y2="39.6861" stroke="#D7DADF" stroke-width="2.4" stroke-linecap="round" stroke-linejoin="round"/>
<line x1="24.2903" y1="57.462" x2="65.5004" y2="57.462" stroke="#D7DADF" stroke-width="2.4" stroke-linecap="round" stroke-linejoin="round"/>
<line x1="24.2903" y1="45.6114" x2="65.5004" y2="45.6114" stroke="#D7DADF" stroke-width="2.4" stroke-linecap="round" stroke-linejoin="round"/>
<line x1="24.2903" y1="63.3875" x2="57.2476" y2="63.3875" stroke="#D7DADF" stroke-width="2.4" stroke-linecap="round" stroke-linejoin="round"/>
<rect opacity="0.08" x="6.38721" y="37.9969" width="32.694" height="32.694" rx="4" fill="#485674"/>
<rect x="6.38721" y="35.5944" width="32.694" height="32.694" rx="3.15764" fill="#87919F"/>
<path opacity="0.89" d="M25.5064 52.2939C25.5064 52.2939 25.82 54.7694 27.6347 55.0495C27.6347 55.0495 29.5613 55.8 30.7711 56.136C31.9808 56.4721 33.002 57.0843 33.4859 59.2618L33.8791 64.4305L11.5898 64.426L12.0435 58.8989C12.6484 57.054 13.5788 56.4729 14.7885 56.1369C15.9983 55.8009 17.9249 55.0503 17.9249 55.0503C19.7396 54.7703 20.0532 52.2948 20.0532 52.2948C20.0532 52.2948 18.5522 51.253 18.6418 49.416C18.6418 49.416 18.2274 49.4496 18.1265 48.9231C18.0257 48.3966 17.7905 47.4557 17.7905 47.4557C17.683 46.7926 18.0145 46.4476 18.1938 46.3579V44.196C18.1938 40.6086 21.1967 39.4797 22.9595 39.4676L22.9597 39.4525C24.1242 39.4525 26.046 39.6025 26.3821 41.4844C27.155 42.0333 27.3659 42.9766 27.3659 44.1952V46.3571C27.5451 46.4467 27.8766 46.7917 27.7691 47.4548C27.7691 47.4548 27.5339 48.3958 27.4331 48.9222C27.3323 49.4487 26.9178 49.4151 26.9178 49.4151C27.0074 51.2521 25.5064 52.2939 25.5064 52.2939Z" fill="white"/>
</svg>
